<svg width="27" height="27" viewBox="0 0 27 27" fill="none" xmlns="http://www.w3.org/2000/svg">
<path d="M2.5 25L1.5 25.5" stroke="#534B23"/>
<path d="M8.5 6H11.5V11.5H15.5V6H18L13.5 1L8.5 6Z" stroke="#534B23"/>
<path d="M9.5 9H1V26H26V9H17.5" stroke="#534B23"/>
<path d="M2 9L13 19.5L25 9" stroke="#534B23"/>
<path d="M25.5 25.5L16 17" stroke="#534B23"/>
<path d="M2 25.5L10.5 17.5" stroke="#534B23"/>
<path d="M9.95801 5.41805C10.2393 5.59385 10.4536 5.69252 10.101 5.40216C9.69076 5.06431 10.3706 5.2228 10.5776 5.283C10.6538 5.30516 11.5566 5.60427 11.5547 5.60076C11.2969 5.12475 10.8433 4.73079 10.5022 4.31384C10.4046 4.19463 11.2777 4.85628 11.38 4.94538C11.6058 5.14215 11.859 5.32513 12.0711 5.53721C12.2368 5.7029 11.7467 5.19835 11.5984 5.01688C11.4568 4.84356 10.3779 3.70074 11.1853 4.27412C11.6045 4.57179 12.0274 4.8607 12.4564 5.14398C12.5915 5.23323 12.9474 5.5528 12.8575 5.41805C12.6029 5.03607 12.2194 4.71125 11.936 4.34562C11.6616 3.99146 12.6736 4.7623 12.7304 4.80637C12.9298 4.96101 13.1062 5.19429 13.3183 5.33066C13.79 5.63392 12.6472 4.3714 12.5914 3.81338C12.5578 3.47737 12.9922 4.35715 13.1832 4.63557C13.405 4.95871 14.0377 5.93523 13.8982 5.56898C13.6737 4.97961 13.2498 4.40965 12.9251 3.87295C12.919 3.86293 12.4095 3.00862 12.5001 3.08253C13.0745 3.55147 13.5177 4.32536 14.1445 4.71104C14.4578 4.90388 13.7224 4.10792 13.5248 3.79749C13.4161 3.62669 13.2888 3.43925 13.6043 3.62272C14.1376 3.93287 14.6339 4.34216 15.1216 4.71898C15.4676 4.98637 14.9908 4.45679 14.9388 4.36945C14.6686 3.9155 14.4051 3.46066 14.0968 3.0309C14.0697 2.99317 13.7534 2.59248 14.0332 2.94352C14.6192 3.67865 15.1965 4.42116 15.7928 5.14795C16.2468 5.70124 15.8453 5.30995 16.0669 5.36244C16.1099 5.37264 16.5282 5.46433 16.5276 5.45777C16.4985 5.11521 16.097 4.92065 15.8603 4.67132C15.4858 4.27685 14.3027 3.0663 13.93 2.68534C13.602 2.35014 12.6128 1.41491 13.0482 1.58908C13.3028 1.69091 13.6283 1.86885 13.8505 2.03394C14.353 2.40717 13.486 2.48235 13.1515 2.64959C12.632 2.90934 11.0866 3.65115 11.658 3.54725C11.9302 3.49776 12.3081 3.20738 12.5199 3.0309C12.8151 2.78495 11.517 4.14804 11.8606 3.97623C12.2625 3.77524 12.6319 3.36597 13.0124 3.11828C13.2052 2.99281 13.482 2.82693 13.6877 2.70123C13.7676 2.65236 13.932 2.49734 13.9459 2.59001C14.0341 3.17814 13.6407 4.13549 13.5169 4.67926C13.3031 5.61845 13.089 6.55833 12.8496 7.49141C12.8111 7.64136 12.6605 8.07302 12.7463 7.94421C12.7998 7.86401 12.7994 7.75888 12.8258 7.66618C12.9688 7.16411 13.1227 6.66539 13.2706 6.16478C13.4149 5.67632 13.7272 4.18235 13.6599 4.68721C13.5392 5.59243 13.2946 6.54575 13.0323 7.41992" stroke="#534B23" stroke-linecap="round"/>
<path d="M12.1026 6.133C12.0934 7.22304 12.0986 8.37407 11.9239 9.45753C11.8898 9.66889 11.6957 10.6073 11.9239 10.7087C12.0901 10.7826 12.057 10.8517 12.2774 10.8517C12.4124 10.8517 12.5475 10.8517 12.6825 10.8517C13.1435 10.8517 13.5942 10.9947 14.0687 10.9947C14.3274 10.9947 14.7817 10.9689 14.9783 11.1218C15.0769 11.1985 14.7506 11.0098 14.6605 10.9232C14.3368 10.6119 14.6448 9.50237 14.6844 9.1795C14.7886 8.32789 14.93 7.47901 15.018 6.62552C15.0403 6.40938 15.1085 6.15439 14.8909 6.04562C14.8127 6.00649 14.6872 5.94362 14.6764 5.84702C14.6583 5.68363 14.0374 5.15552 14.1362 5.07646C14.3653 4.89318 15.1105 5.3419 15.3199 5.41805" stroke="#534B23" stroke-linecap="round"/>
<path d="M12.603 5.70404C12.5049 7.09476 12.3317 8.50715 12.3925 9.90638C12.4 10.0774 12.4471 10.2379 12.4601 10.4068C12.4759 10.613 12.5469 10.0013 12.5633 9.79516C12.6383 8.85374 12.7479 7.917 12.9129 6.98698C12.9227 6.93129 12.9605 6.76757 12.9605 6.82413C12.9605 7.30577 12.9411 7.78893 12.9208 8.26993C12.9009 8.74198 12.8745 9.21328 12.8334 9.68395C12.829 9.73411 12.7783 9.96944 12.8414 9.74353C13.1606 8.59966 13.5563 7.48599 13.8304 6.32764C13.859 6.20683 14.0655 5.13347 14.0171 5.8947C13.9429 7.0618 13.752 8.21385 13.6199 9.37413C13.5762 9.7571 13.8384 8.62988 13.8741 8.2461C13.9295 7.65054 13.9351 8.04536 13.8741 8.38114C13.816 8.70045 13.7301 9.00882 13.6516 9.3225C13.5707 9.64619 13.8219 8.67387 13.8502 8.34142C13.8898 7.87842 13.89 7.41542 13.89 6.95124C13.89 6.43292 14.0127 7.98213 14.025 8.5003C14.0442 9.30975 14.0695 10.1405 13.9773 10.947C13.9662 11.0445 13.9451 11.1051 13.9773 10.8835C14.0478 10.3994 14.1525 9.92042 14.2315 9.43768C14.3545 8.68685 14.4871 7.91909 14.5294 7.15778C14.5333 7.08903 14.5447 6.88331 14.5334 6.95124C14.4938 7.18877 14.476 7.43236 14.4381 7.67016C14.2749 8.69386 14.1017 9.74174 13.8185 10.7405C13.7723 10.9034 13.694 11.3503 13.5722 10.9947C13.3212 10.262 13.271 9.46404 13.0161 8.73862C12.9803 8.63666 12.9605 9.00353 12.9605 9.00871C12.9605 9.35167 13.0304 9.57545 13.0995 9.88652C13.2106 10.3864 14.0599 8.71304 14.1243 8.52811C14.2773 8.08888 14.3636 7.62276 14.446 7.16572C14.4646 7.06283 14.55 6.87798 14.5175 6.77647C14.3765 6.33568 14.3904 5.87649 14.3904 5.41806" stroke="#534B23" stroke-linecap="round"/>
</svg>
