<svg width="116" height="107" viewBox="0 0 116 107" fill="none" xmlns="http://www.w3.org/2000/svg">
<g opacity="0.3">
<path d="M11.2048 40.7014L31.6361 58.2032M11.2048 40.7014L9.30715 62.103L10.9389 68.9539L9.49137 83.5625L68.6159 85.0231M11.2048 40.7014L59.1299 43.3495M69.3986 47.3852L70.0207 64.92L68.9112 80.7976M68.6159 85.0231L48.7328 61.4693M68.6159 85.0231L68.9112 80.7976M48.7328 61.4693L68.9723 46.0916L67.8967 43.8339L59.1299 43.3495M48.7328 61.4693L43.0758 65.7675M43.0758 65.7675L41.693 66.8181L31.6361 58.2032M43.0758 65.7675L31.6361 58.2032M59.1299 43.3495L70.0002 13.2214L81.0537 18.2591L86.334 21.4272L92.1686 24.4886L98.861 26.3532L104.939 29.4824L112.795 33.7597L111.681 37.7572L107.832 46.8667L104.93 57.2843L102.059 62.8809L100.304 69.18L96.2791 77.9794L90.8836 91.227L84.1902 87.0125L77.9845 85.2835L71.7982 81.6019L68.9112 80.7976" stroke="black"/>
<path d="M71.9092 20.0191L77.0198 21.4429L81.5229 25.0472L86.3902 26.4033L89.967 29.0968L93.374 30.046L96.9028 31.0291L100.675 32.0801L103.035 34.4345L107.05 35.5533" stroke="black"/>
<path d="M107.174 40.287L102.306 38.9309L97.2693 35.8306L91.4286 34.2034L87.2772 31.2192L80.098 29.2191L70.6938 24.3799" stroke="black"/>
<path d="M104.486 44.7596L97.915 42.929L89.7747 37.7892L82.3521 35.7212C81.863 35.2804 79.6071 33.8077 74.4961 31.4439" stroke="black"/>
<path d="M64.9257 34.2602C64.9435 33.569 65.8931 32.8589 69.5496 35.5485C73.2061 38.2381 77.2384 38.3868 78.7974 38.1249L86.7751 42.4362L95.6579 44.911L101.602 50.8747" stroke="black"/>
<path d="M98.0024 58.6179L88.1791 53.4008C87.8004 53.0342 85.8356 51.8342 81.006 49.9665C76.1764 48.0987 71.3949 46.0269 69.6079 45.2244" stroke="black"/>
<path d="M69.5981 73.0262L75.1014 75.8648L80.625 79.1007L89.5078 81.5755" stroke="black"/>
<path d="M69.8452 66.9598L76.0448 70.123L83.4674 72.1909L92.4114 75.8576" stroke="black"/>
<path d="M69.8442 62.26L79.8159 66.4741L83.1013 67.3894L88.5708 70.3492L94.1682 71.9086" stroke="black"/>
<path d="M69.6792 56.7315L76.1763 60.2386L82.8688 62.1032L91.3261 65.6343L95.2812 67.911" stroke="black"/>
<path d="M69.6647 52.5504C70.0904 52.2774 71.6355 52.1596 74.4102 53.8726C77.1849 55.5855 80.844 56.6658 82.3267 56.9919L87.201 59.2637L91.2165 60.3824L96.3618 64.0351" stroke="black"/>
<path d="M65.7852 37.763L70.1053 40.1415L75.8243 41.7348L81.8347 45.1063L89.2573 47.1743L100.528 53.3166" stroke="black"/>
<path d="M33.7957 59.3964L10.1811 82.9715" stroke="black"/>
<path d="M13.0103 43.539C12.5338 46.1403 12.0143 48.6065 11.309 51.1379C11.2572 51.324 11.5611 50.6718 11.5696 50.6585C12.0537 49.9098 12.7056 49.2915 13.2635 48.6005C13.9433 47.7585 14.6752 46.1914 15.6919 45.6891C16.138 45.4687 15.391 47.3584 15.3841 47.3743C14.1067 50.3596 13.0875 53.5224 11.5147 56.3702C11.3341 56.6972 10.5484 58.2524 11.4412 57.1317C12.7627 55.4727 14.0299 53.7739 15.3753 52.1328C16.2983 51.007 17.5155 49.9298 18.2286 48.6498C18.3078 48.5077 19.1343 47.3648 19.0483 47.9467C18.5602 51.2475 16.8081 54.6381 15.6068 57.7287C14.9604 59.3915 13.0515 64.3915 13.6943 62.7273C14.1028 61.6697 14.9669 60.7507 15.6463 59.8672C16.7464 58.4366 17.7984 56.9736 18.9626 55.5932C19.6185 54.8154 20.4552 54.0854 21.0625 53.2803C21.4898 52.7138 20.7335 54.6677 20.4488 55.3173C19.6436 57.1539 18.7524 58.9798 17.8445 60.7671C16.5739 63.2687 14.8954 65.5455 13.6839 68.0719C12.6429 70.2427 11.0434 72.2421 10.3911 74.5834C10.2905 74.9446 9.95829 75.7547 10.3204 74.9202C10.8709 73.6514 11.8504 72.4878 12.7045 71.4214C14.5436 69.1251 16.4138 66.8722 18.2039 64.5357C20.2163 61.9092 22.543 59.5156 24.3979 56.774C24.7682 56.2267 25.2662 55.4503 25.8073 55.0737C26.0065 54.9351 26.9169 53.6031 26.7498 54.6348C26.2993 57.416 24.7083 59.976 23.3551 62.3829C21.164 66.2798 18.8989 70.0365 16.408 73.7182C13.6693 77.7662 23.0065 66.4964 26.142 62.7454C26.1626 62.7208 27.9925 60.156 28.0275 60.1657C28.076 60.1792 27.9539 62.2959 28.0665 62.6376" stroke="#A8E0FE" stroke-linecap="round"/>
<path d="M17.0034 41.3951C17.0002 41.5674 16.8716 46.4039 17.4045 45.888C17.892 45.4163 18.2062 44.635 18.6479 44.0953C18.6997 44.0319 19.8775 42.5915 19.9712 42.7567C20.76 44.1474 19.4133 46.6017 20.3013 47.9498C20.3564 48.0335 21.2915 46.7269 21.368 46.6426C22.5811 45.3064 23.7698 43.8606 25.0399 42.5851C25.1447 42.4797 26.9608 40.2222 27.181 40.6104C27.602 41.3527 26.2068 44.4038 25.9814 45.2128C25.6322 46.4662 25.283 47.7196 24.9338 48.973C24.3404 51.1029 27.9794 46.2692 28.6709 45.5713C29.7754 44.4564 28.878 46.8123 28.7684 47.2234C27.9541 50.2795 27.4216 53.3926 26.5716 56.4434C26.4131 57.0125 27.3952 55.5921 27.764 55.1301C29.547 52.896 31.4897 50.7989 33.1017 48.4307C33.9079 47.2462 34.5353 46.0069 35.3891 44.8925C35.6258 44.5836 35.5443 45.6682 35.4993 46.0545C35.2577 48.1272 35.0161 50.2014 34.7988 52.2769C34.7052 53.171 34.1975 57.1009 34.3639 56.8043C36.0136 53.8644 38.2135 51.1309 39.6752 48.1229C40.3943 46.6434 40.9852 46.2786 40.6765 48.2373C40.3058 50.5889 40.4182 53.4656 39.7943 55.705C39.0675 58.3139 40.6151 55.9615 41.2649 55.0245C43.2043 52.2281 45.6311 49.6068 47.9186 47.0874C48.5296 46.4143 48.9081 45.6863 48.4852 47.2041C47.4552 50.9014 45.6389 54.2407 44.4219 57.8581C44.119 58.7583 43.8918 59.6866 43.6369 60.6014C43.1521 62.3417 45.9801 57.8459 47.0947 56.4225C49.3884 53.493 51.5104 50.411 54.0537 47.6859C54.4793 47.2299 54.9028 46.5009 55.4633 46.1863C56.1001 45.8289 54.9106 49.5451 54.7416 50.0373C54.6941 50.1755 53.1981 53.5721 53.4766 53.6136C54.2267 53.7254 57.4637 49.5024 58.0078 48.9932C58.2335 48.782 60.8383 46.1563 60.925 46.3093C61.2049 46.8027 60.3477 47.5102 60.717 48.0202C60.9098 48.2866 60.4295 49.7294 61.3116 48.9264C61.902 48.389 62.6158 48.0981 63.2474 47.6145" stroke="#A2DBFD" stroke-linecap="round"/>
<path d="M15.0436 80.4649C17.4024 80.8371 19.067 79.0681 20.5243 77.405C20.594 77.3256 22.2026 75.6608 22.2056 76.0428C22.2191 77.7849 21.1434 79.9294 20.6719 81.6217C20.0024 84.0247 22.4153 79.0023 22.6167 78.6462C24.0655 76.0833 25.3593 73.3888 26.924 70.8987C27.704 69.6573 27.754 70.6707 27.6635 71.804C27.4853 74.0358 27.7082 76.3901 27.1038 78.5593C26.662 80.145 29.2097 74.5508 29.4793 74.0377C31.2725 70.6245 33.1201 67.3099 34.5621 63.7294C35.3976 61.6548 34.9111 65.8455 34.8623 66.1374C34.2117 70.0307 33.8344 73.9599 33.2288 77.8592C32.9375 79.7353 33.903 76.9747 34.2283 76.3482C35.0623 74.7422 36.3462 73.0966 36.9147 71.3784C37.3327 70.1148 37.6013 70.8133 37.7583 71.6134C37.9629 72.6563 39.806 78.2968 39.989 77.9942C41.2565 75.8979 42.4481 73.7799 43.6759 71.6577C43.8082 71.429 44.9878 69.2364 45.0884 69.4801C46.0775 71.876 45.9714 76.2483 45.2965 78.6707C44.3566 82.0443 47.4916 72.0144 48.7999 68.7658C49.1649 67.8595 49.5985 69.9776 49.6248 70.1063C49.9893 71.8897 50.3708 73.7006 51.0435 75.397C51.3077 76.0634 53.0481 80.4785 53.0366 78.9965C53.0285 77.9554 52.8971 76.7534 53.1781 75.7449C53.3225 75.2263 53.4393 74.6888 53.6141 74.1797C53.899 73.3501 54.0226 74.877 54.1129 75.0592C55.0198 76.8876 55.8819 78.6904 56.8992 80.484C57.5642 81.6565 58.2103 83.5266 59.3504 84.2935" stroke="#A2DBFD" stroke-linecap="round"/>
<path d="M52.8235 61.001C53.8719 62.601 54.5903 64.4691 55.683 66.0143C56.3406 66.944 56.8524 63.8936 56.9325 63.6062C57.2067 62.622 58.3216 56.4424 58.6066 60.2673C58.9417 64.7656 60.0021 69.0698 60.9613 73.4705C61.1547 74.3575 62.0864 70.4883 62.1657 70.1859C62.9544 67.1773 62.9399 64.085 63.1548 60.9996C63.3516 58.1722 63.697 55.3453 64.4668 52.5822C65.1338 50.1883 65.9059 55.759 65.9242 56.1764C66.0925 60.0141 66.7213 64.0555 67.1877 67.8826C67.3248 69.0072 67.8666 71.0824 67.5707 72.1442" stroke="#A2DBFD" stroke-linecap="round"/>
<path d="M13.311 81.173C13.4519 82.5516 13.681 81.7492 14.375 81.0178C14.7125 80.6622 15.0625 80.0554 15.4628 79.7749C15.6388 79.6516 15.3692 81.0314 15.3208 81.2553C15.2512 81.5778 15.1602 81.8812 15.1413 82.2128C15.1322 82.3735 14.9639 82.7974 15.0862 82.6925C15.4507 82.3798 17.3106 79.6335 17.5919 79.8991C17.8396 80.133 17.9988 81.0742 18.1115 81.4161" stroke="#F4F8F9" stroke-linecap="round"/>
<path d="M32.762 55.3253C33.2811 56.2267 33.8217 57.1148 34.3524 58.0092C34.4618 58.1935 34.8122 58.4823 34.8033 58.708C34.7967 58.8738 34.8915 58.8925 34.9441 58.7038C35.1777 57.8651 35.043 56.8359 35.0568 55.982C35.0786 54.6297 35.1629 53.3195 35.4181 51.9919C35.4753 51.6944 35.4229 51.2566 35.5441 50.9761C35.6367 50.7617 36.252 52.4103 36.257 52.4254C36.5967 53.4347 37.0175 54.4222 37.3376 55.4362C37.4197 55.6963 37.7145 56.7156 37.7168 56.7057C37.9383 55.7222 37.6647 54.6379 37.9332 53.6741C38.0723 53.1749 39.7829 55.6695 39.9192 55.8776C40.4325 56.6612 41.0743 57.4281 41.7253 58.1005C41.9734 58.3566 41.9481 57.9268 41.9779 57.6323C42.0861 56.562 42.0573 55.11 41.8209 54.0624C41.7323 53.6701 42.1513 53.9321 42.2926 54.0288C43.1801 54.6359 43.9517 55.4284 44.7476 56.1458C45.1118 56.474 45.7904 57.3917 46.2818 57.5286C46.4976 57.5888 46.2185 57.1831 46.2038 57.1508C45.8907 56.4593 45.765 55.7174 45.6134 54.98C45.586 54.8468 45.1251 53.5114 45.4212 53.4152C45.9578 53.2408 47.3019 54.3611 47.7135 54.6445C48.0946 54.9069 48.2857 55.178 48.5719 55.509" stroke="#F4F8F9" stroke-linecap="round"/>
<path d="M60.825 71.2732C61.3092 72.4817 61.8705 73.6284 62.2494 74.8662C62.269 74.9304 62.2734 75.3286 62.2351 75.1054C62.1176 74.4204 62.538 73.5797 62.719 72.93C62.915 72.2265 63.0303 71.5501 63.154 70.8364C63.1658 70.7686 63.334 70.0961 63.3984 70.2097C63.7203 70.7772 63.9585 71.5292 64.1786 72.138C64.9406 74.2461 65.785 76.4115 66.2876 78.5969C66.3584 78.9043 66.5082 79.9337 66.5282 79.5498C66.6649 76.9274 67.5058 74.3498 68.2062 71.8358C68.2951 71.5169 68.3788 71.5692 68.3416 71.8822C68.1827 73.2186 68.3462 74.637 68.3954 75.9792C68.4572 77.6643 68.9533 79.8641 68.4871 81.5373" stroke="#F4F8F9" stroke-linecap="round"/>
<path d="M11.843 52.6238C12.1281 54.5156 12.4312 56.4251 12.7631 58.3085C12.8776 58.9582 12.9153 59.7743 13.1267 58.7572C13.3066 57.891 13.8865 56.8699 13.7709 55.975C13.6953 55.389 15.0142 54.2726 14.6038 53.7056C14.5065 53.5712 14.924 54.2335 14.9958 54.3968C15.9158 56.4895 17.2526 58.361 18.4566 60.2942C18.5243 60.403 19.2737 61.861 19.0519 61.0072C18.603 59.2795 18.3441 57.5182 17.9057 55.7894C17.7948 55.352 17.3849 54.5586 17.409 54.0963C17.4247 53.7941 17.6229 54.1102 17.7018 54.204C18.578 55.2453 19.5084 56.2407 20.4099 57.2601C21.2668 58.2291 22.0423 59.545 23.0263 60.3948C23.1764 60.5244 23.04 58.4751 22.9769 58.1924C22.8867 57.7881 22.4651 56.9411 22.5301 56.5393C22.5675 56.3083 22.5911 55.8683 22.4408 55.7327" stroke="#F4F8F9" stroke-linecap="round"/>
<path d="M30.1259 63.6581C30.1199 63.8418 29.8207 66.1444 30.1834 65.7065C31.256 64.4112 31.5421 62.4714 32.4554 61.0588C33.2675 59.8026 32.7432 63.5543 32.9746 64.0175C33.0559 64.1802 33.3741 65.2857 33.584 65.2122C33.9849 65.0718 34.2417 62.904 34.3754 62.497C34.6369 61.7007 34.724 61.8749 35.0715 62.3783C35.4808 62.971 35.907 64.1014 36.489 64.4929" stroke="#F4F8F9" stroke-linecap="round"/>
<path d="M58.9256 56.6737C58.9802 56.7245 60.0499 57.971 59.8019 57.161C59.627 56.5895 59.8718 56.0961 60.0338 55.5146C60.0741 55.3698 60.2188 54.4327 60.4063 54.7412C60.7493 55.3054 61.0583 55.8686 61.3775 56.4535C61.6396 56.9337 61.8418 57.4644 62.108 57.9338C62.1821 58.0645 62.2596 57.6713 62.2999 57.5269C62.5648 56.5759 62.8298 55.6248 63.0948 54.6738C63.2926 53.9635 63.5339 53.2508 63.6921 52.5299C63.7414 52.305 64.0535 53.3683 64.2367 53.7065C64.4054 54.018 64.5558 54.4194 64.6419 54.7574C64.7339 55.1188 64.9185 54.5457 64.818 54.407C64.3368 53.7421 64.6208 53.1311 64.9702 52.4517C65.1745 52.0543 65.2884 51.3851 65.6546 51.1225C65.8578 50.9767 66.151 52.1349 66.1898 52.2704C66.392 52.9768 66.6542 53.4313 67.2544 53.8351" stroke="#F4F8F9" stroke-linecap="round"/>
<path d="M70.6313 17.4487C69.792 19.1011 68.7753 20.6626 67.7069 22.1759C67.6602 22.2421 66.9894 23.088 67.1919 23.1444C68.4817 23.5037 70.4745 21.9957 71.4947 21.423C72.0811 21.0939 72.6796 20.7534 73.2381 20.3809C73.285 20.3496 73.5361 20.1726 73.5723 20.257C73.8955 21.0104 71.2055 23.3147 70.8435 23.7278C69.6264 25.1171 68.4689 26.567 67.3839 28.0617C67.3318 28.1335 67.509 27.9351 67.5795 27.8812C68.6078 27.0939 69.7628 26.4389 70.835 25.7143C73.7295 23.7582 76.5242 21.6761 79.3577 19.6358C79.5593 19.4906 80.9607 18.2203 81.3347 18.505C81.6607 18.7532 80.6762 18.9903 80.3566 19.2451C78.8673 20.4321 77.5961 21.8709 76.2901 23.2472C73.6068 26.0749 70.676 28.8608 68.4833 32.1018C68.3166 32.3482 67.9059 32.768 68.3996 32.4673C69.0927 32.0451 69.8149 31.6659 70.5226 31.2687C72.6628 30.0675 74.5646 28.5757 76.5486 27.1435C77.1822 26.6861 78.9018 25.2707 78.5878 25.9848C78.2621 26.7257 76.9536 27.8344 76.4826 28.3908C74.4815 30.7548 72.4209 33.0705 70.4531 35.4623C69.5419 36.5697 68.6517 37.6924 67.8404 38.875C67.6647 39.131 67.0374 39.7553 67.3323 39.6556C68.3972 39.2953 69.6559 38.0049 70.539 37.4028C74.3872 34.7796 78.3518 32.3304 82.1747 29.6692C84.6838 27.9226 86.9925 25.9746 89.3798 24.0825C89.397 24.0689 89.6764 23.9159 89.7009 23.973C89.7359 24.0546 89.5766 24.1006 89.5053 24.1536C89.0423 24.4976 88.8751 24.5949 88.3756 25.0141C84.1029 28.6006 80.1505 32.6595 76.2247 36.6182C75.7414 37.1056 74.9495 37.7401 74.7517 38.4499C74.6911 38.6675 74.974 38.5991 75.101 38.5653C76.7182 38.1358 78.2669 37.1848 79.7065 36.3768C82.9594 34.5512 85.9777 32.3616 89.1455 30.3999C89.2093 30.3603 90.6569 29.5909 90.471 29.847C89.5981 31.0495 88.2367 32.0813 87.1977 33.1209C84.8141 35.5057 82.5246 37.974 80.2779 40.4868C80.1895 40.5856 75.0397 46.3311 75.2319 46.44C75.7849 46.7535 78.5951 44.7346 78.8358 44.5873C81.8454 42.7448 84.7974 40.7729 87.6507 38.6986C90.2471 36.8111 92.7249 34.7405 95.212 32.7138C95.2199 32.7073 95.6991 32.348 95.6519 32.4386C94.9082 33.8667 93.072 35.3093 92.0226 36.436C87.4093 41.3897 82.6641 46.2465 78.1854 51.3222C77.669 51.9074 77.1931 52.5105 76.7194 53.1287C76.3336 53.6323 76.7245 53.2912 77.0588 53.0515C83.7594 48.2462 90.3419 43.2922 96.9655 38.3827C99.706 36.3514 102.472 34.4015 105.344 32.5622C105.796 32.2723 106.347 31.763 106.896 31.6204C106.905 31.618 107.344 31.562 107.316 31.611C106.931 32.2872 105.334 33.3504 104.884 33.7542C99.4059 38.6794 94.3418 43.9656 89.1304 49.1641C87.2693 51.0206 85.35 52.8335 83.5651 54.7647C83.4871 54.8492 82.597 55.7896 83.1123 55.5426C87.8811 53.2565 92.3621 50.3332 96.8324 47.5309C98.1195 46.724 99.5794 45.3468 101.074 44.8884C101.144 44.8671 101.337 44.8284 101.293 44.8861C100.433 46.0079 99.1833 46.9636 98.1883 47.9448C91.4602 54.5798 85.2372 61.7311 78.7559 68.6041C77.945 69.4639 77.0533 70.2461 76.3301 71.1829C76.2921 71.2321 75.9397 71.6709 75.9398 71.6709C81.9269 68.2103 87.4727 64.0026 93.2066 60.154C94.8576 59.0459 96.5369 58.0159 98.2687 57.044C98.2734 57.0414 98.5332 56.8776 98.4007 57.0266C97.4841 58.0563 96.2806 58.9165 95.285 59.8652C91.4159 63.5517 87.4576 67.2587 83.8164 71.1712C82.7737 72.2916 83.1354 72.2074 84.6096 71.5187C87.2413 70.2893 89.7871 68.8983 92.3608 67.5577C92.4544 67.509 93.9002 67.1014 93.5708 67.4519C90.7842 70.4165 87.9736 73.3589 85.2856 76.4263C84.6048 77.2033 83.9824 78.029 83.298 78.8017C83.1607 78.9566 82.8156 79.2351 82.8034 79.4685C82.7758 79.998 83.8176 79.1309 84.2848 78.8778C86.4505 77.7044 88.5548 76.407 90.6598 75.13C91.4633 74.6425 92.2217 74.1289 92.9806 73.5797C93.1384 73.4656 93.3942 73.2046 93.6021 73.1743C93.9127 73.129 93.3334 73.7494 93.1231 73.9811C91.9591 75.2631 90.7249 76.4923 89.5026 77.7187C88.481 78.7438 87.1016 79.711 86.3047 80.9503C85.953 81.4972 88.1644 80.7754 88.2076 80.9652C88.2564 81.1789 87.7542 81.7263 87.6668 81.8632C87.2591 82.5025 86.8554 83.1564 86.5338 83.8439C86.3609 84.2134 86.264 84.6841 85.9781 84.9909C85.9554 85.0153 85.6981 85.1898 85.776 85.26C86.1153 85.5658 87.8901 85.4594 88.3376 85.3228C88.4897 85.2764 88.995 85.024 89.1278 85.2898C89.3974 85.8294 88.4468 87.1986 88.1943 87.5973" stroke="#F2FBFF" stroke-linecap="round"/>
<path d="M71.6329 76.6367C73.199 76.4182 74.755 76.1864 76.3112 75.915C77.3014 75.7423 76.4075 76.4486 76.0307 76.9217C75.2981 77.8415 74.6503 78.8792 73.8784 79.7576C73.7788 79.8709 73.296 80.4329 73.7653 80.3589C74.8955 80.1808 75.954 79.6324 77.0353 79.281C77.1578 79.2412 78.1252 78.9192 78.0249 79.2493C77.7629 80.1114 76.8649 80.74 76.6233 81.6072" stroke="#F2FBFF" stroke-linecap="round"/>
</g>
</svg>
