<svg width="43" height="58" viewBox="0 0 43 58" fill="none" xmlns="http://www.w3.org/2000/svg">
<path d="M15.3477 29.5225V56.7911" stroke="black"/>
<path d="M29.6953 28.7914V55.4332" stroke="black"/>
<path d="M29.8039 14.373L30.2387 17.5073L30.5648 19.9103V22.2088L30.2387 25.1342L11.8691 25.8656V23.776V21.8954V19.4924V17.5073L12.3039 15.6267L13.0648 13.6417L14.1517 11.6566L15.6735 9.98496L17.7387 8.20884L20.0213 7.58197H23.3909L25.4561 8.20884L27.7387 9.98496L29.1517 11.6566L29.8039 14.373Z" stroke="black"/>
<path d="M11.7607 25.7612V27.6418L10.3476 28.3731H8.71718L6.54327 28.791L5.23892 28.3731L3.93457 27.6418L4.47805 27.1194V24.2985C4.47805 24.0199 4.47805 23.0448 4.47805 21.3731C4.47805 19.7015 4.98529 17.1244 5.23892 16.0448L6.54327 11.4478L8.2824 7.89552L11.7607 4.55224L13.9346 2.98507L15.7824 2.04478L18.2824 1.41791L20.6737 1H22.9563L25.4563 1.41791L27.7389 2.04478L30.0215 2.98507L31.978 4.55224L33.4998 5.91045L34.6954 7.89552L35.8911 10.0896L36.5433 11.9701L37.0867 14.2687V16.4627V19.7015V22.3134V24.7164V26.1791L35.1302 26.7015H32.9563H30.9998L30.0215 25.7612L30.4563 25.0299" stroke="black"/>
<path d="M37.4137 25.03H38.392L41.0007 26.8061L35.1311 27.6419L30.2398 28.5822L27.1963 29.0001H22.1963L16.7615 29.418H12.305H7.41372H2.52242L1.10938 27.6419L4.04416 27.224" stroke="black"/>
<path d="M1 27.7462V54.388L2.30435 57M2.30435 57V29.6268H16.1087L21.9783 28.8955H27.413L40.7826 27.0149V52.8209L39.3696 53.7612L30.1304 55.6418L15.6739 56.8955L3.28261 57H2.30435Z" stroke="black"/>
<path d="M7.52148 29V22.1045L8.06496 16.9851L9.91279 11.2388L11.978 7.79103L14.1519 5.49252L18.065 3.08954H19.478" stroke="black"/>
<path d="M19.4778 2.98511L19.043 3.40302" stroke="black"/>
<path d="M27.3047 7.16428C27.2323 7.12945 27.3917 7.31055 28.6091 8.31353C29.8265 9.31652 30.8554 10.4031 31.2177 10.821L31.9786 11.9702L32.7395 13.224L33.3916 14.7911V16.6717V18.6568V20.5374V22.627V24.4031V26.1792" stroke="black"/>
<path d="M17.0957 31.694C18.2109 32.5614 19.2408 33.2683 18.542 34.6956C18.3845 35.0174 18.056 35.6596 18.5564 35.0069C19.109 34.2861 19.7515 33.6554 20.3768 32.9943C20.8637 32.4795 21.2805 31.8714 21.8591 31.445C21.9666 31.3658 22.0815 31.2052 22.2045 31.1546C22.2367 31.1413 21.8913 32.882 21.8591 33.0012C21.2424 35.281 20.3575 37.5189 19.4486 39.703C19.0238 40.7237 18.6556 41.9266 18.0743 42.8844C15.9762 46.3415 27.7863 29.9181 25.7374 33.4023C24.7054 35.1574 24.0667 37.21 23.2262 39.0529C22.0135 41.7117 20.9532 44.3865 19.9019 47.1033C19.2711 48.7335 20.451 46.8779 20.7654 46.4394C22.1042 44.5716 23.3327 42.6283 24.7229 40.7957C24.8487 40.6298 25.2854 39.7618 25.2265 40.526C25.0714 42.5385 24.2377 44.5536 23.6004 46.4532C22.9877 48.2791 22.3408 50.0956 21.7583 51.9308C21.3591 53.1886 23.2497 49.722 23.8954 48.5626C24.5184 47.444 25.1713 46.3314 25.8741 45.2567C25.9061 45.2078 26.2631 44.6327 26.349 44.904C26.7349 46.1226 26.2181 47.9263 26.09 49.1505C26.0048 49.9648 25.6869 51.0307 25.7734 51.8617C25.8031 52.147 26.2899 51.56 26.4929 51.3499C26.9711 50.8549 27.44 50.3456 27.9608 49.8905C28.8368 49.1251 28.2518 50.5163 28.1047 50.8657C27.746 51.7181 27.256 52.5792 27.0686 53.48" stroke="#CBD3D5" stroke-linecap="round"/>
<path d="M30.3057 30.5738C31.1953 30.3383 31.98 29.8831 32.8672 29.6747C33.2638 29.5815 33.5543 29.3232 33.1335 29.9098C32.2658 31.1191 31.5016 32.258 30.8957 33.6169C30.8943 33.6199 31.751 32.9047 31.8959 32.7869C32.8471 32.0133 33.7709 31.1684 34.6805 30.3524C34.7371 30.3016 35.2502 29.7549 35.2057 30.0965C35.1589 30.4568 34.7971 30.8821 34.6157 31.1755C34.0365 32.1125 33.4426 33.0334 32.9248 34.0042C32.5309 34.7427 32.1877 35.5693 31.7304 36.2727C31.0414 37.3323 33.1344 34.1638 33.9465 33.1881C34.9466 31.9865 36.0878 30.9065 37.1125 29.73C37.2864 29.5304 37.6728 28.9794 37.7385 29.232C37.7737 29.3671 37.5297 29.7458 37.4867 29.8614C37.0882 30.9338 36.6061 31.9622 36.1052 32.9944C34.85 35.581 33.7338 38.2579 32.3492 40.7821C32.2816 40.9052 31.5417 42.1882 31.9462 41.6397C33.5715 39.4359 35.1444 37.1947 36.7312 34.9655C37.2342 34.2589 37.6904 33.5088 38.2062 32.8146C38.537 32.3695 38.352 32.68 38.2062 33.1328C37.8974 34.092 37.2975 34.9895 36.8679 35.8992C36.0642 37.601 35.4231 39.3672 34.6445 41.0795C33.8733 42.7757 32.8853 44.6047 32.4643 46.4257C32.3673 46.8453 33.0454 45.7701 33.299 45.4159C34.3702 43.9196 35.4435 42.421 36.4649 40.8927C37.0572 40.0067 37.8951 38.9792 38.2062 37.9326C38.2201 37.8861 38.3214 37.7209 38.3214 37.8842C38.3214 38.498 37.8851 39.2665 37.6594 39.8138C36.3461 42.999 34.9512 46.1836 33.5076 49.3167C33.4555 49.4299 32.7604 51.0209 33.1551 50.5892C34.7862 48.8052 36.193 46.6712 37.5443 44.6828C37.6114 44.5841 38.3252 43.5768 38.2422 43.763C37.2045 46.0902 36.2541 48.4512 35.1266 50.7414C34.9053 51.1909 34.576 51.8657 35.2129 51.1979C36.2084 50.154 37.0621 49.0343 38.0192 47.9611C38.0267 47.9526 38.4372 47.488 38.4653 47.5046C38.7834 47.6928 38.0053 50.2205 37.9112 50.5823C37.8056 50.9883 37.6882 51.3187 37.6882 51.7373" stroke="#DBDFE2" stroke-linecap="round"/>
<path d="M16.7062 33.4374C17.3142 32.6139 17.8751 31.5232 18.649 30.8231C18.8861 30.6085 18.5277 31.6276 18.5195 31.653C18.129 32.8602 17.7213 34.0744 17.1164 35.201C17.0561 35.3132 16.9668 35.6708 17.0516 35.5745C17.9902 34.5083 18.6115 33.128 19.3973 31.9573C19.8017 31.3549 20.2502 30.7776 20.6925 30.2006C20.8456 30.0009 21.0632 29.6988 20.9011 30.166C20.1327 32.382 19.2103 34.6122 18.2676 36.7641C17.9336 37.5266 17.7155 38.0213 18.4043 36.9093C19.5595 35.0446 20.6763 33.1366 21.6854 31.1965C21.6995 31.1695 21.7986 30.8298 21.815 30.8507C21.8827 30.9375 21.7151 31.2944 21.6998 31.3349C21.2545 32.5121 20.7388 33.6673 20.232 34.8206C19.2807 36.9852 18.3405 39.151 17.4401 41.3357C17.1948 41.9311 16.7532 42.588 16.6055 43.2169C16.6023 43.2304 17.405 42.1984 17.5409 41.9996C18.9062 40.0025 20.1347 37.9152 21.3617 35.8373C21.795 35.1035 22.0728 34.325 22.4626 33.5757C22.5103 33.484 22.8817 32.8655 22.736 33.2991C21.5017 36.9713 19.461 40.3849 18.4043 44.1091C18.285 44.5298 18.172 44.9302 17.951 45.3125C17.4744 46.1372 19.1405 43.8065 19.6419 42.9956C21.1664 40.53 22.6029 38.0015 24.0599 35.4984C24.5473 34.661 25.1703 33.8048 25.5134 32.8979C25.5997 32.6699 25.6275 33.2997 25.6141 33.3544C25.5039 33.8048 25.2549 34.2336 25.0385 34.6408C24.3996 35.8432 23.7706 37.0448 23.1677 38.2649C21.756 41.1216 20.4455 44.0146 19.1239 46.9101C18.7616 47.7039 18.3796 48.4911 18.0446 49.2962C17.9139 49.6103 17.3725 50.3645 17.7064 50.2576C18.0169 50.1581 18.0797 49.7401 18.246 49.4691C18.8229 48.5292 19.341 47.5559 19.8722 46.592C21.1777 44.2232 22.6066 41.8811 23.6714 39.3991C24.0287 38.5662 24.4963 37.8617 24.909 37.0684C25.0066 36.8808 25.2289 36.6337 25.2544 36.4252C25.29 36.1344 25.2519 36.7458 25.2256 36.8263C24.2666 39.7625 23.0157 42.5959 21.7934 45.437C20.618 48.1691 19.4653 50.9119 18.4259 53.6949C18.168 54.3855 17.131 56.3082 17.6416 55.7629C18.1559 55.2137 18.4974 54.1946 18.8936 53.5635C20.2203 51.4503 21.3462 49.2528 22.5777 47.09C23.4741 45.5156 24.4584 43.998 25.2256 42.3593C25.3538 42.0854 25.3994 41.5725 25.5854 41.3426C25.6343 41.2821 25.7724 41.0823 25.7724 41.1213C25.7724 41.9678 25.2057 42.9652 24.9234 43.7425C24.1693 45.8192 23.1118 47.7899 22.3186 49.8564C21.9003 50.9465 21.7566 52.1544 21.3041 53.2177C21.2125 53.433 21.0086 53.8644 21.3329 53.3629C22.0857 52.1989 22.7116 50.963 23.3188 49.725C24.1444 48.0418 25.0002 46.3751 25.866 44.7108C26.0653 44.3276 26.2427 43.6572 26.5496 43.3275C26.6156 43.2566 26.8086 42.9988 26.8086 43.2031C26.8086 44.4703 26.2716 45.7589 25.9811 46.9793C25.6278 48.4636 25.3322 49.9582 24.8802 51.4195C24.7111 51.9663 24.4103 52.5355 24.3478 53.107C24.3293 53.2755 24.1873 53.2179 24.3046 53.0241C24.8674 52.0935 25.4277 51.1761 25.9451 50.2161C26.3334 49.4957 26.6849 48.1055 27.3554 47.5326C27.5018 47.4075 27.4275 48.1817 27.4274 48.1827C27.3189 49.0899 26.948 49.9467 26.7582 50.8385C26.6453 51.3692 26.42 51.9468 26.42 52.4846" stroke="#C5CDCF" stroke-linecap="round"/>
<path d="M3.47605 31.2238C3.56122 31.1875 4.70825 30.5727 4.90127 30.7148C4.99355 30.7828 4.48187 31.4951 4.47126 31.5126C4.2424 31.8891 4.01754 32.2677 3.79527 32.6479C3.74105 32.7406 3.67796 32.8294 3.63566 32.9276C3.62523 32.9519 3.68546 32.9043 3.70514 32.8861C4.42732 32.2197 5.15132 31.5334 6.03732 31.0758C6.17535 31.0045 6.20754 31.0758 6.14248 31.213C5.97648 31.563 5.70616 31.8998 5.49277 32.2183C4.95316 33.0237 4.4208 33.8333 3.89291 34.6459C3.75598 34.8567 3.5907 35.0725 3.47229 35.2957C3.38435 35.4614 3.79084 35.0816 3.93047 34.9527C5.15087 33.8265 6.39431 32.7251 7.81557 31.8339C7.85004 31.8122 8.51484 31.333 8.62489 31.3935C8.66627 31.4162 7.67311 32.759 7.66347 32.7724C6.59995 34.2562 5.52932 35.7351 4.38864 37.1655C4.28535 37.2951 3.94886 37.6416 4.10134 37.5698C4.24017 37.5045 4.62453 37.2061 4.65153 37.1854C5.19493 36.7687 5.56221 36.4611 6.10492 36.0068C7.01663 35.2437 7.91886 34.47 8.82769 33.7037C9.20454 33.386 9.57693 33.0505 9.98252 32.7652C10.0756 32.6997 10.1826 32.6257 10.2886 32.5775C10.479 32.4908 10.1679 32.9681 10.0708 33.1478C8.97121 35.1833 7.82238 37.1962 6.46358 39.0841C6.17728 39.4819 5.88128 39.8724 5.57915 40.2591C5.46689 40.4028 5.30746 40.5576 5.22237 40.7212C5.15796 40.845 5.4192 40.5188 5.51155 40.4126C5.955 39.9023 6.39596 39.3919 6.85979 38.8982C7.5373 38.1772 8.24524 37.4834 8.92158 36.7612C9.75798 35.8682 10.5559 34.9409 11.3627 34.0232C11.9702 33.3322 12.5355 32.6082 13.1466 31.9205C13.158 31.9076 13.3666 31.7055 13.3644 31.7256C13.3598 31.7674 13.3061 31.8255 13.2855 31.8555C13.1258 32.0885 12.9694 32.3235 12.8086 32.5558C11.3576 34.6513 9.89393 36.7313 8.50471 38.8658C7.55212 40.3294 6.54059 41.7585 5.60168 43.23C5.49994 43.3895 5.22135 43.8815 5.29936 43.7101C5.3673 43.5608 5.52191 43.3919 5.6167 43.2697C6.01501 42.7563 6.42632 42.2522 6.83725 41.7482C8.30442 39.9486 9.76484 38.1387 11.3589 36.44C11.6767 36.1013 12.0157 35.7841 12.3579 35.4689C12.5036 35.3347 12.5109 35.4903 12.4743 35.6205C12.3378 36.1059 12.1318 36.588 11.941 37.0536C11.4493 38.2538 10.9062 39.4306 10.3205 40.5912C9.05267 43.1037 7.65826 45.566 5.9547 47.8325C5.81814 48.0142 5.67658 48.1922 5.53033 48.3667C5.38494 48.5402 5.57049 48.2741 5.5829 48.2566C5.88037 47.8394 6.20874 47.4406 6.53681 47.0456C7.50128 45.8843 8.49655 44.7439 9.53749 43.6451C10.1967 42.9493 10.9218 42.3085 11.5167 41.5587C11.5738 41.4866 11.6707 41.3258 11.7758 41.297C11.8177 41.2855 11.7896 41.3595 11.7871 41.3673C11.6859 41.6752 11.5464 41.9812 11.4209 42.2788C10.3549 44.8056 9.06967 47.2588 7.64469 49.6157C7.18502 50.3761 6.71822 51.1689 6.14248 51.8574C6.13968 51.8608 6.03639 52.0102 6.01855 52.0144C5.9732 52.0253 6.04682 51.9285 6.06737 51.8881C6.19163 51.6441 6.30109 51.4707 6.45607 51.2257C7.67393 49.3001 8.99342 47.4327 10.3374 45.5872C10.6542 45.1522 10.9683 44.717 11.2688 44.2714C11.4615 43.9857 11.4442 44.009 11.6068 43.7643C11.6329 43.725 11.6869 43.6042 11.6913 43.6505C11.7018 43.7615 11.4813 44.1402 11.4566 44.1902C11.1092 44.8933 10.7362 45.5858 10.3599 46.2749C9.03926 48.6938 7.7081 51.0959 6.48048 53.5612C6.20848 54.1075 5.93244 54.6526 5.67116 55.2037C5.62897 55.2927 5.48773 55.5216 5.48526 55.6405C5.48153 55.8198 5.74848 55.3844 5.85894 55.2398C6.33078 54.6222 6.73775 53.9639 7.17901 53.3266C7.72328 52.5405 8.32612 51.7864 8.91782 51.0326C9.2256 50.6405 9.54932 50.2635 9.93557 49.9406C9.96124 49.9192 10.1071 49.7732 10.0914 49.8684C9.93182 50.8401 9.48127 51.8095 9.12813 52.7238C8.94704 53.1926 8.76095 53.6594 8.57419 54.1262C8.53517 54.2237 8.48866 54.3264 8.47091 54.4312C8.46223 54.4825 8.55698 54.3668 8.59109 54.3265C9.0556 53.7774 9.49291 53.2074 9.94121 52.6462C10.6434 51.767 11.3675 50.9046 12.0218 49.9912C12.1046 49.8756 12.3425 49.5369 12.3091 49.6735C12.2624 49.8642 12.1518 50.0694 12.0744 50.2438C11.8222 50.812 11.5606 51.3763 11.2988 51.9404C11.0274 52.5253 10.6845 53.1065 10.4613 53.7111C10.4308 53.7938 10.4861 53.7635 10.5515 53.7237C10.935 53.49 11.2865 53.1863 11.6105 52.8826C12.0566 52.4646 12.4624 51.9605 12.8273 51.4748C12.9871 51.2622 12.8379 51.6316 12.8179 51.6823C12.5644 52.3263 12.3004 52.9651 12.0537 53.6118C11.9716 53.827 11.8528 54.0452 11.7983 54.2688C11.7445 54.4899 12.1036 54.116 12.1044 54.1154C12.5673 53.712 13.0068 53.2817 13.4583 52.8664C13.5444 52.7871 13.8058 52.5023 13.77 52.7743C13.7036 53.2777 13.5 53.7383 13.3681 54.2255C13.3298 54.3669 13.3166 54.5133 13.2104 54.6153" stroke="#ABB5B7" stroke-linecap="round"/>
<path d="M1.21094 29.3301C1.30683 29.3177 1.56816 29.3229 1.6428 29.2332C1.67335 29.1965 1.67129 29.2671 1.66999 29.2809C1.65602 29.4286 1.60056 29.5768 1.55483 29.7175C1.47662 29.9581 1.38119 30.1749 1.3245 30.4201C1.32404 30.4221 1.27819 30.4805 1.3197 30.4539C1.42831 30.3843 1.53178 30.25 1.60921 30.1495C1.63146 30.1207 1.66099 30.0414 1.70038 30.0281C1.74748 30.0121 1.7214 30.2044 1.71638 30.2218C1.67394 30.3691 1.59608 30.4987 1.56922 30.6523C1.54753 30.7763 1.54692 30.904 1.52124 31.0274C1.50117 31.1238 1.54242 31.1063 1.6428 31.1012C1.7519 31.0957 1.76017 31.0415 1.75796 31.1965C1.75289 31.5525 1.62951 31.8908 1.58522 32.242C1.56362 32.4132 1.57248 32.3477 1.71478 32.3173C1.80521 32.298 1.6029 32.828 1.58522 32.8984C1.5741 32.9427 1.44668 33.2455 1.57242 33.1905C1.71742 33.1272 1.68025 33.2255 1.6524 33.3643C1.5802 33.7238 1.43712 34.0852 1.28451 34.4205C1.22906 34.5423 1.41298 34.2922 1.42847 34.2837C1.5797 34.2006 1.4774 34.4437 1.47165 34.5542C1.4698 34.5898 1.41294 34.8009 1.44766 34.831C1.50433 34.88 1.63414 34.802 1.70038 34.8094C1.77668 34.8181 1.67239 35.3321 1.66519 35.3906C1.64915 35.521 1.61043 35.6504 1.57882 35.778C1.56987 35.8141 1.53156 35.9294 1.59801 35.8549C1.6831 35.7595 1.76929 35.6651 1.85713 35.572C1.924 35.5011 2.01485 35.348 2.11305 35.3137C2.15498 35.2991 2.07426 35.4981 2.06986 35.5074C1.99433 35.6672 1.94355 35.8228 1.88272 35.9871C1.80282 36.2029 1.69716 36.4236 1.60121 36.6344C1.5642 36.7157 1.55827 36.8305 1.52764 36.9188C1.47613 37.0673 1.44126 37.2526 1.44126 37.4108C1.44126 37.5126 1.50308 37.216 1.53403 37.1187C1.54405 37.0871 1.60293 36.9707 1.60761 36.9864C1.65015 37.1295 1.599 37.3296 1.58522 37.4723C1.56082 37.7247 1.53951 37.978 1.49885 38.2287C1.48218 38.3314 1.47005 38.4292 1.47005 38.5331C1.47005 38.5607 1.4497 38.6357 1.47005 38.6161C1.55616 38.5333 1.59754 38.3693 1.67799 38.2748C1.77703 38.1584 1.70258 38.5867 1.70038 38.6069C1.65745 39.0021 1.59484 39.3875 1.48925 39.7722C1.45769 39.8872 1.44126 39.9773 1.44126 40.0951" stroke="#778383" stroke-linecap="round"/>
<path d="M1.32597 41.3126C1.42811 40.9935 1.54544 40.6793 1.64587 40.3594C1.6643 40.3007 1.66854 40.1515 1.70665 40.1011C1.75662 40.0351 1.75783 40.1257 1.75783 40.1688C1.75783 40.5698 1.6363 40.9501 1.57389 41.3434C1.54126 41.549 1.54231 41.7472 1.52591 41.9522C1.50566 42.2052 1.49412 42.548 1.38355 42.7793C1.34187 42.8665 1.35476 42.9616 1.35476 43.056C1.35476 43.1152 1.36178 43.1691 1.33237 43.2221C1.29108 43.2965 1.38664 43.0611 1.42514 42.9853C1.53861 42.762 1.64375 42.5298 1.74504 42.3073C1.77523 42.241 1.92696 41.979 1.88899 42.1859C1.7679 42.8454 1.59185 43.4821 1.52591 44.1476C1.51455 44.2623 1.474 44.4122 1.44113 44.5227C1.40499 44.6443 1.44082 44.7848 1.38995 44.8948C1.35053 44.98 1.38355 45.1746 1.38355 45.1746C1.38355 45.1746 1.63852 44.5447 1.82821 44.2629C1.9191 44.1279 1.99304 43.9889 1.94657 44.2767C1.85917 44.8182 1.71219 45.3676 1.5579 45.8941C1.46385 46.215 1.413 46.5369 1.34037 46.8581C1.29865 47.0425 1.43963 46.7694 1.46353 46.7151C1.4945 46.6447 1.73323 46.3076 1.68266 46.5398C1.60266 46.9072 1.52402 47.2903 1.49712 47.6652C1.48331 47.8576 1.39814 48.0409 1.38355 48.2371C1.37872 48.3022 1.35476 48.3584 1.35476 48.4247C1.35476 48.4944 1.4549 48.3174 1.49872 48.274C1.56554 48.2079 1.7841 48.0665 1.81381 47.9665C1.92955 47.5772 1.61484 48.7537 1.50351 49.1442C1.35257 49.6738 1.36559 50.2667 1.31957 50.8108C1.29432 51.1094 1.29718 51.4061 1.29718 51.7055C1.29718 51.9623 1.25269 52.2621 1.30038 52.5142C1.31256 52.5786 1.40204 52.5838 1.45713 52.5742C1.5428 52.5592 1.52751 52.4733 1.52751 52.4097C1.52751 52.3418 1.55191 52.281 1.57069 52.216C1.60865 52.0846 1.58947 51.9311 1.60748 51.7947C1.6328 51.6031 1.61388 51.4005 1.61388 51.2074C1.61388 50.9533 1.75783 50.6969 1.75783 50.4449" stroke="#778383" stroke-linecap="round"/>
<path d="M1.29688 53.9319C1.31039 53.6461 1.43518 53.3554 1.46962 53.074C1.47254 53.0501 1.49841 53.0088 1.49841 53.0587C1.49841 53.3379 1.49841 53.6172 1.49841 53.8965C1.49841 54.0261 1.47514 54.3004 1.55439 54.4147C1.57046 54.4378 1.56752 54.3604 1.57359 54.3332C1.6165 54.1407 1.66418 53.9494 1.71274 53.7582C1.76418 53.5556 1.8439 53.3406 1.8439 53.1294" stroke="#778383" stroke-linecap="round"/>
<path d="M5.34459 27.0774C5.5125 27.2388 5.7041 27.3944 5.84614 27.5787C5.97329 27.7437 5.81042 27.1691 5.77593 26.9665C5.60006 25.9335 5.39975 24.9058 5.20415 23.8763C5.19701 23.8387 5.08714 23.3013 5.17908 23.3749C5.57399 23.6912 5.71529 24.364 5.90633 24.8019C5.95385 24.9108 6.07474 25.4223 6.17717 25.4961C6.26218 25.5574 6.24739 25.2993 6.24739 25.1972C6.24739 24.7092 6.17602 24.2241 6.16212 23.7365C6.14364 23.0879 6.15711 22.4377 6.15711 21.7888C6.15711 21.3678 6.19576 21.7586 6.26745 21.9768C6.4734 22.6037 6.50114 23.0993 6.20726 22.0636C6.01039 21.3698 5.81472 20.6743 5.65555 19.9713C5.60019 19.7268 5.40051 19.2394 5.44992 18.9782C5.47871 18.826 6.0872 19.4674 6.19723 19.5278C6.23218 19.547 5.9294 18.4618 5.88627 18.2937C5.76729 17.8299 5.60581 17.3682 5.53016 16.8956C5.52542 16.866 5.45651 16.4524 5.47499 16.4617C5.69179 16.5714 5.97122 17.1752 6.19723 17.1752C6.56021 17.1752 6.4009 14.6712 6.79408 14.5767C6.97483 14.5333 7.55264 16.1087 7.60159 16.3557C7.60599 16.3779 7.68871 16.6989 7.69187 16.5292C7.70916 15.5983 7.71739 14.6788 7.84233 13.7524C7.8602 13.6199 8.07482 11.6312 8.4141 11.6312C8.51469 11.6312 8.47946 11.9876 8.52445 11.9011C8.84059 11.2934 8.93956 10.6114 9.25672 10.0017C9.4032 9.72008 9.25304 10.2197 9.24668 10.3006C9.22384 10.5915 9.30114 10.9839 9.18148 11.2599C8.8282 12.0749 9.91831 9.64243 10.2899 8.83503C10.5597 8.24894 10.8025 7.65116 11.0623 7.06093C11.0859 7.00739 11.0997 6.83219 11.1426 6.79096C11.4097 6.53415 11.0903 7.52016 10.9921 7.87084C10.883 8.26047 10.8963 8.25509 11.1827 7.85638C11.6963 7.14134 12.0134 6.29817 12.5469 5.59537C12.8688 5.17137 12.6816 5.52214 12.6071 5.83642C12.5436 6.10415 12.5143 6.36995 12.4065 6.62705C12.368 6.71883 12.2159 6.88179 12.2159 6.9838C12.2159 7.09063 12.3813 6.83885 12.4466 6.75239C12.7297 6.37744 13.0399 6.0193 13.3293 5.6484C13.3841 5.57822 14.4629 4.003 14.4629 4.75653C14.4629 5.23161 14.9913 4.42871 15.1851 4.42871" stroke="#F9FBFA" stroke-linecap="round"/>
<path d="M27.2822 6.07745C27.8252 6.69641 28.4001 7.26424 28.812 7.97689C28.8983 8.12624 29.6423 9.24872 29.6797 9.19176C29.8595 8.91716 29.7198 8.2789 29.7198 7.94797C29.7198 7.84463 29.5988 7.54073 29.6947 7.66836C30.1436 8.26577 30.7471 8.8233 31.1241 9.46174C31.3137 9.78283 31.281 9.57879 31.2345 9.28818C31.1542 8.78689 31.1776 8.70755 31.4 9.293C31.7131 10.1173 31.7921 11.0947 32.2877 11.8433C32.4358 12.0669 32.6601 11.2564 32.699 11.1298C32.7105 11.0922 32.8125 10.5689 32.8595 10.6091C33.1397 10.8485 33.0654 11.4 33.1103 11.7083C33.1723 12.1341 33.2308 12.5647 33.326 12.9762C33.4078 13.3303 33.4988 12.9103 33.6018 12.6917C33.7539 12.3693 33.8926 12.0266 34.0733 11.7179C34.1241 11.6311 34.0633 12.6598 34.0582 12.8026C34.0373 13.3954 33.9629 13.9842 33.9629 14.5767C33.9629 15.3166 34.8045 13.9087 34.7604 14.4803C34.7055 15.1931 34.2605 15.8552 34.0733 16.5388C33.9706 16.9139 34.2204 16.4196 34.3241 16.3171C34.4469 16.1955 34.6317 15.7781 34.6802 15.941C34.7538 16.1889 34.5675 16.6209 34.5247 16.857C34.4022 17.5319 34.2964 18.2133 34.2388 18.8963C34.1963 19.3994 34.1323 19.8918 33.983 20.3763C33.8752 20.726 34.3993 19.5849 34.4444 19.4796C34.5571 19.2165 34.8079 18.8041 34.8607 18.5251C34.9475 18.0663 34.956 18.6499 34.956 18.8095C34.956 19.8806 34.7272 20.9148 34.5447 21.9672C34.4931 22.2651 34.5231 22.8089 34.304 23.0664C34.1474 23.2503 34.2651 22.8418 34.2839 22.7771C34.3645 22.5004 34.5568 22.0147 34.8156 21.837C34.8287 21.828 34.6309 23.2197 34.5748 23.4135C34.4631 23.7993 34.2338 24.1566 34.2338 24.5608" stroke="#F9FBFA" stroke-linecap="round"/>
<path d="M17.8027 1.7385C18.6994 1.92187 19.4709 2.32592 20.3306 2.60626C20.6694 2.71675 20.8503 2.83617 20.5111 2.51948C20.2902 2.31318 19.4453 1.80436 20.1199 1.82527C20.5788 1.8395 20.9654 2.06165 21.4139 2.0856C21.4651 2.08833 21.5422 2.14336 21.4541 2.16756C21.3032 2.20899 21.0557 1.99148 20.9425 1.93133C20.8935 1.90531 20.2939 1.59759 20.3657 1.57458C20.6631 1.47928 21.135 1.66701 21.4139 1.7385C21.8529 1.85101 22.2916 1.89998 22.6778 2.0856" stroke="#F9FBFA" stroke-linecap="round"/>
<path d="M2.18359 27.6848C2.46682 27.9735 2.65252 28.3275 2.95599 28.5959C3.13902 28.7578 3.36158 28.9048 3.51773 29.0925C3.63141 29.229 3.25058 28.8425 3.17667 28.6827C3.11084 28.5403 2.96148 28.2054 3.23184 28.2054C3.43713 28.2054 4.66468 28.5732 4.71143 28.8128C4.74234 28.9713 6.08164 29.2385 6.28631 29.2949C6.69083 29.4065 7.17922 29.4474 7.55524 29.642C7.70585 29.72 7.82754 29.8542 8.00664 29.8542C8.14343 29.8542 8.66672 29.9265 8.43296 29.7674C8.23986 29.6359 8.02686 29.4495 7.92138 29.2467C7.80742 29.0277 7.58501 28.8314 7.90132 28.808C8.4817 28.7651 9.0539 28.7261 9.6367 28.7261C9.90323 28.7261 9.77321 28.7315 9.58654 28.7261C9.16749 28.7139 9.75626 28.6406 9.86741 28.6441C10.6953 28.6702 11.5175 28.7991 12.3451 28.8128C13.0754 28.8249 12.229 28.3495 12.5457 28.3982C12.7397 28.4281 12.9173 28.5329 13.0874 28.62C13.0983 28.6256 13.5634 28.8728 13.5689 28.8225C13.6053 28.4896 13.0525 27.9241 12.8968 27.6462C12.7591 27.4003 12.6285 27.1465 12.4956 26.9038C12.4842 26.8829 12.4516 26.7616 12.4956 26.7495C12.6383 26.7103 13.0635 27.1078 13.1476 27.1641C13.3986 27.3319 13.8375 27.6738 14.1407 27.7571C14.4333 27.8374 13.7959 27.2745 13.609 27.0436C13.5949 27.0261 13.2308 26.6102 13.3081 26.5759C13.5765 26.4569 14.4685 27.0695 14.6723 27.193C14.7262 27.2256 15.7608 27.9158 15.7958 27.8197C15.8866 27.5703 15.5196 27.2372 15.4648 27.0002C15.4253 26.8295 15.4946 26.8127 15.6604 26.9038C16.4224 27.3223 17.1073 27.8715 17.8321 28.3452C18.0475 28.486 18.5307 28.9621 18.2835 28.4754C18.0147 27.9461 17.7619 27.4103 17.4961 26.8797C16.9991 25.8875 18.6902 27.1926 18.9957 27.3376C19.2873 27.4761 19.5748 27.6156 19.8283 27.8149C20.0241 27.9689 19.9452 27.824 19.8784 27.6655C19.8566 27.6135 19.6055 27.2495 19.6277 27.2123C19.7761 26.9626 21.5524 28.0589 21.7693 28.1765C22.3068 28.4679 21.3706 27.3793 21.2928 27.2702C21.1607 27.0847 20.9364 26.8088 20.8916 26.5759C20.8531 26.3761 21.304 26.6784 21.4934 26.7688C22.2604 27.1347 23.0074 27.5321 23.7504 27.9403C24.2935 28.2386 23.7995 27.7292 23.6301 27.5208C23.5137 27.3777 23.0601 26.8649 23.5799 27.087C23.9858 27.2603 24.3806 27.4684 24.7686 27.6751C25.0215 27.8098 25.4258 28.1617 25.7216 28.2151C25.8773 28.2431 25.2811 27.2938 25.2451 27.2123C25.0944 26.8718 24.9282 26.5439 24.7736 26.2096C24.6955 26.0405 25.1732 26.204 25.3454 26.2867C26.4417 26.8136 27.5273 27.4005 28.5553 28.0415C28.7102 28.138 28.8777 28.2256 29.0268 28.3308C29.0306 28.3334 29.1964 28.4761 29.2023 28.4416C29.2299 28.283 28.814 27.7608 28.7509 27.6558C28.4651 27.1796 28.1541 26.7202 27.8532 26.2529C27.753 26.0974 27.5277 25.8911 27.482 25.7082C27.4132 25.4326 28.58 26.134 28.6306 26.1662C29.133 26.4856 30.5266 27.5584 30.1503 27.1062C30.0081 26.9354 29.8934 26.6873 29.8142 26.4843C29.8029 26.4552 29.5516 26.2 29.6889 26.224C30.0261 26.283 30.3969 26.7188 30.692 26.8845C30.8998 27.0012 31.2354 27.1289 31.344 27.3376" stroke="#9EA9AD" stroke-linecap="round"/>
<path d="M32.4277 27.5112C33.223 27.7526 34.1161 27.9451 34.9556 27.9451C35.4188 27.9451 34.9208 27.9837 34.775 27.8583C34.4367 27.5674 35.3623 27.4826 35.5675 27.4244C36.0299 27.2933 36.5048 27.1728 36.9768 27.0773C37.2739 27.0172 36.7118 26.642 36.6257 26.5615C36.5701 26.5094 36.0645 26.2019 36.059 26.1228C36.0514 26.013 37.4881 26.3794 37.6138 26.412C37.8655 26.4774 38.3181 26.7355 38.1555 26.3783C37.9011 25.8195 37.9732 25.8625 38.5668 25.8625" stroke="#9EA9AD" stroke-linecap="round"/>
<path d="M30.2613 25.4286C30.3141 25.4916 30.6602 26.0414 30.7579 26.0601C30.8129 26.0707 30.8041 25.0994 30.803 25.014C30.8017 24.918 30.6311 23.825 30.8231 24.0787C30.9354 24.2272 31.0964 24.4994 31.1491 24.6765C31.274 25.0969 30.9918 23.8152 30.9133 23.3845C30.8328 22.9425 30.4118 22.0002 31.124 22.3528C31.4018 22.4904 31.2293 22.0838 31.2042 21.8949C31.1382 21.3959 31.0729 20.8897 30.8933 20.4148C30.7682 20.0844 30.9615 20.3763 31.1089 20.3763C31.2602 20.3763 31.1031 19.8049 31.0738 19.7399C30.8834 19.3166 31.1857 19.2719 31.4149 19.6146C31.7651 20.1382 30.9073 18.4689 30.6726 17.8887C30.5548 17.5977 30.5537 17.2795 30.4068 16.9341C30.1139 16.246 30.5924 16.5809 30.9334 16.7895C31.1321 16.9111 30.9245 16.7214 30.8732 16.6449C30.6696 16.3412 30.3997 16.0717 30.2212 15.753C30.1054 15.5463 30.258 15.5487 30.4218 15.5361C30.7095 15.514 30.1521 14.7377 30.0858 14.6394C29.8562 14.2992 29.105 13.7138 29.85 13.7138C30.2293 13.7138 29.9796 13.2637 29.8551 13.0244C29.7189 12.7627 29.7587 12.7297 30.0858 12.6773C30.4399 12.6205 29.6129 12.2937 29.5391 12.1518" stroke="#748080" stroke-linecap="round"/>
<path d="M9.85742 13.1063C10.0821 13.6101 10.3061 14.1105 10.4894 14.6297C10.4904 14.6327 10.5988 14.9857 10.6499 14.9093C10.712 14.8164 10.7201 14.5139 10.7301 14.4465C10.8304 13.7716 10.9323 13.0969 11.0311 12.4217C11.1482 11.6204 11.2621 10.8195 11.4273 10.0257C11.4747 9.79787 11.5199 9.17581 11.7082 8.97479C11.8184 8.85706 11.9764 10.025 11.979 10.0498C12.056 10.7814 12.1144 11.5126 12.1144 12.2482C12.1144 13.0322 12.2594 12.1213 12.3351 11.8432C12.5416 11.0842 12.6516 10.1628 12.9972 9.4617C13.2183 9.013 13.4227 10.4747 13.4686 10.6766C13.5394 10.9878 13.51 11.5709 13.6542 11.848C13.7414 12.0157 13.7513 11.4849 13.7996 11.3033C14.0586 10.3291 14.3465 9.36133 14.6222 8.39146C14.9331 7.29788 15.3944 6.23582 15.6855 5.14216C15.686 5.14013 15.8118 4.56956 15.861 4.62632C16.1597 4.97081 15.9841 6.24752 15.9914 6.65111C15.9928 6.72396 15.9961 7.99741 16.0817 7.91901C16.72 7.33472 17.0936 6.38308 17.5061 5.64836C17.6937 5.31422 17.8923 4.84128 17.8923 5.49891C17.8923 6.01936 17.8203 6.55176 17.7118 7.06088C17.7079 7.07887 17.5836 7.68454 17.6817 7.61047C18.1414 7.26328 18.3886 6.39497 18.6146 5.90386C18.8038 5.49274 18.9174 4.81919 19.2415 4.48169C19.458 4.25624 19.2967 4.88991 19.2917 4.95414C19.2417 5.59787 19.2075 6.24345 19.1613 6.88733C19.0893 7.89072 19.6678 6.47599 19.8584 6.18348C19.9668 6.01715 20.8716 4.703 20.8716 4.9204C20.8716 5.54573 20.8674 6.15067 20.7813 6.77163" stroke="#B1BABF" stroke-linecap="round"/>
<path d="M23.3096 2.69318C23.9617 3.1977 24.5603 3.77209 25.1754 4.31783C25.4323 4.5458 25.4914 4.67099 25.4713 4.22623C25.4376 3.48163 25.2937 2.71396 25.1152 1.98933C24.9827 1.45169 25.3126 1.75134 25.5866 2.03754C26.2279 2.70718 26.7636 3.41075 27.1766 4.23105C27.3283 4.53257 27.4293 4.87464 27.5979 5.16631C27.6792 5.30708 27.5958 4.27366 27.648 4.04786C27.6842 3.89134 28.9694 5.63114 29.0273 5.72072C29.3184 6.17115 29.6067 6.87298 30.0204 7.24412C30.0218 7.24543 29.9326 6.544 29.9201 6.48242C29.8187 5.98374 29.8019 5.45452 29.6743 4.96383C29.5384 4.44116 29.9598 4.98993 30.1107 5.17113C30.219 5.30136 31.2761 6.98018 31.3946 6.95487C31.5298 6.926 31.4278 5.68411 31.4348 5.48931C31.4421 5.28386 32.2271 6.70066 32.2974 6.86809C32.4866 7.31876 32.6301 7.7889 32.789 8.24687" stroke="#B1BABF" stroke-linecap="round"/>
<path d="M34.7754 25.4286C35.2459 25.8551 35.7583 26.2668 35.7685 25.3901C35.7712 25.1553 35.6266 22.4039 35.7785 22.3674C35.935 22.3298 36.1812 23.1175 36.2199 23.2207C36.2315 23.2517 36.2957 23.3255 36.2901 23.293C36.1815 22.667 35.9333 22.0417 35.7735 21.4273C35.6098 20.7981 35.444 20.1626 35.3572 19.5182C35.3394 19.3858 35.2267 18.856 35.3371 18.7179C35.3889 18.6533 35.8935 19.3519 35.949 19.4025C36.0233 19.4701 35.9176 18.3168 35.9089 18.2214C35.8456 17.5255 35.7833 16.8133 35.7685 16.1146C35.7577 15.6094 36.1557 16.5061 36.265 16.6112C36.7631 17.0899 35.7785 15.3117 35.7785 14.6346C35.7785 14.5955 36.5623 15.0319 36.6713 15.189" stroke="#B1BABF" stroke-linecap="round"/>
<path d="M9.25686 26.1684C9.36733 26.2421 9.85387 26.6135 9.99814 26.5739C10.1955 26.5197 9.74482 24.6712 9.69848 24.4553C9.64974 24.2283 9.56025 23.9257 9.61567 23.686C9.6455 23.557 10.0353 24.0025 10.0691 24.0498C10.3471 24.4384 10.1215 23.9868 10.006 23.8034C9.59748 23.1546 9.26115 22.4553 8.8389 21.8175C8.58923 21.4404 9.61398 21.9212 9.69059 21.9615C9.81521 22.0272 10.5169 22.4266 10.4161 22.2041C10.3349 22.0248 9.229 20.0286 9.41458 20.0286C9.58403 20.0286 9.91734 20.065 10.0336 20.1954C10.2971 20.4909 9.72134 19.4768 9.5447 19.1266C9.50001 19.038 9.20074 18.6702 9.43035 18.6642C9.69026 18.6575 10.033 18.781 10.2781 18.7287C10.5121 18.6787 9.84271 17.5299 10.0376 17.4363" stroke="#DAE2E4" stroke-linecap="round"/>
</svg>
