<svg width="180" height="178" viewBox="0 0 180 178" fill="none" xmlns="http://www.w3.org/2000/svg">
<path d="M49.8701 77.8711L19.2764 70.658" stroke="black"/>
<path d="M126.156 18.3116L134.5 14.1898V22.4334H139.665L140.857 25.7308L143.042 27.1735C146.221 22.983 152.777 16.1683 153.571 22.4334C154.366 28.6985 152.975 30.677 152.181 30.8831L158.141 29.4405C158.935 27.8604 160.445 26.514 160.127 33.7683C159.809 41.0227 163.438 42.6989 165.292 42.6302L167.279 48.4007L165.292 52.3164L158.141 61.7965" stroke="black"/>
<path d="M52.6517 32.9439V45.5154L47.0892 47.9884L50.2678 52.3163L47.0892 54.9955L48.6785 59.3234L47.0892 62.8269L48.6785 66.1243L50.2678 75.8105L52.6517 82.4054H47.0892L44.7053 85.9089L37.7522 95.5951L44.7053 101.16L48.6785 105.694L52.6517 113.319H59.8035L67.5513 107.136L59.8035 115.38L67.5513 113.319L75.6964 108.785L71.7231 113.319L72.5178 116.616L75.6964 118.471L85.0334 115.38L87.616 111.464L85.0334 121.356L89.4039 128.157L100.529 129.806L106.687 121.356V118.471L112.25 113.319L110.859 111.464L115.031 105.694L113.839 100.541V93.1221L110.859 90.4429L142.049 85.9089L151.783 79.108L156.551 72.1009L157.942 66.1243V62.8269L155.359 60.1477V56.6442H151.783L155.359 52.3163L151.783 49.4311V45.5154L148.803 42.424L142.049 40.5692H133.109L124.964 45.5154M124.964 45.5154L115.031 52.3163L106.687 67.773M124.964 45.5154C127.613 43.111 132.434 36.4062 130.527 28.8221C128.62 21.238 123.507 14.808 121.19 12.541L115.031 8.62532H112.25L106.687 1L100.529 6.15224L98.5423 1L87.616 6.15224L85.0334 8.62532H79.0736V10.4801H74.1071L71.7231 16.0445L63.3794 8.62532L61.1941 12.541V18.3115H56.4263V19.7542H54.241L56.4263 24.4942L45.6986 23.2577L39.5401 28.8221H35.7656L32.9843 38.7144L19.2767 32.9439L23.8459 45.5154L15.8995 47.9884C16.4955 49.4311 17.3298 52.3163 15.8995 52.3163C14.4691 52.3163 17.555 64.4069 19.2767 70.4522L6.16504 82.4054L8.54897 85.9089L6.16504 90.4429" stroke="black"/>
<path d="M6.5625 90.2363L8.15178 92.5033L1 97.6556V99.5104L10.7344 103.838L6.5625 111.876L10.7344 113.318L13.9129 122.18C13.317 123.279 13.7143 125.478 20.0714 125.478C26.4286 125.478 32.3884 124.241 34.5737 123.623" stroke="black"/>
<path d="M35.3686 123.417L31.594 130.63L29.6074 139.286L28.2168 146.086L31.594 147.735V150.208H38.7458L35.3686 159.482L46.2949 156.803V159.482H49.0762L50.6654 164.428C50.8641 166.077 53.0891 168.385 60.3998 164.428C64.1421 162.403 67.9053 159.535 71.0603 156.803M84.8351 126.302L82.4512 134.752L77.882 150.208C76.5244 151.717 74.0688 154.198 71.0603 156.803M71.0603 156.803L74.1074 167.314L77.882 169.993L79.0739 168.344V169.993H82.4512L90.1989 177L96.5561 168.344L98.94 169.993L101.721 168.344L103.907 169.993C102.847 167.314 101.364 160.925 103.907 156.803C106.449 152.681 110.131 158.795 111.654 162.368L117.415 164.428L124.567 167.314L127.944 164.428L130.328 162.368L133.11 164.428L130.328 156.803L126.156 150.208L124.567 139.286L142.049 156.803L146.221 152.063L153.77 150.208L155.161 142.995C156.816 144.644 159.81 146.21 158.538 139.286C157.267 132.361 160.525 127.744 162.313 126.302L165.293 123.417L169.862 121.15V115.173L179 108.372L169.862 101.571C172.709 100.953 178.007 99.2217 176.418 97.2432C174.828 95.2648 174.299 88.9996 174.232 86.1144M174.232 86.1144L155.161 73.1307L167.478 77.4586L174.232 86.1144Z" stroke="black"/>
<path d="M53.0488 32.3261C53.6448 36.2418 56.0685 42.5069 60.9953 36.2418C65.922 29.9767 70.8621 31.0209 72.7162 32.3261L77.3848 30.7804M82.0533 29.2347L86.4238 32.3261L88.2118 38.9209M82.0533 29.2347C83.5101 30.2652 86.7814 33.6451 88.2118 38.9209M82.0533 29.2347L77.3848 30.7804M88.2118 38.9209L89.9997 47.1645V57.6751M77.3848 30.7804L80.6627 17.2815L78.6761 10.6866" stroke="black"/>
<path d="M72.1208 76.6346C75.935 75.3157 76.3589 72.2381 76.094 70.8641M72.1208 76.6346C70.099 77.3338 69.3647 77.1373 69.2492 76.6346M72.1208 76.6346L73.9088 80.3442L69.9355 82.4051H67.1543V80.3442L69.2492 76.6346M76.094 70.8641H72.1208L69.9355 74.9859C69.5309 75.5025 69.1468 76.1889 69.2492 76.6346M76.094 70.8641L77.882 74.9859H83.0471L85.6297 76.6346H90.1989M85.6297 70.8641H90.1989M85.6297 70.8641V66.7423L90.1989 64.4753L92.3842 66.7423M85.6297 70.8641L83.0471 68.5971H81.0605M90.1989 70.8641L92.3842 66.7423M90.1989 70.8641V76.6346M92.3842 66.7423L96.7547 70.8641L97.7661 75.1741M90.1989 76.6346V80.3442L95.3641 82.4051L98.7413 80.3442V74.9859L97.7661 75.1741M90.1989 76.6346L97.7661 75.1741" stroke="black"/>
<path d="M86.4245 98.8923L83.7426 97.4496M82.4513 89L86.4245 91.0609M82.4513 89L81.756 92.5035M82.4513 89L77.2861 86.5269M82.4513 89L83.7426 81.3746M86.4245 91.0609L87.8151 93.5339M86.4245 91.0609L87.4675 83.6674M88.5105 100.541L89.2058 98.8923V96.007L87.8151 93.5339M88.5105 100.541L93.179 103.91M88.5105 100.541L87.4675 103.014M87.8151 93.5339H93.179M93.179 93.5339L95.3642 96.007L98.1455 102.19L93.179 103.91M93.179 93.5339V86.5269M93.179 103.91L95.3642 105.487L90.5964 108.785L86.4245 105.487L87.4675 103.014M79.4714 100.541L82.4513 107.136H86.4245L87.4675 103.014M79.4714 100.541L83.7426 97.4496M79.4714 100.541L74.3062 96.007L77.2861 93.5339M83.7426 97.4496L81.0607 96.007L81.756 92.5035M77.2861 93.5339L81.756 92.5035M77.2861 93.5339V86.5269M77.2861 93.5339L72.9156 97.4496L67.5518 93.5339L77.2861 85.0843M77.2861 86.5269L71.1276 89M77.2861 81.3746H72.9156H69.737L71.1276 86.5269L77.2861 81.3746ZM77.2861 81.3746L79.4714 79.5198M83.7426 81.3746L79.4714 79.5198M83.7426 81.3746L79.4714 74.9859V79.5198M83.7426 81.3746L86.4245 77.2528M83.7426 81.3746L87.6165 82.6112M87.6165 82.6112L90.5964 81.3746M87.6165 82.6112L87.4675 83.6674M93.179 86.5269L87.4675 83.6674M93.179 86.5269H98.1455M98.1455 86.5269L95.3642 82.6112M98.1455 86.5269L98.871 89M100.927 96.007L96.5562 95.3887M100.927 96.007H105.496L108.873 91.0609M100.927 96.007L98.871 89M108.873 91.0609L105.496 86.5269M108.873 91.0609V89L111.058 86.5269L105.496 79.5198L104.304 72.7189L98.871 74.9859V79.5198L105.496 81.3746V86.5269M105.496 86.5269L98.871 89" stroke="black"/>
<path d="M96.7549 70.4521L104.304 72.7191" stroke="black"/>
<path d="M82.8481 75.192L85.4307 70.8642L80.4641 68.5972L75.6963 70.8642" stroke="black"/>
<path d="M35.1699 125.272L57.8172 113.525" stroke="black"/>
<path d="M125.163 140.935L106.886 119.09" stroke="black"/>
<path d="M165.888 124.035L139.268 114.967L114.236 101.572" stroke="black"/>
<path d="M86.4238 67.848C86.4238 68.373 86.6473 71.6902 86.676 71.5562C86.9526 70.2648 86.6908 68.6814 86.6908 67.3556C86.6908 67 86.6584 65.6 87.0913 66.6478C87.2494 67.0306 87.413 68.2181 87.8774 68.3558C88.0472 68.4061 88.1181 67.2012 88.1592 67.0479C88.5794 65.4786 88.9272 66.8945 89.0936 67.9711C89.3373 69.5474 89.3125 71.1437 89.4941 72.7256C89.6302 73.9115 89.6276 73.6129 89.6276 72.6794C89.6276 71.9439 89.7054 69.8885 90.2208 69.2944C90.3898 69.0996 90.7653 69.3814 90.9031 69.1097C91.2025 68.5196 91.2904 67.6583 91.4964 67.0171" stroke="#FFC902" stroke-linecap="round"/>
<path d="M77.0811 69.5093C77.4375 70.8959 77.3458 72.6767 78.3566 73.7252C78.9686 74.3601 78.4159 71.9304 78.4159 71.0326C78.4159 70.7852 79.8356 72.9448 80.2255 73.6637C80.2959 73.7936 80.038 71.3981 80.0178 70.8325C79.961 69.2408 80.2605 70.5446 80.8336 71.3249C80.895 71.4085 82.7891 73.9183 82.9101 73.4791C83.0636 72.9216 82.3578 71.2526 82.1536 70.6171" stroke="#FFC902" stroke-linecap="round"/>
<path d="M84.6924 73.7958C85.1175 74.2675 85.3962 74.8394 85.6639 75.418C85.7198 75.5387 85.7308 75.7028 85.7375 75.4823C85.7615 74.6859 86.003 73.8964 86.1245 73.1132C86.233 72.4142 86.3418 71.7077 86.4264 71.0051C86.4373 70.9148 86.4182 70.7203 86.5116 70.6597C86.775 70.4889 87.5063 73.7197 87.5799 74.0528C87.6541 74.3884 87.7203 74.7944 87.8431 75.1128C87.9284 75.3339 88.0104 75.8995 88.1721 75.41C88.2746 75.1 88.2364 74.7671 88.2766 74.4463C88.3304 74.0174 88.385 73.6109 88.385 73.1774C88.385 72.9606 88.3028 72.6968 88.5244 72.6393" stroke="#FFC902" stroke-linecap="round"/>
<path d="M90.8906 75.0972C91.5641 75.0972 92.2376 75.0972 92.9111 75.0972C93.3519 75.0972 92.6166 74.2439 92.5124 74.0572C92.0388 73.2077 91.5859 72.3402 91.0996 71.4993C90.9954 71.3191 91.4757 71.66 91.6493 71.7684C93.0809 72.6621 94.4287 73.6914 95.7832 74.7037C95.9606 74.8362 96.4324 75.2583 96.3483 75.049C96.1014 74.4344 95.5267 73.8522 95.1445 73.3304C94.3739 72.2781 93.7859 71.1799 93.1511 70.0458C93.0943 69.9442 92.8994 69.6902 92.9034 69.6924C93.7667 70.1701 94.5419 70.8113 95.4193 71.2664" stroke="#FFC902" stroke-linecap="round"/>
<path d="M98.418 71.4102C98.4987 71.9125 98.6115 72.374 98.7663 72.8557C98.8076 72.9843 98.829 73.1969 98.9405 73.2894C99.1284 73.4453 99.6135 70.3923 99.7727 70.4866C99.8697 70.5442 99.8438 71.1479 99.8463 71.1974C99.8733 71.7422 99.8811 72.2863 99.8811 72.8317C99.8811 72.9558 99.7644 73.8894 99.8966 73.9961C99.9179 74.0134 100.411 73.0613 100.469 72.9722C100.595 72.7804 100.733 72.5746 100.787 72.3498" stroke="#FFC902" stroke-linecap="round"/>
<path d="M99.5361 75.4405C99.549 76.5762 99.6489 77.713 99.7618 78.8407C99.7989 79.2114 99.7795 79.9555 99.9373 80.2979C99.9777 80.3857 100.126 79.6065 100.131 79.5858C100.358 78.5554 100.673 77.57 100.976 76.5684C101.13 76.0571 101.143 75.3557 101.409 74.8972C101.44 74.8433 101.459 75.0148 101.47 75.0783C101.566 75.645 101.574 76.2413 101.599 76.8154C101.638 77.6985 101.66 78.5822 101.664 79.4664C101.664 79.6533 101.617 79.976 101.678 80.1662C101.716 80.2839 101.808 80.1317 101.828 80.1003C102.214 79.4999 102.496 78.7827 102.749 78.0997C103.112 77.1181 103.419 76.1088 103.726 75.103C103.871 74.6285 103.91 75.0968 103.92 75.3664C103.958 76.4308 104.015 77.4963 104.045 78.5608C104.049 78.6863 103.978 79.1847 104.077 79.2935C104.255 79.4871 104.556 79.2359 104.751 79.2359C105.17 79.2359 105.239 80.3003 105.288 80.6602C105.295 80.7137 105.383 81.5574 105.582 81.3517C105.658 81.2722 105.701 81.1424 105.757 81.3641C105.954 82.1439 105.652 83.0752 105.893 83.8175C106.216 84.8138 107.263 83.5955 107.691 83.377C107.839 83.3017 107.654 83.7517 107.587 83.9204C107.302 84.6391 107.053 85.372 106.828 86.1185C106.745 86.3942 106.446 87.196 106.57 86.9418C107.062 85.9365 107.499 84.9137 108.096 83.9821C108.221 83.7871 108.335 83.5651 108.468 83.377C108.583 83.215 108.391 83.786 108.339 83.9862C108.078 84.9924 107.767 85.9825 107.505 86.9871C107.497 87.0187 107.41 87.3617 107.505 87.3617C107.717 87.3617 108.057 87.0889 108.239 86.983C108.476 86.8452 108.717 86.6833 108.941 86.5178C109.065 86.4264 109.111 86.387 109.034 86.6537C108.793 87.4855 108.352 88.2855 107.917 89" stroke="#FFC902" stroke-linecap="round"/>
<path d="M72.1514 86.3727C72.1593 86.3965 72.2828 86.8649 72.3604 86.8304C72.5443 86.7487 72.6548 86.1079 72.7126 85.943C72.7318 85.8883 73.108 84.8433 73.2971 85.0115C73.3992 85.1023 73.6277 86.7232 73.8003 86.4128C73.9927 86.0669 74.1303 85.6866 74.2996 85.3287C74.733 84.4125 75.2776 83.5621 75.8285 82.7186C76.1393 82.2427 76.4441 81.7305 76.8117 81.2972C76.888 81.2071 77.017 81.1068 77.0284 81.2891C77.0801 82.1103 77.1477 82.9666 77.2684 83.7787C77.3349 84.2262 77.3772 84.7478 77.5161 85.1801C77.5311 85.2267 77.5683 85.0973 77.5858 85.0516C77.7899 84.5177 77.9999 83.986 78.1974 83.4494C78.522 82.5671 78.8033 81.6719 79.0876 80.7752C79.1653 80.5301 79.2538 80.0048 79.4979 79.8436C79.7826 79.6557 79.6073 80.5376 79.6063 80.8876C79.6032 82.0205 79.5272 83.1426 79.4747 84.2726C79.4664 84.451 79.4958 86.1114 79.8153 85.4853C80.2719 84.5905 80.5058 83.5356 80.8914 82.6022C80.9859 82.3733 81.1239 81.6987 81.2088 81.9316C81.2516 82.0492 81.2739 82.3899 81.2784 82.4536C81.3455 83.3952 81.3754 84.3414 81.4139 85.2845C81.4533 86.2476 81.4764 87.2081 81.4875 88.1716C81.5065 89.8284 82.2539 84.9217 82.2539 83.2647" stroke="#FFC902" stroke-linecap="round"/>
<path d="M101.513 89.5735C101.503 90.4207 101.395 91.2673 101.259 92.1068C101.23 92.2815 101.06 92.788 101.152 92.6285C101.601 91.8463 101.923 91.0063 102.308 90.2019C102.62 89.5479 102.962 88.9035 103.286 88.2535C103.347 88.1297 103.379 88.1506 103.392 88.268C103.503 89.2421 103.426 90.2398 103.354 91.2138C103.297 91.9742 103.174 92.7669 103.232 93.5287C103.239 93.6175 103.277 94.1864 103.401 93.9024C103.839 92.9016 104.171 91.8592 104.518 90.8353C104.749 90.1533 104.854 89.44 105.212 88.7921C105.22 88.7766 105.354 88.5094 105.354 88.632C105.354 89.4262 105.367 90.2211 105.327 91.0148C105.311 91.3462 105.247 91.6814 105.247 92.0121C105.247 92.194 105.306 92.1426 105.401 91.9854C105.774 91.3691 106.031 90.7154 106.436 90.1097C106.502 90.011 106.516 89.7418 106.688 89.8355" stroke="#FFC902" stroke-linecap="round"/>
<path d="M75.9824 95.696C76.2946 96.5461 76.2625 97.4146 76.3656 98.3061C76.3916 98.5306 76.4296 99.4905 76.4779 98.7638C76.5484 97.7023 76.8032 96.6363 76.9927 95.5916C77.0726 95.151 77.2424 94.6855 77.3023 94.2505C77.3384 93.9888 77.363 94.0325 77.492 94.3268C78.0143 95.5188 78.4593 96.7948 78.7654 98.0651C78.7668 98.0708 78.9641 98.8765 79.0132 98.8562C79.0591 98.8371 79.0453 98.7585 79.0519 98.7076C79.0706 98.5618 79.113 98.1356 79.1215 98.0451C79.2045 97.1632 79.2627 96.2796 79.3577 95.3989C79.4092 94.9204 79.4483 94.4559 79.466 93.9774C79.4744 93.7509 79.9009 94.8841 79.915 94.9331C80.3105 96.3004 80.6866 97.7362 80.9137 99.1493C80.9354 99.2845 80.9879 99.6874 80.9988 99.5508C81.0276 99.1929 81.0634 98.777 81.1924 98.4426C81.2798 98.2158 81.2775 98.0401 81.2775 97.7921" stroke="#FFC902" stroke-linecap="round"/>
<path d="M93.6784 93.2384C94.4439 93.7049 95.2014 94.1759 95.9157 94.7241C96.0012 94.7897 96.2456 94.9565 96.2098 94.8526C96.1294 94.6189 95.9181 94.3455 95.7763 94.1458C95.2547 93.4115 94.7792 92.6533 94.2861 91.8972C94.0383 91.5171 93.7438 91.2088 93.4771 90.8532C93.4584 90.8282 93.3394 90.5906 93.361 90.5962C93.471 90.6247 93.6021 90.7759 93.6823 90.8371C93.9979 91.078 94.341 91.2748 94.6693 91.4957C95.5866 92.1127 96.4683 92.7875 97.371 93.4271C97.4548 93.4865 97.9645 93.9124 97.8704 93.6118C97.5058 92.4482 97.0944 91.308 96.6317 90.1826C96.3122 89.4052 96.0059 88.6259 95.7221 87.8336C95.7043 87.7839 95.3642 87.0569 95.4202 86.9261C95.471 86.8076 95.6019 87.1044 95.6912 87.1951C95.9175 87.4251 96.1345 87.6578 96.3337 87.9139C96.7719 88.4774 97.2454 88.9882 97.7388 89.5C97.8207 89.585 98.3033 89.9584 98.2768 89.9859" stroke="#FFC902" stroke-linecap="round"/>
<path d="M89.4971 99.8891C90.2806 98.7207 90.8901 97.3948 91.5563 96.1508C91.8403 95.6204 92.1148 95.0845 92.3962 94.5526C92.4563 94.4392 92.4993 94.2212 92.5781 94.123C92.7117 93.9567 92.702 94.0004 92.702 94.1993C92.702 95.7247 92.9446 97.1983 92.7214 98.7287C92.548 99.9172 92.3618 101.238 92.0053 102.387C91.9617 102.527 91.8659 102.952 91.8659 102.804C91.8659 102.183 92.1403 101.645 92.3227 101.062C92.6165 100.121 92.8358 99.1205 93.1897 98.2027C93.2265 98.1072 93.357 97.8398 93.4336 98.034C93.7234 98.769 93.7388 99.8313 93.7471 100.612C93.7553 101.386 93.7454 102.147 93.8129 102.917C93.865 103.511 94.0848 102.579 94.169 102.367C94.5399 101.43 94.7953 100.226 95.4115 99.4274C95.4332 99.3992 95.4889 99.9992 95.4889 100.05C95.4889 100.459 95.4192 100.858 95.4192 101.262" stroke="#FFC902" stroke-linecap="round"/>
<path d="M89.7764 94.1064C89.7769 94.1361 89.7881 95.038 89.8847 95.038C89.9817 95.038 90.257 94.7851 90.3686 94.7208C90.7132 94.5222 90.7479 95.4676 90.8215 95.6966" stroke="#FFC902" stroke-linecap="round"/>
<path d="M96.6055 83.0476C97.095 84.2374 97.6377 85.4272 98.0918 86.6294C98.1938 86.8993 98.2079 87.1654 98.2079 86.6936C98.2079 85.4212 98.1481 84.1494 98.0841 82.8789C98.0778 82.7547 97.9668 81.4738 98.2234 81.8671C98.5683 82.3955 98.7325 83.0798 98.9434 83.67C99.2211 84.4473 99.5205 85.2164 99.7949 85.9949C100.055 86.7324 100.215 87.4857 100.422 88.2355C100.517 88.5812 100.412 87.3109 100.406 87.2317C100.295 85.6829 99.9078 83.8955 100.333 82.369C100.386 82.1774 100.471 81.3798 100.689 81.2928C101.151 81.1085 102.297 84.2446 102.404 84.5012C102.633 85.0502 102.83 85.6119 103.07 86.1555C103.123 86.2779 103.125 86.4373 103.193 86.549C103.404 86.8921 103.354 86.303 103.36 86.1154C103.385 85.2626 103.364 84.407 103.364 83.5535C103.364 83.3221 103.469 83.6464 103.546 83.7423C103.684 83.9161 103.753 84.204 103.991 84.204" stroke="#FFC902" stroke-linecap="round"/>
<path d="M84.9717 80.59C85.072 80.6895 85.9403 81.6688 85.9471 81.2324C85.9543 80.7669 85.9471 80.3006 85.9471 79.8351C85.9471 79.8282 85.9156 79.3331 85.9974 79.3853C86.5673 79.7492 86.8947 80.5514 87.4954 80.863C87.5391 80.8857 87.5496 79.8963 87.5496 79.8351C87.5496 79.4832 87.5875 79.1021 87.5147 78.7549C87.4636 78.5111 87.4227 78.2534 87.627 78.6184C87.8988 79.104 88.1617 79.6224 88.4398 80.084C88.5028 80.1886 88.4862 78.8754 88.5327 78.6947C88.6032 78.4206 88.8733 78.9705 88.8733 78.4216" stroke="#FFC902" stroke-linecap="round"/>
<path d="M73.8215 80.5901C74.1484 80.5901 74.8345 80.7333 75.1336 80.5781C75.2546 80.5153 73.9202 78.5496 73.8524 78.4379C73.5002 77.8571 73.0805 77.3094 72.7415 76.7233C72.5063 76.3165 73.3029 77.0244 73.3802 77.0806C74.4288 77.8443 75.6065 78.4414 76.6238 79.2409C76.7542 79.3434 76.9991 79.5566 77.1657 79.5782C77.246 79.5886 76.742 78.9571 76.6471 78.8233C76.401 78.4764 76.0629 78.1413 75.8768 77.7552C75.7938 77.5831 75.2653 75.5919 75.3001 75.5829C75.3772 75.5629 75.6619 75.9221 75.691 75.9523C76.1815 76.4612 76.6161 77.0132 77.0806 77.5464C77.4807 78.0058 77.927 78.4856 78.385 78.8876C78.5064 78.9941 78.5305 78.9004 78.4856 78.7551C78.2263 77.9163 77.7495 77.1224 77.4057 76.3177C77.2667 75.9924 76.8251 75.3046 76.8251 74.9163C76.8251 74.8086 77.0114 75.0166 77.0883 75.089C77.4292 75.4097 77.7571 75.695 78.1798 75.8921C78.3526 75.9726 78.635 76.0557 78.6985 76.2535" stroke="#FFC902" stroke-linecap="round"/>
<path d="M69.5723 76.0369C69.9377 76.029 70.3226 76.0179 70.6715 75.8923C70.9643 75.7869 70.8868 75.661 70.7219 75.3864C70.5318 75.0699 70.3048 74.7795 70.0832 74.4869C70.0161 74.3984 69.8329 74.1363 69.9284 74.1898C70.5185 74.5201 71.0751 74.8534 71.7437 74.9808C71.9541 75.0209 72.7133 75.1842 72.7075 74.8483C72.701 74.4671 72.5849 74.1102 72.4327 73.7681C72.3756 73.6398 72.3343 73.56 72.5295 73.5955C73.0014 73.6814 73.4703 73.8918 73.9152 74.0693C74.1377 74.1581 74.5344 74.4422 74.7899 74.3664C75.0067 74.3022 73.6122 72.4966 73.412 72.2543C73.3521 72.1819 73.2825 72.0978 73.1952 72.0616C73.0292 71.9927 73.5705 71.9887 73.6133 71.9893C73.9928 71.9949 74.3571 72.1339 74.728 72.1339" stroke="#FFC902" stroke-linecap="round"/>
<path d="M68.1787 80.8072C68.2914 80.8295 68.7152 80.9915 68.7322 80.7791C68.7739 80.2601 68.7402 79.7066 68.6664 79.193C68.6244 78.9008 68.5271 78.6188 68.5271 78.3217C68.5271 78.1434 68.6238 78.3788 68.6819 78.4542C69.2012 79.1276 69.6399 79.765 70.354 80.2129C70.9691 80.5988 70.7383 79.6829 70.7024 79.2733C70.6924 79.1593 70.5004 77.989 70.5631 77.9322C70.6264 77.8747 72.2589 79.1538 72.4287 79.5062" stroke="#FFC902" stroke-linecap="round"/>
<path d="M69.7119 92.9499C70.2718 93.8553 70.9534 94.7109 71.4692 95.6402C71.6116 95.8967 71.6588 95.9699 71.6627 95.592C71.673 94.6138 71.6286 93.6415 71.5273 92.6688C71.4856 92.2692 71.2737 91.3358 71.4615 90.9462C71.5014 90.8633 71.5838 91.0844 71.624 91.167C71.8361 91.6028 72.0193 92.0584 72.1814 92.5162C72.6214 93.7588 73.0422 95.0613 73.2497 96.371C73.2544 96.4006 73.2472 96.436 73.2652 96.4594C73.3295 96.5427 73.2977 96.2484 73.3078 96.1422C73.3875 95.3055 73.4731 94.4707 73.5749 93.6365C73.7058 92.5626 73.8393 91.5003 74.0316 90.4362C74.0869 90.1302 74.1424 89.004 74.4496 89.7616C74.8496 90.7482 75.1273 91.8333 75.3438 92.8776C75.3575 92.9439 75.4479 93.8574 75.6186 93.8574C75.6481 93.8574 75.7661 92.6859 75.7734 92.6206C75.9024 91.4683 75.9035 90.3063 76.0482 89.1553C76.0956 88.7786 76.0584 88.3106 76.2921 87.9989C76.4096 87.8422 76.4184 88.3111 76.4469 88.4285C76.6239 89.1584 76.7464 89.8892 76.8185 90.637" stroke="#FFC902" stroke-linecap="round"/>
<path d="M77.7234 92.01C78.1893 92.1151 78.626 92.3053 79.0859 92.4276C79.4775 92.5318 78.7605 91.6178 78.7182 91.5603C78.223 90.8878 77.6626 90.1834 77.2667 89.4401C77.2434 89.3964 77.1811 89.2839 77.228 89.2956C77.748 89.4258 78.2775 89.9338 78.7182 90.2232C78.7986 90.276 80.1082 91.0651 80.0768 90.8616C80.0114 90.4375 79.6577 89.9911 79.4536 89.6409C79.131 89.0875 78.8579 88.4609 78.4898 87.9384C78.4543 87.888 78.3383 87.7634 78.3969 87.7778C78.9887 87.9232 79.6155 88.4895 80.1271 88.8097C80.5292 89.0615 80.9662 89.4693 81.416 89.6249" stroke="#FFC902" stroke-linecap="round"/>
<path d="M80.998 101.117C81.9114 102.718 82.8271 104.316 83.6611 105.96C83.6663 105.97 83.7559 106.096 83.7695 106.04C83.8773 105.592 83.6388 104.826 83.5527 104.398C83.2012 102.647 82.5136 100.972 82.1863 99.2176C82.1751 99.1573 82.0771 98.6897 82.1283 98.8201C82.2234 99.0623 82.4236 99.2659 82.5734 99.4706C82.9364 99.9666 83.2543 100.5 83.545 101.045C84.0927 102.071 84.5947 103.156 85.2713 104.1C85.4412 104.337 85.5139 104.604 85.6622 104.835C85.708 104.907 85.6641 104.663 85.6545 104.578C85.5722 103.853 85.3333 103.141 85.1397 102.442C84.9451 101.74 84.7727 101.027 84.5862 100.33C84.5713 100.274 84.4983 100.061 84.5281 100.065C84.7421 100.09 84.9821 100.353 85.1513 100.47C85.4469 100.675 85.7347 100.892 86.0377 101.085C86.1547 101.159 86.4631 101.53 86.4247 101.201C86.3599 100.646 86.0946 100.119 85.9796 99.571C85.887 99.129 87.018 99.5968 87.2066 99.6553C87.2254 99.6611 87.8131 99.8649 87.7756 99.7637C87.7069 99.5783 87.5755 99.4071 87.4776 99.2377" stroke="#FFC902" stroke-linecap="round"/>
<path d="M87.9663 105.382C88.1655 105.714 88.3801 106.039 88.5933 106.362C88.6589 106.461 88.8187 106.77 88.8023 106.651C88.6113 105.264 88.1524 103.911 87.974 102.523C87.9555 102.379 87.9465 102.247 88.094 102.423C88.6473 103.082 89.01 103.932 89.4371 104.679C89.6915 105.124 89.9368 105.574 90.188 106.02C90.1916 106.027 90.4761 106.61 90.5286 106.522C90.6735 106.282 90.6138 105.713 90.6138 105.438C90.6138 105.047 90.5698 104.654 90.5286 104.266C90.4857 103.861 90.1986 102.71 90.4164 103.049C90.9056 103.81 91.69 104.507 92.0769 105.31" stroke="#FFC902" stroke-linecap="round"/>
<path d="M83.7244 86.8437C84.0108 87.007 84.3955 87.2891 84.733 87.3383C84.9264 87.3664 84.5865 86.964 84.4696 86.8044C84.2351 86.484 83.9865 86.1737 83.7501 85.8546C83.5718 85.614 83.6051 85.5838 83.9268 85.6156C84.6178 85.6837 85.3062 85.9005 86.005 85.9005C86.1781 85.9005 85.2518 84.4808 85.1506 84.3481C85.0896 84.2682 84.8504 83.7507 84.8647 83.7586C85.1953 83.9401 85.5612 84.1028 85.8765 84.2957C86.0276 84.3881 85.7441 83.9624 85.6902 83.7913C85.6273 83.5916 85.557 83.3939 85.5168 83.1887" stroke="#FFC902" stroke-linecap="round"/>
<path d="M81.1377 76.181C81.5825 77.0402 82.2791 77.731 82.8524 78.4979C83.0917 78.818 83.1961 79.097 83.0846 78.5381C82.9382 77.8039 82.7954 77.0794 82.5698 76.3657C82.5246 76.2226 82.1252 74.7665 82.1441 74.7676C82.2723 74.775 82.4099 75.084 82.4615 75.1691C82.693 75.5516 82.956 75.9007 83.2279 76.2533C83.5886 76.7211 83.9715 77.2415 84.3775 77.6627C84.5733 77.8659 84.6971 78.2551 84.9697 78.3493" stroke="#FFC902" stroke-linecap="round"/>
<path d="M79.8838 79.0004C79.8838 78.9484 79.9057 78.3399 79.938 78.4865C80.0413 78.9552 80.0799 79.3984 80.2322 79.8678C80.3204 80.1398 80.3925 80.3878 80.565 80.6066C80.6416 80.7037 80.5648 80.6924 80.596 80.4861C80.6455 80.1589 80.6206 79.6087 80.805 79.3217C80.8262 79.2886 81.482 79.9251 81.5327 79.9722C81.7846 80.2057 82.0564 80.3837 82.3223 80.5905" stroke="#FFC902" stroke-linecap="round"/>
<path d="M84.6055 74.0176C84.9897 74.3788 85.4094 74.7212 85.7589 75.12C85.96 75.3495 85.8246 74.6423 85.8185 74.5554C85.7819 74.0324 85.7335 73.5103 85.5878 73.0065C85.5493 72.8732 85.4919 72.6963 85.4919 72.5548C85.4919 72.241 85.8932 73.0277 86.057 73.2916C86.5407 74.0711 87.0092 74.8524 87.5603 75.5825C87.6645 75.7206 87.807 75.9779 87.9284 76.0881C87.9486 76.1064 87.9647 75.5573 87.9647 75.5288C87.9647 74.8135 87.8771 74.1061 87.8247 73.3938C87.7986 73.0384 87.7681 72.6856 87.734 72.3316C87.7292 72.2818 87.6946 72.132 87.7055 72.0923C87.7156 72.0557 87.764 72.1397 87.7858 72.1703C87.922 72.361 88.0367 72.5697 88.1591 72.7699C88.4587 73.26 88.7686 73.7433 89.0689 74.2327C89.1991 74.445 89.3644 74.5427 89.3644 74.792" stroke="#F19E00" stroke-linecap="round"/>
<path d="M90.8564 78.1796C91.3598 78.7303 91.8268 79.3159 92.3261 79.8709C92.376 79.9264 92.5074 80.1408 92.5257 79.9651C92.594 79.307 92.3199 78.591 92.1758 77.9618C92.12 77.7184 92.109 77.4788 92.0669 77.2385C92.061 77.2047 92.0462 77.1849 92.0954 77.2277C92.3493 77.449 92.5706 77.7125 92.8004 77.9591C93.4587 78.6656 94.1147 79.3697 94.76 80.0887C95.0195 80.3779 95.2803 80.6531 95.4961 80.9788C95.6389 81.1942 95.6179 80.9156 95.605 80.7879C95.5077 79.8296 95.2141 78.9168 94.9933 77.986C94.945 77.7826 94.9303 77.5288 94.8455 77.3353C94.8088 77.2514 94.8314 77.1817 94.9362 77.2439C95.1627 77.3781 95.34 77.6323 95.5272 77.8139C95.862 78.1385 96.2209 78.4359 96.5899 78.7174C96.8087 78.8843 97.1565 79.0048 97.3364 79.2148C97.3844 79.2708 97.339 78.3167 97.3313 78.2522C97.2198 77.3274 96.8284 76.4492 96.8284 75.5176" stroke="#F19E00" stroke-linecap="round"/>
<path d="M85.3535 81.1319C85.5734 81.2255 87.4159 82.0182 87.4634 81.8257C87.4998 81.6782 87.463 81.4041 87.4478 81.2906C87.3694 80.7031 87.2185 80.1321 87.0487 79.567C86.9407 79.2076 86.7957 78.861 86.6884 78.5022C86.54 78.006 86.8531 78.5461 86.9813 78.7173C87.4605 79.3569 88.0057 79.8875 88.552 80.4543C88.742 80.6514 88.656 80.2409 88.635 80.1021C88.5498 79.5396 88.345 79.0187 88.2021 78.4753C88.1279 78.1931 88.5182 78.3637 88.6557 78.4215C88.8303 78.4949 89.0055 78.5066 89.1793 78.5667" stroke="#F19E00" stroke-linecap="round"/>
<path d="M72.6143 86.1168C73.1772 86.1168 78.0091 86.1929 78.0056 86.0469C77.9956 85.6301 77.6867 85.0788 77.5209 84.7132C77.4563 84.5707 77.2703 84.3104 77.2799 84.1324C77.2867 84.0036 78.3427 84.8709 78.3503 84.8772C78.9723 85.3919 79.599 85.8742 80.2555 86.3373C80.3289 86.3891 80.3574 86.3825 80.328 86.2701C80.1791 85.7005 79.8804 85.1503 79.636 84.6218C79.3127 83.9227 78.8806 83.1987 78.6821 82.4438C78.5879 82.0855 79.5196 82.5628 79.5764 82.589C80.3875 82.9629 81.127 83.4863 81.948 83.8339C82.0528 83.8783 82.2168 83.9241 82.3083 83.998C82.3197 84.0071 82.3128 84.0115 82.2746 83.9549C82.044 83.6131 81.8022 83.2804 81.5541 82.952C80.9807 82.1932 80.401 81.4317 79.7941 80.7013C79.6472 80.5246 79.6427 80.4799 79.8822 80.5319C80.2715 80.6165 80.6234 80.8145 81.0071 80.9165C81.1187 80.9461 81.1985 80.9699 81.2923 81.0348" stroke="#F19E00" stroke-linecap="round"/>
<path d="M94.0791 88.2465C94.1793 89.7897 94.376 91.3166 94.5146 92.8554C94.5656 93.4218 94.5079 94.044 94.6156 94.6032C94.6542 94.8029 94.6524 94.814 94.7064 94.5548C94.9439 93.4141 95.1704 92.2625 95.3777 91.1156C95.5371 90.2339 95.6929 89.3472 95.8313 88.4617C95.8521 88.3285 95.8334 88.1983 95.8987 88.0798C95.9137 88.0526 95.94 88.1296 95.9453 88.1605C96.0343 88.6785 96.0584 89.2104 96.1371 89.7308C96.3034 90.8303 96.4813 91.9153 96.5726 93.0248C96.5954 93.3014 96.616 93.5769 96.6426 93.8529C96.6678 94.1148 96.7053 93.8434 96.7281 93.6997C96.8735 92.7832 96.9449 91.8487 97.0599 90.9274C97.1078 90.5433 97.193 90.1458 97.205 89.7577C97.2111 89.5646 97.3313 89.7422 97.3839 89.8357C97.9707 90.8792 98.3269 92.0857 98.6721 93.2318C98.823 93.7327 98.9719 94.2653 99.0713 94.7806" stroke="#F19E00" stroke-linecap="round"/>
<path d="M97.5303 82.052C97.8725 83.259 98.2633 84.4514 98.5463 85.6766C98.6451 86.1041 98.6243 85.816 98.6708 85.5099C98.7965 84.6815 98.915 83.8524 99.0492 83.0253C99.1323 82.5133 99.1786 81.9868 99.3395 81.4927C99.3535 81.4495 99.3747 81.2182 99.4069 81.1915C99.4402 81.1639 99.4936 81.2521 99.4976 81.2587C99.618 81.4585 99.6762 81.7164 99.7335 81.939C100.116 83.4262 100.409 84.9452 100.739 86.4457C100.921 87.2713 101.169 88.1346 101.169 88.9894C101.169 90.0995 101.29 86.7726 101.328 85.6632C101.365 84.5479 101.342 83.4062 101.561 82.3074C101.615 82.0356 101.665 81.4688 101.95 81.9552C102.6 83.0678 103.244 84.298 103.642 85.5368" stroke="#F19E00" stroke-linecap="round"/>
<path d="M99.4893 78.3727C99.847 78.7196 100.238 79.031 100.627 79.3381C100.657 79.3615 101.162 79.7264 101.161 79.7172C101.117 79.194 100.918 78.6572 100.765 78.163C100.536 77.4243 100.31 76.6802 100.023 75.9635C100.022 75.9596 99.9241 75.6953 99.9688 75.6999C100.053 75.7086 100.234 75.9068 100.272 75.942C100.623 76.2664 100.961 76.6058 101.306 76.9369C102.078 77.6774 102.875 78.3887 103.626 79.1525C103.851 79.3816 104.142 79.6066 104.341 79.8624C104.795 80.4449 103.767 78.4874 103.437 77.8215C103.14 77.2231 102.852 76.6199 102.563 76.0172C102.468 75.8171 102.351 75.6017 102.299 75.3827C102.295 75.3666 102.257 75.2155 102.263 75.2159C102.605 75.2456 103.058 75.8496 103.302 76.0576C103.504 76.2298 103.715 76.4301 103.947 76.5604C104.017 76.5993 104.037 76.6023 104.062 76.6787" stroke="#F19E00" stroke-linecap="round"/>
<path d="M106.688 85.5185C107.147 86.3351 107.609 87.1461 108.101 87.9207C108.153 88.0031 108.252 88.2518 108.273 88.1426C108.287 88.0737 108.259 88 108.246 87.9311C108.156 87.4779 108.051 87.0289 107.944 86.5844C107.689 85.5224 107.389 84.4548 107.026 83.4646C107.011 83.425 106.897 83.1555 106.964 83.3416C107.143 83.8414 107.399 84.2949 107.659 84.7039C107.659 84.7047 107.725 84.8303 107.695 84.7628C107.481 84.2792 107.266 83.7965 107.065 83.3C106.956 83.0305 106.823 82.7385 106.751 82.4386C106.723 82.3221 106.799 82.3599 106.843 82.3848C107.226 82.6022 107.552 82.9653 107.889 83.3034" stroke="#F19E00" stroke-linecap="round"/>
<path d="M91.0296 84.2094C91.6181 84.4255 92.2232 84.6608 92.7715 84.9731C92.8189 85.0001 92.8673 85.0372 92.8181 84.9516C92.5251 84.4419 92.2252 83.9395 91.9446 83.4216C91.6187 82.8201 91.2718 82.2398 90.8923 81.6738C90.7762 81.5007 90.7358 81.4692 90.9311 81.6496C91.4088 82.0907 91.9122 82.5127 92.4449 82.8811C92.5329 82.942 92.7351 83.1143 92.8285 83.1419C93.3039 83.2828 93.7737 83.4493 94.2411 83.6394C94.8537 83.8885 95.4762 84.2857 96.1151 84.4514" stroke="#F19E00" stroke-linecap="round"/>
<path d="M81.4795 76.2432C81.8899 77.2179 82.3239 78.1818 82.7651 79.1418C82.8239 79.2698 82.8529 79.2673 82.8792 79.1203C82.9454 78.75 82.9657 78.3633 82.9932 77.9883C83.0147 77.6954 83.0193 77.4017 83.0425 77.109C83.0505 77.0073 83.035 76.7854 83.1124 76.7003C83.1755 76.631 83.817 78.3495 83.8771 78.5153C83.8919 78.5561 84.1694 79.3943 84.2115 79.3784C84.4365 79.2935 84.5463 78.6829 84.6054 78.4803C84.75 77.9854 84.9114 78.1794 85.1187 78.5664" stroke="#F19E00" stroke-linecap="round"/>
<path d="M71.0744 84.4715C71.1976 84.4715 71.7965 84.5689 71.598 84.3424C71.0125 83.6743 70.3661 83.0503 69.6954 82.4763C69.3796 82.206 69.8428 82.3201 70.0168 82.3418C71.0878 82.4756 72.1187 82.8055 73.1687 83.0463C73.6154 83.1488 73.0948 82.782 72.9769 82.6806C72.6308 82.3831 72.272 82.1072 71.9064 81.8363C71.6263 81.6288 72.019 81.7957 72.0982 81.8175C72.729 81.9911 73.5855 82.0367 74.0293 82.6054C74.2435 82.8799 74.3216 83.2615 74.3869 83.6003" stroke="#F19E00" stroke-linecap="round"/>
<path d="M74.2945 80.5994C74.7884 80.4713 74.2233 79.6099 74.0949 79.3329C73.8056 78.7091 73.5091 78.0827 73.211 77.4641C73.1907 77.4219 73.1391 77.3525 73.2343 77.3808C73.5969 77.4882 73.9581 77.7541 74.2867 77.9347C74.9107 78.2776 75.5293 78.6439 76.184 78.9215C76.4722 79.0437 76.7727 79.1256 77.0549 79.263C77.2319 79.3492 77.3919 79.392 77.5759 79.4485C77.6654 79.476 77.3604 79.0423 77.3401 79.0129C77.2242 78.8457 75.8369 76.7541 75.9378 76.6897C76.1451 76.5574 77.0311 77.2833 77.1716 77.37C77.804 77.7601 78.504 78.0742 79.0793 78.5558C79.1086 78.5804 79.3402 78.761 79.3152 78.7118C79.1805 78.4464 78.9429 78.2102 78.7527 77.9912C78.3686 77.5488 77.9754 77.1156 77.5967 76.6682C77.5435 76.6053 76.4385 75.3861 76.6376 75.2054C76.7971 75.0607 77.3775 75.1785 77.607 75.1785" stroke="#F19E00" stroke-linecap="round"/>
<path d="M70.6553 74.9849C70.994 74.4683 71.3446 73.9385 71.6065 73.3742C71.6262 73.3318 71.6615 73.1881 71.6921 73.1564C71.7076 73.1402 71.6333 73.7774 71.6273 73.8125C71.4699 74.7268 71.3477 75.6468 71.1892 76.5606C71.1886 76.5645 71.01 77.44 71.1892 77.1683C71.5597 76.6065 71.8183 75.9587 72.0705 75.3344C72.3177 74.7227 72.598 74.1155 72.8222 73.4952C72.8404 73.4447 73.0242 73.0251 73.0321 73.0865C73.1856 74.2806 73.1985 75.4857 73.3198 76.6816C73.3275 76.757 73.416 76.5626 73.4391 76.4907C73.666 75.7845 73.8549 75.0622 74.0456 74.3449C74.1521 73.9443 74.2506 73.5416 74.3541 73.1403C74.382 73.0318 74.4023 72.8643 74.4603 72.7611C74.532 72.6337 74.8248 73.6168 74.901 73.7748" stroke="#F19E00" stroke-linecap="round"/>
<path d="M68.5078 80.5509C68.6025 80.0597 68.7371 79.5497 68.7877 79.0505C68.8175 78.7574 69.0664 79.3145 69.091 79.3597C69.3035 79.7498 69.6221 79.6053 69.9853 79.4538C70.3713 79.2928 70.7001 79.09 70.9754 78.7654C71.1244 78.5898 71.2491 78.3798 71.4005 78.2115C71.577 78.0153 71.368 79.0717 71.346 79.1553C71.2473 79.5309 71.0556 79.8739 70.965 80.2497C70.9165 80.451 70.9086 80.6527 70.851 80.852C70.8428 80.8804 70.8206 81.0017 70.8717 80.9246C71.0114 80.7138 71.1947 80.5489 71.3797 80.3815C71.5701 80.2092 71.8077 79.9583 72.0537 79.8733" stroke="#F19E00" stroke-linecap="round"/>
<path d="M70.2832 93.0389C70.9894 92.4545 71.6168 91.7789 72.3464 91.2238C73.2426 90.5421 74.2048 89.9922 75.1769 89.4411C75.2823 89.3813 75.3919 89.3031 75.5061 89.2636C75.6499 89.2139 75.2559 89.5553 75.2313 89.5836C74.2126 90.7579 73.1717 91.9699 72.4294 93.3561C72.3082 93.5825 72.5344 93.3832 72.6497 93.3024C73.6201 92.6222 74.5652 91.9315 75.462 91.1485C75.754 90.8936 76.0877 90.6802 76.3744 90.4252C76.4474 90.3603 76.2558 90.6831 76.2448 90.6968C75.6659 91.4174 74.9957 92.0946 74.3578 92.7592C73.9615 93.1721 73.429 93.5618 73.1033 94.0445C73.0062 94.1884 72.9703 94.5942 73.1422 94.6952C73.3231 94.8016 73.6061 94.6192 73.7643 94.55C74.284 94.3227 74.7843 94.0662 75.2728 93.7729C75.744 93.4901 76.1891 93.1435 76.701 92.9421C76.9097 92.8599 76.8257 92.9147 76.7217 93.0873" stroke="#F19E00" stroke-linecap="round"/>
<path d="M77.6084 90.7156C77.9678 89.8319 77.9288 88.8402 78.0387 87.903C78.0434 87.8623 78.0635 87.6589 78.1061 87.8035C78.3724 88.7079 78.4916 89.6908 78.6037 90.6242C78.7177 91.5734 78.8045 92.5335 78.8215 93.4906C78.8253 93.7108 78.8461 93.7525 78.9044 93.4906C79.1668 92.3108 79.392 91.1138 79.6302 89.9278C79.6383 89.887 79.8135 89.2029 79.8764 89.2932C80.1297 89.6571 80.1695 90.3703 80.2367 90.7909C80.3261 91.3503 80.3611 91.9084 80.3611 92.4742C80.3611 92.6321 80.3687 92.6304 80.4492 92.4634C80.733 91.8748 80.9642 91.2615 81.1646 90.6377C81.1729 90.612 81.2941 90.3323 81.2942 90.3338C81.3225 90.6564 81.3453 90.9751 81.3875 91.2965" stroke="#F19E00" stroke-linecap="round"/>
<path d="M76.4912 96.4369C77.4964 96.9532 78.4853 97.4596 79.4409 98.0287C79.4734 98.048 79.6312 98.1519 79.6054 98.1287C79.0715 97.6494 78.6699 97.0491 78.2256 96.5234C77.7584 95.9707 77.3092 95.3977 76.743 94.897C76.7183 94.8751 76.5943 94.7861 76.7173 94.8182C77.3522 94.9834 77.925 95.3364 78.4645 95.6217C79.3847 96.1084 80.3261 96.5706 81.2292 97.0751C81.4657 97.2072 81.7095 97.367 81.9692 97.475C82.1997 97.5708 81.8916 97.4084 81.8356 97.3597C81.3842 96.9666 80.9584 96.5518 80.5227 96.1485C80.4028 96.0376 80.2899 95.9418 80.1475 95.8486C80.0097 95.7584 80.1392 95.7869 80.2477 95.8217C80.5635 95.923 80.8552 96.0754 81.165 96.1889C81.3041 96.2398 81.4272 96.2889 81.5324 96.3677" stroke="#F19E00" stroke-linecap="round"/>
<path d="M81.8984 95.2651C82.659 94.0158 82.9704 92.5142 83.6532 91.2155C83.7483 91.0347 83.8949 90.8885 83.9876 90.7154C84.1015 90.5028 83.9529 91.1804 83.9435 91.2182C83.7133 92.1497 83.3609 93.0333 83.2307 93.9905C83.2184 94.0811 83.048 94.8135 83.2826 94.4745C83.6556 93.9353 84.0581 93.4115 84.4075 92.8558C84.481 92.7388 84.6262 92.6327 84.646 92.8423C84.706 93.4811 84.5721 94.1857 84.4904 94.8133C84.3914 95.5746 84.2756 96.3376 84.1431 97.0935C84.1178 97.2376 84.0965 97.3825 84.0705 97.5264C84.0202 97.8048 84.4082 97.081 84.5682 96.8515C84.9873 96.2503 85.3618 95.6533 85.719 95.015C85.7766 94.9121 85.8641 94.8314 85.9212 94.7327C85.9472 94.6877 85.9568 94.8336 85.9549 94.8859C85.9304 95.5595 85.864 96.2387 85.7709 96.9053C85.7173 97.2887 85.6049 97.6617 85.5583 98.0454C85.5241 98.327 85.6393 98.2518 85.7838 98.1019C86.0572 97.8183 86.2971 97.5022 86.5692 97.2172C86.6661 97.1157 86.7921 97.0321 86.8673 96.9107C87.0258 96.655 87.098 97.4349 87.1135 97.513C87.1693 97.7939 87.2234 98.0915 87.3105 98.3627" stroke="#F19E00" stroke-linecap="round"/>
<path d="M81.0137 101.17C81.8247 100.488 82.7207 99.9315 83.5694 99.3038C83.8496 99.0965 84.1257 98.8714 84.4299 98.7014C84.4916 98.667 84.2064 99.2407 84.1733 99.3011C83.6879 100.188 83.0801 100.993 82.6363 101.907C82.4294 102.332 82.2241 102.758 82.0142 103.181C81.8665 103.479 82.4183 102.659 82.6311 102.407C83.1712 101.767 83.7742 101.168 84.4273 100.654C84.444 100.64 84.9276 100.215 84.9276 100.352C84.9276 101.146 84.5087 102.006 84.2329 102.724C83.9886 103.36 83.7468 103.979 83.5383 104.628C83.5154 104.699 83.4185 104.777 83.4605 104.838C83.4814 104.868 83.5224 104.798 83.5486 104.773C83.655 104.67 83.7729 104.534 83.8649 104.423C84.5107 103.648 85.0951 102.82 85.7622 102.063C85.822 101.995 86.3842 101.208 86.2236 101.67C85.7583 103.008 85.2259 104.323 84.7928 105.671" stroke="#F19E00" stroke-linecap="round"/>
<path d="M87.6162 90.3494C87.9926 89.1933 88.3772 88.0394 88.7815 86.8962C88.9063 86.5433 89.0323 86.1886 89.1858 85.8508C89.1867 85.8488 89.2769 85.6053 89.3033 85.7018C89.337 85.8253 89.3183 85.9919 89.3074 86.1152C89.2599 86.6552 89.1545 87.1933 89.0476 87.7204C88.874 88.5763 88.5568 89.4413 88.5443 90.3302C88.5403 90.6153 88.6938 90.2151 88.7444 90.1307C88.7811 90.0695 89.3496 89.1578 89.359 89.1743C89.3956 89.2382 89.3889 89.4724 89.3899 89.518C89.4029 90.0828 89.371 90.6488 89.3157 91.2097C89.2808 91.5642 89.1919 91.9377 89.1919 92.2959C89.1919 92.4036 89.3133 92.1313 89.3569 92.0364C89.6283 91.4471 89.9372 90.8868 90.2211 90.3062C90.3042 90.1363 90.4137 89.7522 90.5491 89.6261C90.5688 89.6077 90.4801 90.3411 90.4666 90.4119C90.4087 90.7145 90.3504 91.0165 90.2974 91.3203C90.2822 91.4078 90.1837 91.5846 90.2603 91.5846C90.2911 91.5846 90.3938 91.4553 90.3985 91.45C90.5845 91.2382 90.7492 91.0014 90.9141 90.7676C91.0979 90.5071 91.2502 90.2918 91.473 90.0899C91.6273 89.9501 91.5858 90.2975 91.5803 90.4071C91.5587 90.8374 91.4977 91.2652 91.44 91.6904" stroke="#F19E00" stroke-linecap="round"/>
<path d="M89.736 100.638C89.534 100.045 89.2926 99.4141 89.1839 98.7936C89.1293 98.4819 89.7849 98.9843 90.0159 99.1916C90.6113 99.7256 91.1979 100.275 91.7681 100.837C91.862 100.93 91.96 100.965 92.0325 101.074C92.246 101.394 91.8598 100.315 91.7292 99.9498C91.318 98.8008 90.9364 97.6412 90.5628 96.4784C90.4957 96.2695 90.355 95.9425 90.3892 95.7121C90.4118 95.5596 90.6404 95.8848 90.7365 96.0025C91.1452 96.5032 91.5239 97.0319 91.9236 97.5406C92.6125 98.4172 93.3037 99.2973 94.0154 100.154C94.1629 100.332 94.3592 100.481 94.4456 100.705C94.6521 101.241 93.9498 99.6728 93.6965 99.1593C92.98 97.7064 92.1793 96.2781 91.5815 94.7656C91.5391 94.6583 91.3901 94.3199 91.4674 94.1794C91.5945 93.9487 93.097 95.4289 93.2041 95.54C94.4688 96.8521 95.6461 98.351 96.6877 99.8638" stroke="#F19E00" stroke-linecap="round"/>
<path d="M102.7 93.9609C102.446 93.5253 102.189 93.0881 101.949 92.6451C101.763 92.3031 102.53 92.8761 102.547 92.8863C103.196 93.2706 103.876 93.5869 104.532 93.9443C104.848 94.1162 104.403 93.6337 104.36 93.5722C103.559 92.4455 102.728 91.3015 102.017 90.1133C101.946 89.9948 102.029 90.0127 102.12 90.0531C102.435 90.1934 102.73 90.3916 103.014 90.5852C103.494 90.9111 104.017 91.2068 104.465 91.5746C104.542 91.6385 104.884 91.9078 104.662 91.6183C104.094 90.8771 103.429 90.2139 102.938 89.4128C102.859 89.283 102.826 89.2175 103.029 89.2756C103.668 89.459 104.283 89.7506 104.888 90.024C105.344 90.2298 105.793 90.4487 106.25 90.6517C106.389 90.7137 106.298 90.6348 106.242 90.5644C105.742 89.9359 105.305 89.2587 104.814 88.6229C104.714 88.4927 104.619 88.3591 104.522 88.228C104.514 88.2177 104.506 88.1698 104.53 88.1698C104.74 88.1698 105.089 88.447 105.246 88.5398C106.004 88.9864 106.724 89.5048 107.435 90.024C107.524 90.0893 107.472 90.0897 107.406 90.0364C107.178 89.8531 107.003 89.6128 106.809 89.3962" stroke="#F19E00" stroke-linecap="round"/>
<path d="M84.8662 80.8457C85.0662 81.2241 85.2202 81.5964 85.4822 81.9309C85.6861 82.1913 85.5895 81.658 85.5842 81.515C85.5638 80.9653 85.4834 80.4238 85.5551 79.874C85.5603 79.8341 85.5783 79.3536 85.6936 79.4732C86.0613 79.8547 86.2744 80.5546 86.4918 81.0348C86.5082 81.0711 86.8621 81.831 86.8854 81.7532C86.9494 81.539 86.9 81.2278 86.9 81.0121C86.9 80.5438 86.9114 80.0734 86.8854 79.6056C86.8595 79.1406 86.8538 78.5704 86.7177 78.1234C86.443 77.2208 87.5169 79.8275 87.8476 80.7096C87.8584 80.7385 87.9288 81.1451 87.946 80.9932C88.0215 80.3271 87.9555 79.5951 87.9168 78.9288C87.9002 78.6428 87.9366 78.2937 87.833 78.0251C87.6885 77.6504 88.1275 78.1548 88.1538 78.1915C88.6338 78.8624 89.2667 79.6362 89.5242 80.4374" stroke="#A96901" stroke-linecap="round"/>
<path d="M90.6019 84.49C90.3737 84.2467 90.1899 84.0011 90.0115 83.7187C89.9322 83.5931 90.2855 83.8348 90.3905 83.938C90.7356 84.2768 91.0342 84.6753 91.2944 85.0874C91.3078 85.1085 91.3881 85.2896 91.4402 85.2235C91.588 85.0362 91.3898 84.5404 91.4694 84.3009C91.6059 83.8903 91.974 84.0975 92.2093 83.9077C92.7048 83.5079 91.94 82.5409 92.8289 82.6562C92.9345 82.6699 93.2474 82.8272 93.1277 82.5541C92.9959 82.2533 93.3146 82.3477 93.423 82.5163" stroke="#A96901" stroke-linecap="round"/>
<path d="M87.6162 89.6009C88.0686 88.6135 88.3402 87.5964 88.7309 86.5977C88.788 86.4518 88.826 86.5023 88.8279 86.6357C88.8372 87.3201 88.6472 87.9507 88.4509 88.6139C88.288 89.1642 88.1863 89.7297 88.0039 90.2758C87.9759 90.3597 87.8863 90.6008 87.9555 90.5331C88.2206 90.2735 88.4021 89.9174 88.5748 89.6178C88.6119 89.5533 89.0555 88.5482 89.1887 88.578C89.343 88.6126 89.3243 89.5484 89.334 89.6621C89.3622 89.9898 89.3125 90.3048 89.3125 90.6301C89.3125 90.7781 89.4018 90.3424 89.4525 90.1999C89.6463 89.655 89.842 89.1099 90.0556 88.5696C90.1694 88.2821 90.2902 87.9956 90.4164 87.7112C90.4645 87.603 90.4261 87.9405 90.4218 88.055C90.3997 88.6485 90.3513 89.2415 90.2845 89.8329C90.2564 90.0821 90.2451 90.153 90.2145 90.3791C90.2065 90.4386 90.1479 90.5706 90.2226 90.5584C90.3724 90.5339 90.4508 90.3983 90.5565 90.3116C90.7608 90.1441 91.115 89.8497 91.3077 89.6874C91.6279 89.4175 91.9323 89.1424 92.2312 88.8585C92.5933 88.5147 92.202 89.4899 92.1747 89.5693C92.1322 89.6923 92.0548 90.1782 91.8812 90.2463" stroke="#A96901" stroke-linecap="round"/>
<path d="M90.708 79.6884C91.2051 78.8486 91.8661 78.0869 92.3336 77.2383C92.3424 77.2223 92.3991 77.0712 92.4393 77.1211C92.5805 77.297 91.9413 78.4908 91.8816 78.6449C91.6575 79.2231 91.5005 79.8056 91.3385 80.4031C91.2798 80.6198 91.692 80.1339 91.8306 79.9607C92.4305 79.2107 92.9785 78.4197 93.5582 77.6543C93.6623 77.5167 93.6463 77.6499 93.6165 77.7526C93.3882 78.5392 93.2048 79.332 93.0516 80.1384C93.0468 80.1635 92.8372 81.2014 92.9459 81.0496C93.4433 80.3549 93.9053 79.6004 94.3236 78.8528C94.6449 78.2785 94.8842 77.685 95.1035 77.0644C95.1646 76.8916 95.1137 77.4342 95.089 77.6164C94.9574 78.5874 94.8178 79.5595 94.7245 80.5354C94.7113 80.6734 94.6154 81.0494 94.7099 80.9513C94.8949 80.7594 95.016 80.3327 95.1145 80.0968C95.445 79.305 95.7674 78.5097 96.073 77.7072C96.1012 77.6333 96.7127 75.7032 96.7437 75.7032C96.8957 75.7032 96.6847 76.0148 96.627 76.1608C96.3804 76.7851 96.1951 77.4237 96.0366 78.0777C95.9157 78.5769 95.694 79.0639 95.694 79.5826C95.694 79.9447 96.0345 79.524 96.1642 79.4086C96.6233 79.0004 97.1346 78.6703 97.5637 78.2252C97.6814 78.1032 97.822 77.959 97.7861 78.2479C97.7306 78.6935 97.6621 79.1019 97.6621 79.5523" stroke="#A96901" stroke-linecap="round"/>
<path d="M93.5918 89.0808C94.1276 88.5406 94.707 87.9994 95.323 87.557C95.4629 87.4566 95.4223 87.7291 95.4142 87.7952C95.3296 88.4839 95.0124 89.1515 94.7727 89.7916C94.4773 90.5803 94.033 91.3708 93.8032 92.1812C93.625 92.8098 94.4908 91.0819 94.8237 90.5251C95.0976 90.067 95.3964 89.6301 95.6912 89.1866C95.9168 88.8472 96.0977 88.4397 96.3727 88.1393C96.7399 87.7384 96.4971 88.2197 96.4019 88.559C96.0397 89.8491 95.6992 91.1592 95.4798 92.4837C95.3657 93.1721 96.103 91.8487 96.165 91.7275C96.4988 91.0745 96.841 90.4037 97.1308 89.7273C97.2799 89.3794 97.2778 89.2815 97.262 89.7878C97.2153 91.2908 96.7061 92.6927 96.2889 94.1171C96.2386 94.2888 95.9739 94.8373 96.0338 95.0548C96.0823 95.2312 96.5268 94.5845 96.5513 94.5481C96.9603 93.942 97.5141 93.5835 98.2388 93.5083C98.7157 93.4589 98.4001 94.1809 98.5778 94.4574" stroke="#A96901" stroke-linecap="round"/>
<path d="M88.8701 94.9336C89.1047 94.8332 90.1166 94.2531 90.1166 94.8127C90.1166 95.4872 89.8359 96.2884 89.6282 96.9225C89.534 97.2102 89.4397 97.4755 89.395 97.777C89.3815 97.8681 89.3102 98.0314 89.4241 97.8677C89.9609 97.0966 90.6575 96.2597 91.3996 95.6974C91.4332 95.6719 91.9598 95.2168 92.0046 95.2891C92.1137 95.4652 91.9456 95.9608 91.9062 96.1209C91.6905 96.9964 91.4457 97.8674 91.21 98.7374C91.0813 99.2124 90.6362 100.613 90.8383 100.167C91.1147 99.5557 91.4602 98.9831 91.7567 98.3819C92.2234 97.4357 92.6372 96.4805 93.1782 95.5764C93.4413 95.1367 93.5427 94.6538 93.5244 95.5235C93.4807 97.6103 93.2986 99.6967 93.1089 101.774C93.1027 101.842 92.9871 102.524 93.098 102.579C93.2247 102.641 93.6273 102.174 93.6957 102.106C94.0442 101.76 94.6301 101.292 94.8365 100.828C94.9407 100.594 95.0426 100.772 95.0333 100.945C95.0154 101.281 94.9655 101.617 94.8912 101.944C94.8479 102.134 94.7429 102.377 94.7782 102.579C94.7991 102.698 95.1394 102.3 95.1536 102.284C95.438 101.97 95.7541 101.719 96.0685 101.441C96.5039 101.055 96.6406 100.897 96.8083 101.535" stroke="#A96901" stroke-linecap="round"/>
<path d="M81.5879 94.9333C82.1121 95.6991 82.6691 96.4637 83.2645 97.1717C83.4757 97.4229 83.5595 97.4525 83.556 97.0961C83.5484 96.3131 83.3176 95.5561 83.1916 94.7897C83.0784 94.1015 83.0343 93.4087 82.951 92.7177C82.9361 92.5939 82.8929 92.473 82.9 92.3471C82.9157 92.0698 83.2473 92.7753 83.3738 93.0201C83.9666 94.1679 84.5661 95.3104 85.167 96.4533C85.1923 96.5015 85.2682 96.7306 85.3201 96.7709C85.3759 96.8143 85.3097 96.6261 85.2946 96.5554C85.2096 96.1587 85.1125 95.8176 85.003 95.4173C84.6783 94.23 84.2277 93.018 84.0262 91.7989C83.969 91.4529 84.4709 92.329 84.6713 92.6118C85.6534 93.997 86.6091 95.4008 87.2263 97.0016C87.43 97.5299 87.1628 95.8643 87.0914 95.3001C86.9964 94.5481 86.8486 93.8186 86.7124 93.0769C86.5486 92.1851 87.2953 94.8196 87.8204 95.5459" stroke="#A96901" stroke-linecap="round"/>
<path d="M74.1074 85.6776C75.1037 84.6586 76.1442 83.679 77.22 82.7511C77.2722 82.706 77.7199 82.25 77.8469 82.2747C78.2437 82.3518 76.978 86.4897 76.8446 86.9367C76.7464 87.2659 76.8237 87.1964 77.0013 86.9631C77.6953 86.0518 78.2285 84.9628 78.6633 83.8967C78.6867 83.8395 79.0937 82.3708 79.2246 82.4108C79.5214 82.5013 79.4139 84.2734 79.4178 84.5206C79.4268 85.0972 79.3867 85.6841 79.4214 86.2599C79.4303 86.4078 79.5039 86.2661 79.5344 86.2069C79.7605 85.7684 79.9099 85.2782 80.0811 84.8155C80.452 83.8137 80.7602 82.789 81.0871 81.7718C81.0967 81.742 81.1688 81.3554 81.1782 81.3672C81.4044 81.654 81.3277 82.5921 81.3604 82.9288C81.4477 83.8254 81.5753 84.7238 81.7176 85.6095" stroke="#A96901" stroke-linecap="round"/>
<path d="M77.7155 92.9596C77.6913 92.8862 77.1566 91.596 77.2053 91.5455C77.3354 91.4106 78.3089 92.0298 78.4955 92.1051C78.8313 92.2406 78.7678 92.1557 78.6996 91.7195C78.6337 91.298 78.5196 90.8895 78.4372 90.4717C78.4184 90.3763 78.2904 90.0311 78.3169 89.9348C78.3444 89.8349 79.2337 90.6343 79.301 90.6986C79.3778 90.772 79.9315 91.2142 79.9315 91.3451C79.9315 91.4329 79.8309 91.2039 79.7857 91.1296C79.6057 90.8334 79.4148 90.5478 79.2172 90.2638C78.8724 89.7681 78.521 89.2786 78.2404 88.74C78.2236 88.7079 78.0798 88.564 78.1529 88.551C78.5306 88.4834 79.1154 88.9594 79.4468 89.1068C79.6835 89.212 80.2743 89.3528 80.4053 89.6248" stroke="#A96901" stroke-linecap="round"/>
<path d="M66.999 42.9521C67.6843 46.5712 68.3599 50.3043 69.4145 53.8298C70.2254 56.5404 71.6253 59.013 72.8841 61.5182C73.378 62.5012 74.6738 63.5115 75.6949 63.8646" stroke="#A96901" stroke-linecap="round"/>
<path d="M50.9883 104.664C56.925 104.591 63.1516 103.702 68.7094 101.395C69.4437 101.091 70.2952 100.903 70.9492 100.564" stroke="#A96901" stroke-linecap="round"/>
<path d="M95.4554 122.501C95.495 117.983 95.9222 113.45 95.2578 108.969" stroke="#A96901" stroke-linecap="round"/>
<path d="M97.04 95.6436C99.2577 97.0052 101.832 98.3573 103.386 100.564C104.746 102.494 105.167 105.28 105.78 107.535C106.144 108.875 106.724 110.045 106.724 111.43" stroke="#A96901" stroke-linecap="round"/>
<path d="M108.699 78.0108C115.861 71.7073 125.05 68.3893 133.996 65.9144" stroke="#A96901" stroke-linecap="round"/>
<path d="M98.0273 64.4798C98.0748 58.1804 98.3521 51.8984 99.279 45.6632C100.515 37.3501 102.756 29.287 104.374 21.0604C104.596 19.9294 104.674 18.9112 105.142 17.9395" stroke="#A96901" stroke-linecap="round"/>
<path d="M92.4921 16.5037C90.9071 24.5754 89.33 32.5651 89.33 40.8331C89.33 41.4935 88.7771 45.8428 89.5276 46.2321" stroke="#A96901" stroke-linecap="round"/>
<path d="M101.584 61.6088C106.731 52.3484 112.416 43.0415 119.261 35.0241C119.721 34.4859 120.531 33.6 120.754 32.9055" stroke="#A96901" stroke-linecap="round"/>
<path d="M113.243 67.5543C117.239 62.9798 121.128 57.3801 126.726 54.729C127.102 54.5509 127.658 54.2278 128.066 54.2278" stroke="#A96901" stroke-linecap="round"/>
<path d="M138.936 29.2151C138.1 32.4818 135.787 35.1681 134.818 38.3842C134.641 38.974 134.192 39.4643 134.192 40.0813" stroke="#A96901" stroke-linecap="round"/>
<path d="M134.984 40.6968C138.145 38.7474 141.275 36.8299 144.108 34.3866C145.024 33.5972 145.846 32.6448 146.853 31.9833C147.549 31.5263 148.603 31.1369 148.819 30.2406" stroke="#A96901" stroke-linecap="round"/>
<path d="M143.483 39.6716C146.849 38.5268 150.203 37.2114 153.365 35.5712" stroke="#A96901" stroke-linecap="round"/>
<path d="M151.783 42.5418C153.427 41.9279 154.894 41.0559 156.526 40.4916" stroke="#A96901" stroke-linecap="round"/>
<path d="M123.127 91.9526C124.86 92.8316 126.535 93.5434 128.408 94.037C132.508 95.1172 136.547 96.4072 140.705 97.2377C143.74 97.8438 146.895 98.5731 150.005 98.5134C152.113 98.4729 154.209 98.1033 156.329 98.1033" stroke="#A96901" stroke-linecap="round"/>
<path d="M139.728 89.492C146.59 89.492 153.641 89.8687 160.084 87.1342C160.841 86.8131 162.281 86.3683 162.653 85.5966" stroke="#A96901" stroke-linecap="round"/>
<path d="M113.641 114.915C120.273 123.638 128.17 131.017 137.752 135.987C138.68 136.469 140.838 137.515 141.309 138.493" stroke="#A96901" stroke-linecap="round"/>
<path d="M95.0614 134.187C94.9495 136.742 94.4212 139.256 94.0842 141.785C93.5975 145.437 93.4338 149.128 92.9314 152.776C92.5774 155.347 92.4922 157.796 92.4922 160.396C92.4922 162.622 92.8875 164.779 92.8875 166.991" stroke="#A96901" stroke-linecap="round"/>
<path d="M104.744 135.008C104.815 137.782 105.284 140.735 105.93 143.414" stroke="#A96901" stroke-linecap="round"/>
<path d="M108.699 131.317C109.812 135.198 111.139 139.032 112.652 142.765C114.316 146.869 116.59 150.562 118.724 154.405C119.42 155.66 120.952 157.445 120.952 158.996" stroke="#A96901" stroke-linecap="round"/>
<path d="M46.8408 151.614C52.4958 149.11 58.0744 145.544 63.0028 141.751C65.8104 139.589 67.8534 137.077 69.8541 134.187C70.5717 133.151 71.55 131.916 71.9402 130.702" stroke="#A96901" stroke-linecap="round"/>
<path d="M44.0723 139.313C49.9951 136.67 55.7289 133.728 61.3981 130.543C63.3343 129.455 65.3033 127.96 67.371 127.126C68.1813 126.799 67.9555 125.9 68.5788 125.577" stroke="#A96901" stroke-linecap="round"/>
<path d="M14.2295 111.225C17.3404 111.225 20.4513 111.225 23.5622 111.225C26.5346 111.225 29.6012 111.453 32.5654 111.179C33.757 111.07 34.6424 110.587 35.7276 110.154C36.5086 109.843 37.1794 109.003 37.9455 108.605C38.3264 108.408 38.7834 108.207 38.9336 107.74" stroke="#A96901" stroke-linecap="round"/>
<path d="M22.9268 78.8311C29.035 79.8392 34.8511 81.7894 40.7796 83.5466C41.2327 83.6809 41.7019 83.6253 41.7019 84.1617" stroke="#A96901" stroke-linecap="round"/>
<path d="M32.2148 45.0016C35.0524 46.158 37.9735 47.0802 40.1531 49.3413C40.8748 50.0899 43.0847 51.9751 43.0847 53.2025" stroke="#A96901" stroke-linecap="round"/>
<path d="M43.6777 33.726C45.2139 35.6314 47.6714 37.919 48.0257 40.4917" stroke="#A96901" stroke-linecap="round"/>
<path d="M61.8615 21.8342C61.8615 24.5499 61.6429 27.4772 62.158 30.1491C62.3742 31.2705 62.9166 32.0887 63.245 33.1105" stroke="#A96901" stroke-linecap="round"/>
<path d="M4.02051 98.2549C13.7681 99.9834 21.8181 102.023 30.8985 98.2549" stroke="#FDCB00" stroke-linecap="round"/>
<path d="M11.1191 107.199C18.7313 108.703 26.9558 109.035 34.7007 108.748C36.7511 108.672 38.4768 107.725 40.5328 107.725" stroke="#FDCB00" stroke-linecap="round"/>
<path d="M36.9854 141.394C41.7537 138.097 46.5266 135.477 51.7485 133.035C54.6102 131.697 58.0537 129.843 60.257 127.453C62.2078 125.337 63.9546 122.886 65.8918 120.877" stroke="#FDCB00" stroke-linecap="round"/>
<path d="M42.5635 150.338C50.1896 144.491 59.3804 139.257 65.2717 131.399C66.0037 130.423 66.9329 129.451 67.92 128.768" stroke="#FDCB00" stroke-linecap="round"/>
<path d="M48.1416 98.781C53.9558 98.781 60.371 98.2549 65.8912 98.2549" stroke="#FDCB00" stroke-linecap="round"/>
<path d="M69.3984 109.982L78.5513 104.991" stroke="#FDCB00" stroke-linecap="round"/>
<path d="M89.4629 112.904C91.5609 116.797 93.3157 120.842 94.3001 125.199C94.3754 125.532 94.3913 125.836 94.3913 126.173" stroke="#FDCB00" stroke-linecap="round"/>
<path d="M99.79 98.0522C101.136 99.6857 102.492 101.281 103.539 103.151C104.745 105.309 105.439 107.631 106.101 110.009C106.593 111.777 106.948 113.611 106.948 115.46" stroke="#FDCB00" stroke-linecap="round"/>
<path d="M51.4785 52.7814C52.8572 58.8983 53.8162 65.5106 55.9137 71.4414C56.3051 72.548 56.9909 73.6739 57.6523 74.6224C58.7069 76.1348 59.7864 77.6404 60.8965 79.1098C61.7502 80.2397 63.8699 80.6099 64.2914 81.9216" stroke="#FDCB00" stroke-linecap="round"/>
<path d="M69.7119 36.6787C70.1254 44.442 70.1664 52.9734 74.0924 59.8262C74.9696 61.3574 76.1387 62.6974 77.104 64.1717C77.4323 64.6732 77.907 64.9952 78.0896 65.5633" stroke="#FDCB00" stroke-linecap="round"/>
<path d="M85.7285 12.6501C86.8048 18.0405 88.6853 23.735 88.6853 29.2652" stroke="#FDCB00" stroke-linecap="round"/>
<path d="M93.3652 9.32703C93.5021 12.7342 94.122 16.0994 94.3098 19.5091C94.8074 28.5432 94.4711 37.6138 94.1181 46.647C94.0579 48.187 93.858 49.7086 93.858 51.2481C93.858 52.7228 93.6116 54.1019 93.6116 55.5936" stroke="#FDCB00" stroke-linecap="round"/>
<path d="M100.02 12.3948C101.021 19.0997 102.137 25.7069 102.429 32.5032C102.659 37.8621 102.471 43.2612 102.114 48.6071C101.901 51.8 101.743 55.5981 100.759 58.6613" stroke="#FDCB00" stroke-linecap="round"/>
<path d="M105.934 6.00378C107.242 10.0034 107.575 14.3797 108.206 18.529C108.981 23.6315 109.341 28.6398 109.753 33.7665C110.125 38.4013 109.787 43.1906 109 47.7544C108.272 51.9745 107.313 55.8937 105.838 59.8962C105.485 60.8527 105.194 61.4739 105.194 62.495" stroke="#FDCB00" stroke-linecap="round"/>
<path d="M116.282 15.9734C118.226 21.8318 119.634 29.0768 118.486 35.3292C118.063 37.634 117.408 39.8373 116.926 42.1172C116.763 42.8834 116.696 43.4479 116.282 44.0912" stroke="#FDCB00" stroke-linecap="round"/>
<path d="M111.598 72.4643C115.115 65.4091 120.356 59.095 127.614 56.1617C129.864 55.2521 132.312 54.9733 134.513 54.0599" stroke="#FDCB00" stroke-linecap="round"/>
<path d="M118.005 87.5453C121.58 84.4818 125.241 81.6733 129.339 79.394C131.153 78.3856 133.028 77.2353 135.034 76.6959C136.343 76.3437 137.96 75.7886 139.195 75.219C140.54 74.5989 141.709 73.9539 143.138 73.7421" stroke="#FDCB00" stroke-linecap="round"/>
<path d="M113.817 116.686C114.865 119.221 116.329 121.308 117.924 123.531C121.834 128.981 125.907 134.422 130.408 139.365C132.1 141.222 134.715 144.318 137.226 145.201C138.404 145.616 139.724 145.157 140.922 145.571" stroke="#FDCB00" stroke-linecap="round"/>
<path d="M121.208 113.108C129.619 121.833 138.823 129.901 149.928 134.693C151.813 135.506 153.796 135.964 155.704 136.624" stroke="#FDCB00" stroke-linecap="round"/>
<path d="M125.15 95.4701C135.982 99.162 146.807 102.765 158.223 103.763C159.797 103.901 161.083 103.843 162.562 103.281C163.099 103.076 163.508 102.883 164.082 102.883" stroke="#FDCB00" stroke-linecap="round"/>
<path d="M135.748 92.9134C141.901 91.0255 148.484 90.4974 154.776 89.2353C157.526 88.6837 160.205 88.0871 162.168 85.8981C163.023 84.9444 164.423 83.6783 164.823 82.4331" stroke="#FDCB00" stroke-linecap="round"/>
<path d="M130.573 19.8074C131.309 24.5717 131.805 29.0641 131.805 33.8805C131.805 34.9834 131.805 36.0863 131.805 37.1893" stroke="#FDCB00" stroke-linecap="round"/>
<path d="M148.558 24.9198C144.743 30.4246 139.662 34.7687 134.774 39.2059C134.116 39.8027 133.057 40.3735 132.296 40.768" stroke="#FDCB00" stroke-linecap="round"/>
<path d="M146.342 40.0013C146.686 39.9816 156.937 38.8656 156.937 40.2569" stroke="#FDCB00" stroke-linecap="round"/>
<path d="M151.026 44.602C153.344 44.602 156.017 44.1838 158.309 44.6162C159.153 44.7754 159.916 45.1429 160.39 45.8801" stroke="#FDCB00" stroke-linecap="round"/>
<path d="M74.6392 16.7404C74.6392 19.52 74.1487 22.9295 74.6939 25.6869C74.8546 26.4994 75.1688 28.9013 75.8712 29.2655" stroke="#FDCB00" stroke-linecap="round"/>
<path d="M45.0713 29.7761C45.9684 32.6197 46.5147 35.159 48.4662 37.4446C49.5084 38.6654 50.6689 39.8803 51.4777 41.2789" stroke="#FDCB00" stroke-linecap="round"/>
<path d="M37.6777 32.0769C38.4147 34.6765 40.0917 37.0059 41.3738 39.3478C42.1759 40.813 43.4863 42.1119 44.1937 43.5796C44.6821 44.5929 45.8798 45.0551 46.7946 45.6246" stroke="#FDCB00" stroke-linecap="round"/>
<path d="M26.8379 39.7456C30.1753 45.3877 34.3201 50.7583 40.3489 53.3643C41.7624 53.9752 43.9409 55.3382 45.5644 55.3382" stroke="#FDCB00" stroke-linecap="round"/>
<path d="M11.3145 86.0117C18.2057 86.0117 24.9762 85.704 31.8479 85.1881C33.6104 85.0558 35.4628 84.2224 37.1866 84.2224" stroke="#FDCB00" stroke-linecap="round"/>
<path d="M102.728 134.068C102.728 137.89 102.176 142.136 103.413 145.798C103.843 147.072 104.702 148.397 104.946 149.661" stroke="#FDCB00" stroke-linecap="round"/>
<path d="M108.395 133.046C111.264 139.412 114.042 145.812 116.8 152.231C117.668 154.253 118.469 156.31 119.62 158.181C119.961 158.738 120.445 160.385 120.961 160.652" stroke="#FDCB00" stroke-linecap="round"/>
<path d="M113.324 129.211C114.058 131.163 115.109 132.949 116.035 134.806C118.053 138.854 119.903 142.986 121.839 147.076C123.322 150.209 125.099 153.172 126.575 156.306C127.27 157.782 127.67 159.487 128.355 160.907" stroke="#FDCB00" stroke-linecap="round"/>
<path d="M48.0264 83.7115C49.1222 86.7903 51.629 89.0629 54.0769 91.0392C56.1703 92.7293 58.092 93.6806 60.7298 93.6806C61.3941 93.6806 64.2109 93.8425 64.5353 93.1693" stroke="#FED501" stroke-linecap="round"/>
<path d="M50.5381 63.6558C52.7781 69.2244 54.8875 74.9055 57.4406 80.3343C57.89 81.2899 58.2716 81.9077 58.9086 82.6591C59.1878 82.9883 59.5145 83.4319 59.9237 83.5987C60.3509 83.7728 60.7883 83.9193 61.2198 84.0685" stroke="#FED501" stroke-linecap="round"/>
<path d="M57.9879 47.6171C57.9879 51.669 57.7219 55.9471 58.8312 59.8809C59.4561 62.0968 60.3658 64.1238 61.2518 66.2072C61.9745 67.9067 62.995 69.7037 64.1565 71.1403C64.5193 71.5891 64.8999 72.5563 65.437 72.6956" stroke="#FED501" stroke-linecap="round"/>
<path d="M76.6807 39.4521C77.7261 46.3209 78.1856 53.4011 80.0851 60.0917C80.57 61.7998 81.2808 63.4443 82.1621 64.9681" stroke="#FED501" stroke-linecap="round"/>
<path d="M53.499 44.066L62.9179 69.6213" stroke="#FDEC00" stroke-linecap="round"/>
<path d="M61.709 43.064C61.7726 49.8614 62.9603 57.127 65.8012 63.3161C66.38 64.577 66.8248 66.5619 67.9883 67.3665" stroke="#FDEC00" stroke-linecap="round"/>
<path d="M69.4386 38.8044C69.1798 44.575 68.0184 50.2291 67.9895 56.0362C67.9735 59.2615 68.7294 61.6897 69.9484 64.6659C70.8131 66.7771 71.8532 68.8686 72.8197 70.8738" stroke="#FDEC00" stroke-linecap="round"/>
<path d="M76.2009 36.0487C75.109 41.0203 75.2349 46.12 75.2349 51.1926C75.2349 54.3334 75.3135 57.2485 76.3351 60.226C76.7831 61.5316 77.8915 63.4205 77.8915 64.861" stroke="#FDEC00" stroke-linecap="round"/>
<path d="M50.3613 64.1097C52.3822 68.5703 55.0693 72.2846 58.1165 76.0522C59.2094 77.4036 60.3589 78.7551 61.7123 79.8382C62.4049 80.3924 63.2798 81.1466 64.1274 81.1466" stroke="#FDEC00" stroke-linecap="round"/>
<path d="M45.5312 88.4125C48.6027 88.4125 51.8035 88.6724 54.8428 88.1341C56.2876 87.8782 57.6935 87.3056 59.1095 86.9092C59.9758 86.6667 61.2146 86.669 61.954 86.1576" stroke="#FDEC00" stroke-linecap="round"/>
<path d="M51.5654 106.953C54.9397 106.751 58.0054 105.015 60.6087 102.861C62.1101 101.618 63.8809 100.071 64.5533 98.1282C64.9786 96.8992 65.573 95.7326 65.573 94.4258" stroke="#FDEC00" stroke-linecap="round"/>
<path d="M65.0928 113.467C67.9161 110.956 69.8996 106.639 71.5599 103.194C72.3314 101.594 72.9022 100.215 73.7872 98.6846" stroke="#FDEC00" stroke-linecap="round"/>
<path d="M76.1992 115.972C77.229 114.41 78.0711 112.087 78.3728 110.209" stroke="#FDEC00" stroke-linecap="round"/>
<path d="M87.5537 109.458C89.5884 113.971 93.1085 117.293 93.1085 122.487" stroke="#FDEC00" stroke-linecap="round"/>
<path d="M93.5879 110.209C95.7302 115.103 98.6596 120.672 98.6596 126.244" stroke="#FDEC00" stroke-linecap="round"/>
<path d="M100.33 98.1321C100.41 100.243 101.389 102.155 102.131 104.181C103.286 107.337 104.338 110.585 104.833 113.835C104.965 114.701 105.098 115.528 105.098 116.396" stroke="#FDEC00" stroke-linecap="round"/>
<path d="M114.6 81.8977C123.621 77.1039 133.993 72.5583 144.265 72.1404C144.559 72.1285 146.046 71.8502 145.513 72.1265" stroke="#FDEC00" stroke-linecap="round"/>
<path d="M113.635 70.8743C118.377 65.7641 123.617 61.3894 129.574 57.8461C135.817 54.1336 143.04 50.8352 150.264 49.8984C150.75 49.8354 152.031 50.0882 152.276 49.5782" stroke="#FDEC00" stroke-linecap="round"/>
<path d="M109.047 62.8567C116.309 55.137 125.286 49.1736 134.701 44.7342C135.254 44.473 135.962 44.066 136.579 44.066" stroke="#FDEC00" stroke-linecap="round"/>
<path d="M105.905 54.589C105.985 43.6724 106.134 31.2569 111.38 21.4618C111.794 20.6874 112.467 18.8308 113.392 18.511" stroke="#FDEC00" stroke-linecap="round"/>
<path d="M105.666 56.594C106.986 51.5386 108.83 46.7912 111.288 42.2017C113.528 38.0186 116.1 33.0321 119.472 29.6468C119.929 29.1884 120.362 28.6418 120.881 28.2827" stroke="#FDEC00" stroke-linecap="round"/>
<path d="M98.9019 58.0969C98.7253 55.9441 97.7685 53.8641 97.3991 51.722C96.6882 47.5985 96.6342 43.5596 97.2381 39.4176C97.7562 35.8642 99.0188 32.5084 99.5727 28.9784C99.9323 26.6871 100.089 24.3712 100.445 22.0745C100.636 20.8427 100.906 19.7738 101.183 18.5948C101.309 18.0559 101.757 15.7774 102.283 15.5048" stroke="#FDEC00" stroke-linecap="round"/>
<path d="M83.6865 24.5244C85.76 18.5494 88.5307 12.9861 92.0321 7.77982C92.3096 7.36716 92.6861 6.70287 93.1054 6.48535" stroke="#FDEC00" stroke-linecap="round"/>
<path d="M95.041 32.0409C95.041 26.0324 96.4735 20.1558 99.3882 14.9483C99.6964 14.3978 100.277 13.0398 100.837 12.7491" stroke="#FDEC00" stroke-linecap="round"/>
<path d="M118.669 93.1976L159.943 91.4711" stroke="#FDEC00" stroke-linecap="round"/>
<path d="M121.997 100.449C132.323 100.449 142.626 100.366 152.953 100.449C155.315 100.469 158.497 100.76 160.442 102.329C161.405 103.106 162.569 103.73 163.604 104.42C164.351 104.918 165.756 105.974 166.6 105.974" stroke="#FDEC00" stroke-linecap="round"/>
<path d="M126.988 104.248C135.153 106.16 142.997 109.252 151.25 110.809C152.667 111.076 154.753 111.364 155.947 112.19" stroke="#FDEC00" stroke-linecap="round"/>
<path d="M113.675 120.132C121.678 122.81 130.03 124.061 138.029 126.827C141.001 127.855 143.393 129.344 146.11 130.836C146.868 131.253 147.985 132.271 148.292 132.908" stroke="#FDEC00" stroke-linecap="round"/>
<path d="M112.011 124.621C119.371 127.902 127.062 131.229 133.462 136.323C135.983 138.329 139.224 140.576 140.969 143.382C141.704 144.563 143.563 145.813 143.965 147.066" stroke="#FDEC00" stroke-linecap="round"/>
<path d="M104.689 131.181C102.942 139.538 102.76 148.959 99.493 156.868C98.3729 159.58 96.3963 162.14 95.7021 165.021" stroke="#FDEC00" stroke-linecap="round"/>
<path d="M93.7021 136.361C90.2886 141.264 88.1599 147.115 85.5101 152.475C84.077 155.374 82.6429 158.27 81.2384 161.184C80.6223 162.463 79.5472 163.876 78.3906 164.676" stroke="#FDEC00" stroke-linecap="round"/>
<path d="M72.0691 135.325C67.8372 141.332 63.4321 147.738 58.4219 152.935" stroke="#FDEC00" stroke-linecap="round"/>
<path d="M36.7842 130.491C44.9768 130.491 53.6384 130.391 61.6376 128.439C62.9984 128.106 64.7062 128.06 66.0017 127.537C66.471 127.348 66.3367 126.903 66.7414 126.693" stroke="#FDEC00" stroke-linecap="round"/>
<path d="M15.8154 84.22C20.9388 86.3459 26.6005 89.3996 32.2734 89.3996C33.4056 89.3996 34.3636 89.462 35.4541 89.7449" stroke="#FDEC00" stroke-linecap="round"/>
<path d="M22.8057 77.3134C30.4434 80.8349 37.9751 84.5648 46.4386 84.5648" stroke="#FDEC00" stroke-linecap="round"/>
<path d="M27.7979 38.9844C30.1842 45.7316 31.8272 54.5011 36.5631 60.0864C38.587 62.4733 40.9696 64.3891 43.1093 66.6088" stroke="#FDEC00" stroke-linecap="round"/>
<path d="M41.4465 60.0487C41.3416 58.4167 40.6821 57.0883 40.3185 55.5213C39.7757 53.1825 39.7822 50.7364 39.7822 48.3466C39.7822 45.6418 39.7822 42.9369 39.7822 40.232C39.7822 38.1021 40.7808 36.2206 40.7808 34.1508" stroke="#FDEC00" stroke-linecap="round"/>
<path d="M43.1094 41.747C43.9761 39.0924 44.8801 36.4536 45.8647 33.8433C46.2888 32.7189 46.6191 31.2383 47.4735 30.3519C48.4508 29.3381 49.2783 28.3798 50.0994 27.2441" stroke="#FDEC00" stroke-linecap="round"/>
<path d="M68.0732 23.7916C71.0188 19.7557 74.3195 15.9305 77.7261 12.3965" stroke="#FDEC00" stroke-linecap="round"/>
</svg>
