<svg width="58" height="55" viewBox="0 0 58 55" fill="none" xmlns="http://www.w3.org/2000/svg">
<path d="M16.375 24.1487L6.75 21.9766" stroke="black"/>
<path d="M40.375 6.21315L43 4.97192V7.45437H44.625L45 8.44734L45.6875 8.88177C46.6875 7.61986 48.75 5.56771 49 7.45437C49.25 9.34102 48.8125 9.93681 48.5625 9.99887L50.4375 9.56444C50.6875 9.08864 51.1625 8.68318 51.0625 10.8677C50.9625 13.0523 52.1042 13.557 52.6875 13.5364L53.3125 15.2741L52.6875 16.4532L50.4375 19.308" stroke="black"/>
<path d="M17.25 10.6195V14.4052L15.5 15.1499L16.5 16.4532L15.5 17.26L16 18.5633L15.5 19.6183L16 20.6113L16.5 23.5282L17.25 25.5141H15.5L14.75 26.5692L12.5625 29.486L14.75 31.1617L16 32.527L17.25 34.8233H19.5L21.9375 32.9615L19.5 35.4439L21.9375 34.8233L24.5 33.458L23.25 34.8233L23.5 35.8163L24.5 36.3748L27.4375 35.4439L28.25 34.2647L27.4375 37.2437L28.8125 39.2917L32.3125 39.7882L34.25 37.2437V36.3748L36 34.8233L35.5625 34.2647L36.875 32.527L36.5 30.9755V28.7413L35.5625 27.9345L45.375 26.5692L48.4375 24.5212L49.9375 22.4111L50.375 20.6113V19.6183L49.5625 18.8115V17.7565H48.4375L49.5625 16.4532L48.4375 15.5844V14.4052L47.5 13.4743L45.375 12.9157H42.5625L40 14.4052M40 14.4052L36.875 16.4532L34.25 21.1078M40 14.4052C40.8333 13.6811 42.35 11.6621 41.75 9.37825C41.15 7.0944 39.5417 5.15809 38.8125 4.47542L36.875 3.29626H36L34.25 1L32.3125 2.55153L31.6875 1L28.25 2.55153L27.4375 3.29626H25.5625V3.85481H24L23.25 5.53046L20.625 3.29626L19.9375 4.47542V6.21313H18.4375V6.64756H17.75L18.4375 8.07496L15.0625 7.7026L13.125 9.37825H11.9375L11.0625 12.3572L6.75002 10.6195L8.18752 14.4052L5.68752 15.1499C5.87502 15.5844 6.13752 16.4532 5.68752 16.4532C5.23752 16.4532 6.20836 20.0941 6.75002 21.9146L2.625 25.5141L3.375 26.5692L2.625 27.9345" stroke="black"/>
<path d="M2.75 27.8723L3.25 28.555L1 30.1065V30.6651L4.0625 31.9683L2.75 34.3887L4.0625 34.8232L5.0625 37.4918C4.875 37.8228 5 38.4848 7 38.4848C9 38.4848 10.875 38.1124 11.5625 37.9262" stroke="black"/>
<path d="M11.8125 37.8641L10.625 40.0362L10 42.6428L9.5625 44.6908L10.625 45.1873V45.932H12.875L11.8125 48.7248L15.25 47.918V48.7248H16.125L16.625 50.2143C16.6875 50.7107 17.3875 51.4058 19.6875 50.2143C20.8649 49.6043 22.0488 48.7406 23.0414 47.918M27.375 38.733L26.625 41.2775L25.1875 45.932C24.7604 46.3864 23.9879 47.1336 23.0414 47.918M23.0414 47.918L24 51.0831L25.1875 51.8899L25.5625 51.3934V51.8899H26.625L29.0625 54L31.0625 51.3934L31.8125 51.8899L32.6875 51.3934L33.375 51.8899C33.0417 51.0831 32.575 49.1592 33.375 47.918C34.175 46.6768 35.3333 48.5179 35.8125 49.5936L37.625 50.2143L39.875 51.0831L40.9375 50.2143L41.6875 49.5936L42.5625 50.2143L41.6875 47.918L40.375 45.932L39.875 42.6428L45.375 47.918L46.6875 46.4906L49.0625 45.932L49.5 43.7599C50.0208 44.2564 50.9625 44.7281 50.5625 42.6428C50.1625 40.5575 51.1875 39.1674 51.75 38.733L52.6875 37.8641L54.125 37.1814V35.3817L57 33.3336L54.125 31.2856C55.0208 31.0994 56.6875 30.5781 56.1875 29.9823C55.6875 29.3866 55.5208 27.4999 55.5 26.631M55.5 26.631L49.5 22.7212L53.375 24.0245L55.5 26.631Z" stroke="black"/>
<path d="M17.375 10.4334C17.5625 11.6126 18.325 13.4992 19.875 11.6126C21.425 9.72592 22.9792 10.0404 23.5625 10.4334L25.0312 9.96795M26.5 9.50249L27.875 10.4334L28.4375 12.4194M26.5 9.50249C26.9583 9.8128 27.9875 10.8306 28.4375 12.4194M26.5 9.50249L25.0312 9.96795M28.4375 12.4194L29 14.9018V18.0669M25.0312 9.96795L26.0625 5.90295L25.4375 3.91699" stroke="black"/>
<path d="M23.375 23.7764C24.575 23.3792 24.7083 22.4524 24.625 22.0386M23.375 23.7764C22.7389 23.9869 22.5079 23.9277 22.4716 23.7764M23.375 23.7764L23.9375 24.8934L22.6875 25.5141H21.8125V24.8934L22.4716 23.7764M24.625 22.0386H23.375L22.6875 23.2799C22.5602 23.4354 22.4394 23.6421 22.4716 23.7764M24.625 22.0386L25.1875 23.2799H26.8125L27.625 23.7764H29.0625M27.625 22.0386H29.0625M27.625 22.0386V20.7974L29.0625 20.1147L29.75 20.7974M27.625 22.0386L26.8125 21.356H26.1875M29.0625 22.0386L29.75 20.7974M29.0625 22.0386V23.7764M29.75 20.7974L31.125 22.0386L31.4432 23.3365M29.0625 23.7764V24.8934L30.6875 25.5141L31.75 24.8934V23.2799L31.4432 23.3365M29.0625 23.7764L31.4432 23.3365" stroke="black"/>
<path d="M27.875 30.4789L27.0312 30.0445M26.625 27.5L27.875 28.1206M26.625 27.5L26.4062 28.555M26.625 27.5L25 26.7553M26.625 27.5L27.0312 25.2037M27.875 28.1206L28.3125 28.8653M27.875 28.1206L28.2031 25.8942M28.5312 30.9754L28.75 30.4789V29.6101L28.3125 28.8653M28.5312 30.9754L30 31.99M28.5312 30.9754L28.2031 31.7201M28.3125 28.8653H30M30 28.8653L30.6875 29.6101L31.5625 31.4719L30 31.99M30 28.8653V26.7553M30 31.99L30.6875 32.4649L29.1875 33.4579L27.875 32.4649L28.2031 31.7201M25.6875 30.9754L26.625 32.9614H27.875L28.2031 31.7201M25.6875 30.9754L27.0312 30.0445M25.6875 30.9754L24.0625 29.6101L25 28.8653M27.0312 30.0445L26.1875 29.6101L26.4062 28.555M25 28.8653L26.4062 28.555M25 28.8653V26.7553M25 28.8653L23.625 30.0445L21.9375 28.8653L25 26.3208M25 26.7553L23.0625 27.5M25 25.2037H23.625H22.625L23.0625 26.7553L25 25.2037ZM25 25.2037L25.6875 24.6452M27.0312 25.2037L25.6875 24.6452M27.0312 25.2037L25.6875 23.2798V24.6452M27.0312 25.2037L27.875 23.9625M27.0312 25.2037L28.25 25.5761M28.25 25.5761L29.1875 25.2037M28.25 25.5761L28.2031 25.8942M30 26.7553L28.2031 25.8942M30 26.7553H31.5625M31.5625 26.7553L30.6875 25.5761M31.5625 26.7553L31.7908 27.5M32.4375 29.6101L31.0625 29.4239M32.4375 29.6101H33.875L34.9375 28.1206M32.4375 29.6101L31.7908 27.5M34.9375 28.1206L33.875 26.7553M34.9375 28.1206V27.5L35.625 26.7553L33.875 24.6452L33.5 22.5972L31.7908 23.2798V24.6452L33.875 25.2037V26.7553M33.875 26.7553L31.7908 27.5" stroke="black"/>
<path d="M31.125 21.9146L33.5 22.5972" stroke="black"/>
<path d="M26.75 23.3419L27.5625 22.0386L26 21.356L24.5 22.0386" stroke="black"/>
<path d="M11.75 38.4229L18.875 34.8854" stroke="black"/>
<path d="M40.0625 43.1396L34.3125 36.5612" stroke="black"/>
<path d="M52.875 38.0504L44.5 35.3197L36.625 31.2858" stroke="black"/>
<path d="M27.875 21.1304C27.875 21.2885 27.9453 22.2874 27.9543 22.247C28.0414 21.8581 27.959 21.3813 27.959 20.9821C27.959 20.875 27.9488 20.4534 28.085 20.7689C28.1347 20.8842 28.1862 21.2418 28.3323 21.2833C28.3857 21.2984 28.408 20.9356 28.421 20.8894C28.5532 20.4168 28.6626 20.8432 28.7149 21.1674C28.7916 21.6421 28.7838 22.1228 28.8409 22.5992C28.8837 22.9563 28.8829 22.8664 28.8829 22.5853C28.8829 22.3638 28.9074 21.7448 29.0696 21.5659C29.1227 21.5073 29.2409 21.5921 29.2842 21.5103C29.3784 21.3326 29.4061 21.0732 29.4709 20.8801" stroke="#FFC902" stroke-linecap="round"/>
<path d="M24.9355 21.6306C25.0477 22.0482 25.0188 22.5844 25.3368 22.9002C25.5294 23.0914 25.3555 22.3597 25.3555 22.0893C25.3555 22.0148 25.8022 22.6652 25.9248 22.8817C25.947 22.9208 25.8658 22.1994 25.8595 22.0291C25.8416 21.5498 25.9358 21.9424 26.1161 22.1774C26.1354 22.2025 26.7313 22.9583 26.7694 22.8261C26.8177 22.6582 26.5957 22.1556 26.5314 21.9642" stroke="#FFC902" stroke-linecap="round"/>
<path d="M27.3301 22.9214C27.4638 23.0635 27.5515 23.2357 27.6357 23.41C27.6533 23.4463 27.6568 23.4957 27.6589 23.4293C27.6664 23.1895 27.7424 22.9517 27.7806 22.7159C27.8148 22.5054 27.849 22.2926 27.8756 22.0811C27.8791 22.0539 27.873 21.9953 27.9024 21.9771C27.9853 21.9256 28.2154 22.8985 28.2385 22.9988C28.2618 23.0999 28.2827 23.2222 28.3213 23.3181C28.3481 23.3846 28.3739 23.5549 28.4248 23.4075C28.4571 23.3142 28.4451 23.2139 28.4577 23.1173C28.4746 22.9882 28.4918 22.8658 28.4918 22.7352C28.4918 22.6699 28.4659 22.5905 28.5356 22.5732" stroke="#FFC902" stroke-linecap="round"/>
<path d="M29.2803 23.3134C29.4922 23.3134 29.704 23.3134 29.9159 23.3134C30.0546 23.3134 29.8233 23.0564 29.7905 23.0002C29.6415 22.7444 29.499 22.4831 29.346 22.2299C29.3132 22.1757 29.4643 22.2783 29.519 22.3109C29.9693 22.5801 30.3934 22.89 30.8195 23.1949C30.8753 23.2348 31.0237 23.3619 30.9973 23.2989C30.9196 23.1138 30.7388 22.9385 30.6186 22.7813C30.3761 22.4644 30.1912 22.1337 29.9914 21.7922C29.9736 21.7616 29.9123 21.6851 29.9135 21.6858C30.1851 21.8296 30.429 22.0227 30.705 22.1598" stroke="#FFC902" stroke-linecap="round"/>
<path d="M31.6484 22.2031C31.6738 22.3543 31.7093 22.4933 31.758 22.6384C31.771 22.6771 31.7778 22.7411 31.8128 22.769C31.8719 22.8159 32.0246 21.8965 32.0746 21.925C32.1052 21.9423 32.097 22.1241 32.0978 22.139C32.1063 22.303 32.1087 22.4669 32.1087 22.6311C32.1087 22.6685 32.072 22.9497 32.1136 22.9818C32.1203 22.987 32.2755 22.7003 32.2938 22.6735C32.3332 22.6157 32.3767 22.5537 32.3937 22.486" stroke="#FFC902" stroke-linecap="round"/>
<path d="M32 23.4167C32.004 23.7587 32.0355 24.101 32.071 24.4406C32.0827 24.5523 32.0766 24.7764 32.1262 24.8795C32.1389 24.9059 32.1856 24.6713 32.187 24.665C32.2585 24.3547 32.3578 24.058 32.453 23.7564C32.5015 23.6024 32.5056 23.3912 32.5893 23.2531C32.5991 23.2369 32.605 23.2885 32.6084 23.3076C32.6388 23.4783 32.6411 23.6579 32.649 23.8308C32.6612 24.0967 32.6681 24.3628 32.6693 24.6291C32.6695 24.6854 32.6545 24.7825 32.6738 24.8398C32.6857 24.8752 32.7148 24.8294 32.7211 24.82C32.8426 24.6392 32.9312 24.4232 33.0107 24.2175C33.1249 23.9219 33.2217 23.618 33.3183 23.3151C33.3639 23.1722 33.3761 23.3132 33.3791 23.3944C33.3913 23.7149 33.409 24.0358 33.4186 24.3564C33.4197 24.3941 33.3973 24.5442 33.4287 24.577C33.4847 24.6353 33.5792 24.5597 33.6405 24.5597C33.7725 24.5597 33.7941 24.8802 33.8096 24.9886C33.8119 25.0047 33.8394 25.2587 33.9019 25.1968C33.9261 25.1729 33.9395 25.1338 33.9572 25.2005C34.0191 25.4354 33.9242 25.7158 34 25.9393C34.1017 26.2394 34.4311 25.8725 34.5656 25.8067C34.612 25.784 34.554 25.9195 34.5329 25.9703C34.4431 26.1867 34.3648 26.4075 34.2941 26.6323C34.2679 26.7153 34.1738 26.9567 34.2129 26.8802C34.3677 26.5775 34.505 26.2694 34.6929 25.9889C34.7323 25.9302 34.7682 25.8633 34.8101 25.8067C34.8462 25.7579 34.7859 25.9299 34.7695 25.9902C34.6872 26.2932 34.5895 26.5913 34.507 26.8938C34.5044 26.9034 34.4771 27.0066 34.507 27.0066C34.5737 27.0066 34.6807 26.9245 34.738 26.8926C34.8126 26.8511 34.8884 26.8023 34.9588 26.7525C34.9978 26.725 35.0125 26.7131 34.9881 26.7934C34.9122 27.0439 34.7735 27.2848 34.6366 27.5" stroke="#FFC902" stroke-linecap="round"/>
<path d="M23.3848 26.7088C23.3873 26.716 23.4261 26.8571 23.4505 26.8467C23.5084 26.8221 23.5432 26.6291 23.5613 26.5794C23.5674 26.563 23.6857 26.2483 23.7452 26.2989C23.7774 26.3263 23.8492 26.8144 23.9035 26.7209C23.9641 26.6167 24.0073 26.5022 24.0606 26.3944C24.197 26.1186 24.3683 25.8625 24.5416 25.6085C24.6394 25.4652 24.7353 25.3109 24.8509 25.1804C24.875 25.1533 24.9155 25.1231 24.9191 25.178C24.9354 25.4253 24.9566 25.6831 24.9946 25.9277C25.0156 26.0625 25.0289 26.2195 25.0726 26.3497C25.0773 26.3637 25.089 26.3248 25.0945 26.311C25.1587 26.1502 25.2248 25.9901 25.2869 25.8285C25.389 25.5628 25.4775 25.2932 25.567 25.0232C25.5914 24.9494 25.6192 24.7912 25.696 24.7427C25.7856 24.6861 25.7304 24.9517 25.7301 25.0571C25.7291 25.3982 25.7053 25.7361 25.6887 26.0764C25.6861 26.1301 25.6954 26.6302 25.7959 26.4416C25.9396 26.1722 26.0131 25.8545 26.1344 25.5734C26.1642 25.5045 26.2076 25.3013 26.2343 25.3715C26.2478 25.4069 26.2548 25.5095 26.2562 25.5287C26.2773 25.8122 26.2867 26.0971 26.2988 26.3811C26.3112 26.6712 26.3185 26.9604 26.322 27.2505C26.3279 27.7495 26.5631 26.2719 26.5631 25.7729" stroke="#FFC902" stroke-linecap="round"/>
<path d="M32.6222 27.6727C32.6188 27.9278 32.585 28.1828 32.542 28.4356C32.5331 28.4882 32.4796 28.6407 32.5085 28.5927C32.6499 28.3571 32.7511 28.1042 32.8721 27.862C32.9704 27.665 33.078 27.4709 33.1797 27.2752C33.1991 27.2379 33.2091 27.2442 33.2133 27.2796C33.2481 27.5729 33.2239 27.8733 33.2012 28.1667C33.1834 28.3956 33.1448 28.6344 33.1629 28.8638C33.1651 28.8905 33.177 29.0618 33.2161 28.9763C33.3538 28.6749 33.4584 28.361 33.5676 28.0527C33.6402 27.8473 33.6731 27.6325 33.7857 27.4374C33.7884 27.4327 33.8305 27.3523 33.8305 27.3892C33.8305 27.6284 33.8347 27.8677 33.8221 28.1067C33.8168 28.2065 33.7969 28.3075 33.7969 28.4071C33.7969 28.4618 33.8155 28.4463 33.8454 28.399C33.9626 28.2134 34.0433 28.0166 34.1708 27.8342C34.1915 27.8045 34.196 27.7234 34.25 27.7516" stroke="#FFC902" stroke-linecap="round"/>
<path d="M24.5898 29.5164C24.688 29.7724 24.678 30.0339 24.7104 30.3024C24.7186 30.37 24.7305 30.6591 24.7457 30.4402C24.7679 30.1206 24.8481 29.7996 24.9077 29.485C24.9328 29.3523 24.9862 29.2121 25.0051 29.0811C25.0164 29.0023 25.0242 29.0155 25.0648 29.1041C25.2291 29.4631 25.3691 29.8473 25.4654 30.2298C25.4658 30.2315 25.5279 30.4742 25.5433 30.468C25.5578 30.4623 25.5535 30.4386 25.5555 30.4233C25.5614 30.3794 25.5748 30.251 25.5774 30.2238C25.6035 29.9582 25.6218 29.6921 25.6517 29.4269C25.6679 29.2828 25.6802 29.143 25.6858 28.9989C25.6885 28.9306 25.8226 29.2719 25.8271 29.2867C25.9515 29.6984 26.0698 30.1308 26.1412 30.5563C26.1481 30.597 26.1646 30.7184 26.168 30.6772C26.1771 30.5694 26.1884 30.4442 26.2289 30.3435C26.2564 30.2752 26.2557 30.2223 26.2557 30.1476" stroke="#FFC902" stroke-linecap="round"/>
<path d="M30.1573 28.7763C30.3981 28.9168 30.6365 29.0587 30.8612 29.2237C30.8881 29.2435 30.965 29.2937 30.9537 29.2624C30.9284 29.1921 30.862 29.1097 30.8173 29.0496C30.6532 28.8285 30.5036 28.6002 30.3485 28.3725C30.2705 28.258 30.1779 28.1652 30.094 28.0581C30.0881 28.0506 30.0507 27.979 30.0575 27.9807C30.0921 27.9893 30.1333 28.0348 30.1585 28.0532C30.2578 28.1258 30.3658 28.185 30.4691 28.2515C30.7577 28.4374 31.035 28.6406 31.319 28.8332C31.3454 28.851 31.5058 28.9793 31.4761 28.8888C31.3614 28.5384 31.232 28.195 31.0865 27.8561C30.9859 27.622 30.8896 27.3873 30.8003 27.1488C30.7947 27.1338 30.6877 26.9149 30.7053 26.8755C30.7213 26.8398 30.7624 26.9292 30.7905 26.9565C30.8617 27.0258 30.93 27.0958 30.9927 27.1729C31.1305 27.3426 31.2795 27.4965 31.4347 27.6506C31.4605 27.6762 31.6123 27.7886 31.604 27.7969" stroke="#FFC902" stroke-linecap="round"/>
<path d="M28.8418 30.7791C29.0883 30.4272 29.28 30.028 29.4896 29.6533C29.579 29.4936 29.6653 29.3322 29.7539 29.1721C29.7728 29.1379 29.7863 29.0723 29.8111 29.0427C29.8531 28.9926 29.8501 29.0058 29.8501 29.0657C29.8501 29.525 29.9264 29.9688 29.8562 30.4296C29.8016 30.7876 29.7431 31.1853 29.6309 31.5312C29.6172 31.5734 29.5871 31.7013 29.5871 31.657C29.5871 31.47 29.6734 31.308 29.7307 31.1322C29.8232 30.8489 29.8922 30.5476 30.0035 30.2712C30.0151 30.2425 30.0561 30.162 30.0802 30.2205C30.1714 30.4418 30.1763 30.7617 30.1789 30.9968C30.1815 31.23 30.1784 31.459 30.1996 31.6908C30.216 31.8698 30.2851 31.5891 30.3116 31.5252C30.4283 31.2432 30.5086 30.8807 30.7025 30.64C30.7094 30.6315 30.7269 30.8122 30.7269 30.8275C30.7269 30.9508 30.7049 31.0708 30.7049 31.1926" stroke="#FFC902" stroke-linecap="round"/>
<path d="M28.9297 29.0377C28.9298 29.0467 28.9334 29.3183 28.9638 29.3183C28.9943 29.3183 29.0809 29.2421 29.116 29.2227C29.2244 29.1629 29.2353 29.4476 29.2585 29.5166" stroke="#FFC902" stroke-linecap="round"/>
<path d="M31.0781 25.7075C31.2321 26.0658 31.4029 26.4241 31.5457 26.7861C31.5778 26.8674 31.5823 26.9476 31.5823 26.8055C31.5823 26.4223 31.5634 26.0393 31.5433 25.6567C31.5413 25.6193 31.5064 25.2336 31.5871 25.352C31.6956 25.5112 31.7473 25.7172 31.8136 25.895C31.901 26.129 31.9952 26.3606 32.0815 26.5951C32.1633 26.8171 32.2139 27.044 32.2788 27.2698C32.3088 27.3739 32.2757 26.9914 32.2739 26.9675C32.2389 26.5011 32.1171 25.9629 32.2508 25.5032C32.2676 25.4455 32.2943 25.2053 32.3628 25.1791C32.5082 25.1236 32.8687 26.068 32.9023 26.1453C32.9743 26.3106 33.0363 26.4797 33.1118 26.6434C33.1287 26.6803 33.1292 26.7283 33.1507 26.7619C33.2169 26.8653 33.2014 26.6878 33.2031 26.6314C33.2109 26.3745 33.2043 26.1169 33.2043 25.8599C33.2043 25.7902 33.2375 25.8879 33.2615 25.9167C33.3051 25.9691 33.3268 26.0558 33.4016 26.0558" stroke="#FFC902" stroke-linecap="round"/>
<path d="M27.418 24.9674C27.4495 24.9974 27.7227 25.2923 27.7248 25.1609C27.7271 25.0207 27.7248 24.8803 27.7248 24.7401C27.7248 24.738 27.7149 24.5889 27.7407 24.6047C27.92 24.7142 28.023 24.9558 28.2119 25.0496C28.2257 25.0565 28.229 24.7585 28.229 24.7401C28.229 24.6341 28.2409 24.5194 28.218 24.4148C28.202 24.3414 28.1891 24.2638 28.2533 24.3737C28.3388 24.5199 28.4216 24.6761 28.5091 24.8151C28.5289 24.8466 28.5237 24.4511 28.5383 24.3967C28.5605 24.3142 28.6455 24.4797 28.6455 24.3145" stroke="#FFC902" stroke-linecap="round"/>
<path d="M23.91 24.9675C24.0129 24.9675 24.2287 25.0106 24.3228 24.9639C24.3609 24.945 23.9411 24.353 23.9198 24.3194C23.8089 24.1445 23.6769 23.9795 23.5703 23.803C23.4963 23.6805 23.7469 23.8937 23.7712 23.9106C24.1011 24.1406 24.4716 24.3204 24.7917 24.5612C24.8327 24.592 24.9097 24.6563 24.9621 24.6628C24.9874 24.6659 24.8288 24.4757 24.799 24.4354C24.7215 24.331 24.6152 24.2301 24.5566 24.1138C24.5305 24.0619 24.3643 23.4623 24.3752 23.4596C24.3995 23.4536 24.489 23.5618 24.4982 23.5709C24.6525 23.7241 24.7892 23.8904 24.9353 24.0509C25.0612 24.1892 25.2016 24.3337 25.3457 24.4548C25.3839 24.4869 25.3915 24.4586 25.3774 24.4149C25.2958 24.1623 25.1458 23.9232 25.0376 23.6809C24.9939 23.5829 24.855 23.3758 24.855 23.2589C24.855 23.2265 24.9136 23.2891 24.9378 23.3109C25.045 23.4075 25.1482 23.4934 25.2812 23.5527C25.3355 23.577 25.4244 23.602 25.4444 23.6616" stroke="#FFC902" stroke-linecap="round"/>
<path d="M22.5732 23.5963C22.6882 23.5939 22.8093 23.5906 22.9191 23.5528C23.0112 23.5211 22.9868 23.4831 22.9349 23.4004C22.8751 23.3051 22.8037 23.2177 22.734 23.1296C22.7129 23.1029 22.6552 23.024 22.6853 23.0401C22.8709 23.1396 23.046 23.2399 23.2564 23.2783C23.3226 23.2904 23.5614 23.3396 23.5596 23.2384C23.5576 23.1236 23.521 23.0161 23.4732 22.9131C23.4552 22.8745 23.4422 22.8504 23.5036 22.8611C23.6521 22.887 23.7996 22.9504 23.9396 23.0038C24.0096 23.0306 24.1344 23.1161 24.2148 23.0933C24.2829 23.074 23.8442 22.5302 23.7812 22.4573C23.7624 22.4355 23.7405 22.4101 23.7131 22.3992C23.6608 22.3785 23.8311 22.3773 23.8446 22.3775C23.964 22.3791 24.0786 22.421 24.1953 22.421" stroke="#FFC902" stroke-linecap="round"/>
<path d="M22.1348 25.0329C22.1702 25.0396 22.3035 25.0883 22.3089 25.0244C22.322 24.8681 22.3114 24.7014 22.2882 24.5468C22.275 24.4588 22.2444 24.3739 22.2444 24.2844C22.2444 24.2307 22.2748 24.3016 22.2931 24.3243C22.4565 24.5271 22.5945 24.719 22.8191 24.8539C23.0127 24.9701 22.94 24.6943 22.9287 24.5709C22.9256 24.5366 22.8652 24.1842 22.8849 24.1671C22.9048 24.1498 23.4184 24.5349 23.4718 24.6411" stroke="#FFC902" stroke-linecap="round"/>
<path d="M22.6172 28.6894C22.7933 28.9621 23.0078 29.2198 23.17 29.4996C23.2148 29.5768 23.2297 29.5989 23.2309 29.4851C23.2342 29.1905 23.2202 28.8977 23.1883 28.6048C23.1752 28.4845 23.1085 28.2034 23.1676 28.0861C23.1802 28.0611 23.2061 28.1277 23.2188 28.1526C23.2855 28.2838 23.3431 28.421 23.3941 28.5589C23.5325 28.933 23.6649 29.3253 23.7302 29.7197C23.7317 29.7286 23.7294 29.7392 23.7351 29.7463C23.7553 29.7714 23.7453 29.6827 23.7485 29.6508C23.7736 29.3988 23.8005 29.1474 23.8325 28.8962C23.8737 28.5728 23.9157 28.2529 23.9762 27.9325C23.9936 27.8403 24.0111 27.5012 24.1077 27.7293C24.2336 28.0264 24.3209 28.3532 24.389 28.6677C24.3933 28.6876 24.4218 28.9627 24.4755 28.9627C24.4848 28.9627 24.5219 28.61 24.5242 28.5903C24.5648 28.2433 24.5651 27.8934 24.6106 27.5468C24.6255 27.4333 24.6138 27.2924 24.6874 27.1985C24.7243 27.1513 24.7271 27.2926 24.7361 27.3279C24.7917 27.5477 24.8303 27.7678 24.853 27.993" stroke="#FFC902" stroke-linecap="round"/>
<path d="M25.1378 28.4064C25.2843 28.4381 25.4218 28.4953 25.5664 28.5322C25.6896 28.5636 25.4641 28.2883 25.4508 28.271C25.295 28.0685 25.1187 27.8564 24.9941 27.6325C24.9868 27.6194 24.9672 27.5855 24.9819 27.589C25.1455 27.6282 25.3121 27.7812 25.4508 27.8683C25.4761 27.8842 25.8881 28.1219 25.8782 28.0606C25.8576 27.9329 25.7463 27.7984 25.6821 27.693C25.5806 27.5263 25.4947 27.3377 25.3789 27.1803C25.3677 27.1651 25.3313 27.1276 25.3497 27.1319C25.5359 27.1757 25.7331 27.3463 25.894 27.4427C26.0205 27.5185 26.158 27.6413 26.2995 27.6882" stroke="#FFC902" stroke-linecap="round"/>
<path d="M26.168 31.1489C26.4553 31.631 26.7434 32.1121 27.0058 32.6071C27.0074 32.6103 27.0356 32.6483 27.0399 32.6313C27.0738 32.4966 26.9988 32.2659 26.9717 32.1368C26.8611 31.6098 26.6448 31.1051 26.5418 30.5769C26.5383 30.5587 26.5074 30.4179 26.5235 30.4572C26.5535 30.5301 26.6165 30.5914 26.6636 30.6531C26.7778 30.8024 26.8778 30.9632 26.9692 31.1271C27.1416 31.4361 27.2995 31.763 27.5124 32.0473C27.5658 32.1187 27.5887 32.1991 27.6353 32.2686C27.6498 32.29 27.636 32.2168 27.6329 32.1912C27.607 31.9728 27.5319 31.7583 27.471 31.5479C27.4097 31.3364 27.3555 31.1216 27.2968 30.9119C27.2921 30.8951 27.2692 30.831 27.2786 30.8321C27.3459 30.8398 27.4214 30.9189 27.4746 30.9542C27.5676 31.0158 27.6582 31.0812 27.7535 31.1392C27.7903 31.1616 27.8873 31.2731 27.8752 31.1743C27.8548 31.0071 27.7714 30.8485 27.7352 30.6833C27.7061 30.5502 28.0619 30.6911 28.1212 30.7087C28.1271 30.7105 28.312 30.7718 28.3002 30.7414C28.2786 30.6855 28.2373 30.634 28.2065 30.583" stroke="#FFC902" stroke-linecap="round"/>
<path d="M28.3601 32.4332C28.4228 32.5333 28.4903 32.6311 28.5574 32.7283C28.578 32.7582 28.6283 32.8512 28.6232 32.8153C28.5631 32.3976 28.4187 31.9903 28.3626 31.5723C28.3567 31.5289 28.3539 31.4892 28.4003 31.5421C28.5744 31.7405 28.6885 31.9966 28.8229 32.2216C28.9029 32.3556 28.9801 32.491 29.0591 32.6255C29.0602 32.6274 29.1497 32.8029 29.1663 32.7766C29.2119 32.7042 29.1931 32.5329 29.1931 32.4502C29.1931 32.3325 29.1792 32.214 29.1663 32.0971C29.1528 31.9751 29.0624 31.6286 29.131 31.7307C29.2849 31.9599 29.5316 32.1697 29.6534 32.4115" stroke="#FFC902" stroke-linecap="round"/>
<path d="M27.0257 26.8507C27.1158 26.8998 27.2369 26.9848 27.3431 26.9996C27.4039 27.0081 27.297 26.8869 27.2602 26.8388C27.1864 26.7423 27.1082 26.6489 27.0338 26.5528C26.9777 26.4804 26.9882 26.4713 27.0894 26.4808C27.3068 26.5013 27.5234 26.5666 27.7432 26.5666C27.7977 26.5666 27.5063 26.1391 27.4744 26.0991C27.4553 26.0751 27.38 25.9192 27.3845 25.9216C27.4885 25.9763 27.6036 26.0253 27.7028 26.0834C27.7504 26.1112 27.6612 25.983 27.6442 25.9315C27.6244 25.8713 27.6023 25.8118 27.5896 25.75" stroke="#FFC902" stroke-linecap="round"/>
<path d="M26.2119 23.6397C26.3519 23.8985 26.571 24.1065 26.7514 24.3375C26.8267 24.4339 26.8595 24.5179 26.8244 24.3495C26.7784 24.1285 26.7334 23.9103 26.6625 23.6954C26.6483 23.6523 26.5226 23.2138 26.5285 23.2141C26.5689 23.2163 26.6122 23.3094 26.6284 23.335C26.7012 23.4502 26.7839 23.5553 26.8695 23.6615C26.983 23.8024 27.1034 23.9591 27.2312 24.0859C27.2928 24.1471 27.3317 24.2643 27.4175 24.2927" stroke="#FFC902" stroke-linecap="round"/>
<path d="M25.8174 24.4888C25.8174 24.4731 25.8243 24.2899 25.8344 24.334C25.8669 24.4752 25.8791 24.6086 25.927 24.75C25.9547 24.8319 25.9774 24.9066 26.0317 24.9724C26.0558 25.0017 26.0316 24.9983 26.0414 24.9362C26.057 24.8376 26.0492 24.6719 26.1072 24.5855C26.1139 24.5756 26.3202 24.7672 26.3361 24.7814C26.4154 24.8517 26.5009 24.9053 26.5846 24.9676" stroke="#FFC902" stroke-linecap="round"/>
<path d="M27.3027 22.9883C27.4236 23.097 27.5556 23.2001 27.6656 23.3202C27.7289 23.3893 27.6863 23.1764 27.6844 23.1502C27.6728 22.9927 27.6576 22.8355 27.6118 22.6838C27.5997 22.6437 27.5816 22.5904 27.5816 22.5478C27.5816 22.4533 27.7079 22.6902 27.7594 22.7696C27.9116 23.0044 28.0589 23.2396 28.2324 23.4595C28.2651 23.5011 28.31 23.5786 28.3482 23.6118C28.3545 23.6173 28.3596 23.4519 28.3596 23.4433C28.3596 23.2279 28.332 23.0149 28.3155 22.8004C28.3073 22.6934 28.2977 22.5872 28.287 22.4806C28.2855 22.4656 28.2746 22.4204 28.278 22.4085C28.2812 22.3975 28.2964 22.4228 28.3033 22.432C28.3462 22.4894 28.3822 22.5523 28.4207 22.6125C28.515 22.7601 28.6125 22.9056 28.707 23.053C28.7479 23.117 28.7999 23.1464 28.7999 23.2215" stroke="#F19E00" stroke-linecap="round"/>
<path d="M29.2695 24.2416C29.4279 24.4074 29.5748 24.5838 29.7319 24.7509C29.7476 24.7676 29.7889 24.8322 29.7947 24.7792C29.8162 24.5811 29.7299 24.3655 29.6846 24.176C29.6671 24.1027 29.6636 24.0305 29.6504 23.9582C29.6485 23.948 29.6438 23.942 29.6593 23.9549C29.7392 24.0216 29.8088 24.1009 29.8811 24.1752C30.0882 24.3879 30.2946 24.6 30.4976 24.8165C30.5792 24.9035 30.6613 24.9864 30.7292 25.0845C30.7741 25.1494 30.7675 25.0655 30.7635 25.027C30.7329 24.7385 30.6405 24.4636 30.571 24.1833C30.5558 24.122 30.5512 24.0456 30.5245 23.9873C30.513 23.9621 30.5201 23.9411 30.5531 23.9598C30.6243 24.0002 30.6801 24.0768 30.739 24.1315C30.8443 24.2292 30.9572 24.3188 31.0733 24.4035C31.1421 24.4538 31.2516 24.4901 31.3082 24.5533C31.3233 24.5702 31.309 24.2829 31.3065 24.2634C31.2715 23.9849 31.1483 23.7205 31.1483 23.4399" stroke="#F19E00" stroke-linecap="round"/>
<path d="M27.5381 25.1307C27.6073 25.1588 28.1869 25.3975 28.2019 25.3396C28.2133 25.2951 28.2017 25.2126 28.197 25.1784C28.1723 25.0015 28.1248 24.8296 28.0714 24.6594C28.0374 24.5512 27.9918 24.4468 27.958 24.3387C27.9114 24.1893 28.0099 24.352 28.0502 24.4035C28.201 24.5961 28.3725 24.7559 28.5444 24.9266C28.6041 24.9859 28.5771 24.8623 28.5705 24.8205C28.5437 24.6512 28.4792 24.4943 28.4343 24.3306C28.4109 24.2457 28.5337 24.297 28.577 24.3144C28.6319 24.3365 28.687 24.3401 28.7417 24.3582" stroke="#F19E00" stroke-linecap="round"/>
<path d="M23.5303 26.6318C23.7074 26.6318 25.2275 26.6547 25.2264 26.6107C25.2233 26.4852 25.1261 26.3192 25.0739 26.2091C25.0536 26.1662 24.9951 26.0878 24.9981 26.0342C25.0003 25.9954 25.3325 26.2566 25.3349 26.2585C25.5306 26.4135 25.7277 26.5587 25.9342 26.6982C25.9573 26.7138 25.9663 26.7118 25.9571 26.6779C25.9102 26.5064 25.8163 26.3407 25.7394 26.1816C25.6376 25.9711 25.5017 25.753 25.4393 25.5257C25.4096 25.4178 25.7027 25.5615 25.7206 25.5694C25.9758 25.682 26.2084 25.8396 26.4667 25.9443C26.4997 25.9577 26.5513 25.9715 26.5801 25.9937C26.5837 25.9965 26.5815 25.9978 26.5695 25.9808C26.4969 25.8778 26.4209 25.7776 26.3428 25.6787C26.1624 25.4502 25.98 25.2209 25.7891 25.001C25.7429 24.9478 25.7415 24.9343 25.8168 24.95C25.9393 24.9754 26.05 25.0351 26.1707 25.0658C26.2058 25.0747 26.2309 25.0819 26.2604 25.1014" stroke="#F19E00" stroke-linecap="round"/>
<path d="M30.2832 27.2731C30.3147 27.7378 30.3766 28.1976 30.4202 28.661C30.4362 28.8316 30.4181 29.019 30.452 29.1873C30.4641 29.2475 30.4636 29.2508 30.4805 29.1728C30.5553 28.8293 30.6265 28.4825 30.6917 28.1371C30.7419 27.8716 30.7909 27.6046 30.8345 27.3379C30.841 27.2978 30.8351 27.2586 30.8557 27.2229C30.8604 27.2147 30.8687 27.2379 30.8703 27.2472C30.8983 27.4032 30.9059 27.5634 30.9307 27.7201C30.983 28.0512 31.039 28.3779 31.0677 28.712C31.0748 28.7953 31.0813 28.8783 31.0897 28.9614C31.0976 29.0403 31.1094 28.9585 31.1166 28.9153C31.1623 28.6393 31.1848 28.3579 31.221 28.0804C31.2361 27.9648 31.2629 27.8451 31.2666 27.7282C31.2685 27.67 31.3064 27.7235 31.3229 27.7517C31.5075 28.0659 31.6196 28.4292 31.7282 28.7744C31.7757 28.9252 31.8225 29.0856 31.8538 29.2408" stroke="#F19E00" stroke-linecap="round"/>
<path d="M31.3691 25.4077C31.4768 25.7712 31.5997 26.1302 31.6888 26.4992C31.7199 26.628 31.7133 26.5412 31.7279 26.449C31.7675 26.1995 31.8048 25.9499 31.847 25.7008C31.8731 25.5466 31.8877 25.3881 31.9383 25.2393C31.9427 25.2263 31.9494 25.1566 31.9595 25.1486C31.97 25.1403 31.9868 25.1668 31.9881 25.1688C32.0259 25.229 32.0443 25.3066 32.0623 25.3737C32.1826 25.8215 32.2749 26.279 32.3787 26.7308C32.4358 26.9794 32.514 27.2394 32.514 27.4968C32.514 27.8311 32.5521 26.8293 32.5638 26.4952C32.5755 26.1593 32.5684 25.8155 32.6372 25.4846C32.6542 25.4028 32.67 25.2321 32.7595 25.3785C32.9642 25.7136 33.1668 26.0841 33.292 26.4571" stroke="#F19E00" stroke-linecap="round"/>
<path d="M31.9854 24.2997C32.0979 24.4042 32.2208 24.498 32.3433 24.5904C32.3527 24.5975 32.5116 24.7074 32.5113 24.7046C32.4975 24.5471 32.4347 24.3854 32.3866 24.2366C32.3145 24.0141 32.2437 23.7901 32.1533 23.5742C32.1528 23.5731 32.1222 23.4935 32.1362 23.4949C32.1626 23.4975 32.2197 23.5572 32.2316 23.5677C32.3421 23.6654 32.4484 23.7676 32.557 23.8674C32.7998 24.0903 33.0506 24.3046 33.2868 24.5346C33.3577 24.6036 33.4492 24.6713 33.5119 24.7483C33.6546 24.9238 33.3311 24.3343 33.2273 24.1338C33.134 23.9536 33.0433 23.7719 32.9525 23.5904C32.9223 23.5302 32.8855 23.4653 32.8693 23.3993C32.8681 23.3945 32.8562 23.349 32.8579 23.3491C32.9657 23.358 33.1082 23.5399 33.1849 23.6026C33.2484 23.6544 33.3148 23.7148 33.3879 23.754C33.4098 23.7657 33.4161 23.7666 33.4238 23.7896" stroke="#F19E00" stroke-linecap="round"/>
<path d="M34.25 26.4516C34.3947 26.6975 34.54 26.9417 34.6945 27.175C34.711 27.1998 34.7421 27.2747 34.7488 27.2418C34.7531 27.2211 34.7444 27.1988 34.7402 27.1781C34.712 27.0416 34.6789 26.9064 34.6453 26.7726C34.5651 26.4527 34.4708 26.1313 34.3564 25.8331C34.3519 25.8212 34.3159 25.74 34.3369 25.796C34.3933 25.9466 34.4737 26.0831 34.5555 26.2063C34.5557 26.2065 34.5765 26.2444 34.5671 26.224C34.4998 26.0784 34.4319 25.933 34.3687 25.7835C34.3345 25.7024 34.2926 25.6144 34.2699 25.5241C34.2611 25.489 34.2851 25.5004 34.2989 25.5079C34.4194 25.5734 34.522 25.6827 34.6279 25.7845" stroke="#F19E00" stroke-linecap="round"/>
<path d="M29.3238 26.0574C29.509 26.1224 29.6993 26.1933 29.8718 26.2873C29.8868 26.2955 29.902 26.3067 29.8865 26.2809C29.7943 26.1274 29.7 25.9761 29.6117 25.8201C29.5092 25.639 29.4 25.4643 29.2806 25.2938C29.2441 25.2417 29.2314 25.2322 29.2929 25.2865C29.4431 25.4193 29.6015 25.5464 29.7691 25.6574C29.7968 25.6757 29.8604 25.7276 29.8898 25.7359C30.0393 25.7783 30.1871 25.8285 30.3342 25.8857C30.5269 25.9607 30.7228 26.0804 30.9238 26.1303" stroke="#F19E00" stroke-linecap="round"/>
<path d="M26.3193 23.6584C26.4484 23.952 26.585 24.2422 26.7238 24.5313C26.7423 24.5699 26.7514 24.5691 26.7597 24.5249C26.7805 24.4133 26.7869 24.2969 26.7956 24.184C26.8023 24.0958 26.8038 24.0073 26.8111 23.9192C26.8136 23.8886 26.8087 23.8217 26.8331 23.7961C26.8529 23.7753 27.0547 24.2927 27.0736 24.3427C27.0783 24.355 27.1656 24.6074 27.1788 24.6026C27.2496 24.577 27.2842 24.3931 27.3028 24.3321C27.3483 24.1831 27.399 24.2415 27.4642 24.3581" stroke="#F19E00" stroke-linecap="round"/>
<path d="M23.0458 26.1363C23.0845 26.1363 23.273 26.1656 23.2105 26.0974C23.0263 25.8962 22.8229 25.7083 22.612 25.5355C22.5126 25.4541 22.6583 25.4884 22.7131 25.495C23.05 25.5353 23.3743 25.6346 23.7047 25.7071C23.8452 25.738 23.6814 25.6275 23.6443 25.597C23.5354 25.5074 23.4225 25.4243 23.3075 25.3428C23.2194 25.2803 23.343 25.3305 23.3679 25.3371C23.5663 25.3894 23.8358 25.4031 23.9754 25.5743C24.0428 25.657 24.0674 25.7719 24.0879 25.8739" stroke="#F19E00" stroke-linecap="round"/>
<path d="M24.059 24.9703C24.2144 24.9317 24.0367 24.6723 23.9962 24.5889C23.9052 24.401 23.812 24.2124 23.7182 24.0261C23.7118 24.0134 23.6955 23.9925 23.7255 24.001C23.8396 24.0334 23.9532 24.1134 24.0566 24.1678C24.2529 24.2711 24.4475 24.3814 24.6535 24.465C24.7442 24.5018 24.8387 24.5264 24.9275 24.5678C24.9832 24.5938 25.0335 24.6067 25.0914 24.6237C25.1196 24.632 25.0236 24.5014 25.0172 24.4925C24.9808 24.4421 24.5443 23.8123 24.576 23.7929C24.6413 23.7531 24.92 23.9717 24.9642 23.9978C25.1632 24.1152 25.3834 24.2098 25.5644 24.3549C25.5736 24.3623 25.6464 24.4167 25.6386 24.4018C25.5962 24.3219 25.5215 24.2508 25.4616 24.1848C25.3408 24.0516 25.2171 23.9212 25.0979 23.7864C25.0812 23.7675 24.7336 23.4004 24.7962 23.3459C24.8464 23.3024 25.029 23.3378 25.1012 23.3378" stroke="#F19E00" stroke-linecap="round"/>
<path d="M22.9141 23.2795C23.0206 23.124 23.1309 22.9644 23.2133 22.7945C23.2195 22.7817 23.2306 22.7384 23.2402 22.7289C23.2451 22.724 23.2218 22.9159 23.2199 22.9265C23.1703 23.2018 23.1319 23.4788 23.082 23.754C23.0818 23.7552 23.0257 24.0188 23.082 23.937C23.1986 23.7679 23.2799 23.5728 23.3593 23.3848C23.4371 23.2006 23.5252 23.0177 23.5958 22.8309C23.6015 22.8157 23.6594 22.6894 23.6618 22.7078C23.7101 23.0674 23.7142 23.4303 23.7524 23.7905C23.7548 23.8132 23.7826 23.7546 23.7899 23.733C23.8613 23.5203 23.9207 23.3028 23.9807 23.0868C24.0142 22.9662 24.0452 22.8449 24.0777 22.724C24.0865 22.6914 24.0929 22.6409 24.1112 22.6099C24.1337 22.5715 24.2258 22.8676 24.2498 22.9151" stroke="#F19E00" stroke-linecap="round"/>
<path d="M22.2383 24.9557C22.2681 24.8077 22.3104 24.6542 22.3264 24.5038C22.3357 24.4156 22.414 24.5834 22.4218 24.597C22.4886 24.7144 22.5888 24.6709 22.7031 24.6253C22.8245 24.5768 22.928 24.5157 23.0146 24.418C23.0615 24.3651 23.1007 24.3019 23.1483 24.2512C23.2039 24.1921 23.1381 24.5102 23.1312 24.5354C23.1001 24.6485 23.0398 24.7518 23.0113 24.865C22.9961 24.9256 22.9936 24.9863 22.9755 25.0464C22.9729 25.0549 22.9659 25.0914 22.982 25.0682C23.0259 25.0047 23.0836 24.9551 23.1418 24.9047C23.2017 24.8528 23.2764 24.7772 23.3538 24.7516" stroke="#F19E00" stroke-linecap="round"/>
<path d="M22.7969 28.7162C23.0191 28.5403 23.2164 28.3368 23.446 28.1697C23.7279 27.9644 24.0306 27.7988 24.3365 27.6328C24.3696 27.6148 24.4041 27.5913 24.44 27.5794C24.4853 27.5644 24.3613 27.6672 24.3536 27.6757C24.0331 28.0293 23.7056 28.3943 23.4721 28.8118C23.4339 28.8799 23.5051 28.8199 23.5414 28.7956C23.8467 28.5907 24.144 28.3828 24.4262 28.147C24.518 28.0702 24.623 28.006 24.7132 27.9292C24.7362 27.9096 24.6759 28.0068 24.6724 28.011C24.4903 28.228 24.2795 28.4319 24.0788 28.632C23.9541 28.7564 23.7866 28.8737 23.6841 29.0191C23.6536 29.0624 23.6423 29.1846 23.6963 29.215C23.7533 29.2471 23.8423 29.1921 23.892 29.1713C24.0556 29.1028 24.2129 29.0256 24.3666 28.9373C24.5149 28.8521 24.6549 28.7477 24.816 28.6871C24.8816 28.6624 24.8552 28.6788 24.8225 28.7308" stroke="#F19E00" stroke-linecap="round"/>
<path d="M25.1016 28.0166C25.2146 27.7505 25.2024 27.4519 25.2369 27.1697C25.2384 27.1574 25.2447 27.0961 25.2581 27.1397C25.3419 27.412 25.3794 27.708 25.4147 27.9891C25.4506 28.2749 25.4779 28.5641 25.4832 28.8523C25.4844 28.9186 25.491 28.9311 25.5093 28.8523C25.5919 28.497 25.6627 28.1365 25.7376 27.7794C25.7402 27.7671 25.7953 27.5611 25.8151 27.5883C25.8948 27.6979 25.9073 27.9126 25.9284 28.0393C25.9566 28.2078 25.9676 28.3758 25.9676 28.5462C25.9676 28.5938 25.97 28.5932 25.9953 28.543C26.0846 28.3657 26.1573 28.181 26.2204 27.9932C26.223 27.9854 26.2611 27.9012 26.2611 27.9017C26.27 27.9988 26.2772 28.0948 26.2905 28.1915" stroke="#F19E00" stroke-linecap="round"/>
<path d="M24.75 29.7395C25.0662 29.895 25.3773 30.0475 25.678 30.2189C25.6882 30.2247 25.7379 30.256 25.7297 30.249C25.5618 30.1046 25.4354 29.9239 25.2956 29.7656C25.1487 29.5991 25.0074 29.4266 24.8292 29.2758C24.8215 29.2692 24.7824 29.2424 24.8211 29.2521C25.0209 29.3018 25.2011 29.4081 25.3708 29.4941C25.6603 29.6406 25.9565 29.7798 26.2406 29.9317C26.315 29.9715 26.3917 30.0196 26.4734 30.0522C26.5459 30.081 26.449 30.0321 26.4314 30.0174C26.2894 29.8991 26.1554 29.7741 26.0183 29.6527C25.9806 29.6193 25.9451 29.5905 25.9003 29.5624C25.857 29.5352 25.8977 29.5438 25.9318 29.5543C26.0312 29.5848 26.1229 29.6307 26.2204 29.6648C26.2642 29.6802 26.3029 29.695 26.336 29.7187" stroke="#F19E00" stroke-linecap="round"/>
<path d="M26.4512 29.3866C26.6905 29.0104 26.7884 28.5582 27.0032 28.1672C27.0332 28.1127 27.0793 28.0687 27.1084 28.0166C27.1443 27.9525 27.0975 28.1566 27.0946 28.168C27.0221 28.4485 26.9113 28.7146 26.8703 29.0028C26.8664 29.0301 26.8128 29.2507 26.8866 29.1486C27.004 28.9862 27.1306 28.8285 27.2405 28.6611C27.2637 28.6259 27.3094 28.5939 27.3156 28.6571C27.3345 28.8494 27.2923 29.0616 27.2666 29.2506C27.2355 29.4798 27.199 29.7096 27.1574 29.9372C27.1494 29.9806 27.1427 30.0243 27.1345 30.0676C27.1187 30.1514 27.2408 29.9335 27.2911 29.8644C27.4229 29.6833 27.5408 29.5035 27.6532 29.3113C27.6713 29.2803 27.6988 29.256 27.7168 29.2263C27.7249 29.2128 27.728 29.2567 27.7274 29.2725C27.7197 29.4753 27.6988 29.6798 27.6695 29.8806C27.6526 29.996 27.6173 30.1084 27.6026 30.2239C27.5918 30.3087 27.6281 30.286 27.6735 30.2409C27.7595 30.1555 27.835 30.0603 27.9206 29.9745C27.9511 29.9439 27.9907 29.9187 28.0144 29.8822C28.0643 29.8052 28.087 30.04 28.0919 30.0636C28.1094 30.1481 28.1264 30.2378 28.1539 30.3194" stroke="#F19E00" stroke-linecap="round"/>
<path d="M26.1729 31.1648C26.428 30.9595 26.7099 30.7919 26.9769 30.6028C27.0651 30.5404 27.1519 30.4726 27.2476 30.4215C27.267 30.4111 27.1773 30.5838 27.1669 30.602C27.0142 30.8692 26.823 31.1115 26.6833 31.3867C26.6183 31.5149 26.5536 31.643 26.4876 31.7705C26.4412 31.8602 26.6148 31.6131 26.6817 31.5373C26.8516 31.3447 27.0413 31.1643 27.2468 31.0093C27.252 31.0054 27.4042 30.8774 27.4042 30.9186C27.4042 31.1577 27.2724 31.4165 27.1857 31.6328C27.1088 31.8245 27.0327 32.0107 26.9671 32.2061C26.9599 32.2275 26.9294 32.2509 26.9426 32.2693C26.9492 32.2784 26.9621 32.2575 26.9704 32.2498C27.0038 32.2189 27.0409 32.1778 27.0699 32.1446C27.273 31.911 27.4569 31.6616 27.6668 31.4336C27.6856 31.4132 27.8625 31.1763 27.8119 31.3154C27.6655 31.7184 27.4981 32.1144 27.3618 32.5203" stroke="#F19E00" stroke-linecap="round"/>
<path d="M28.25 27.9064C28.3684 27.5582 28.4894 27.2107 28.6166 26.8665C28.6559 26.7602 28.6955 26.6534 28.7438 26.5517C28.7441 26.5511 28.7725 26.4777 28.7808 26.5068C28.7914 26.544 28.7855 26.5942 28.7821 26.6313C28.7671 26.7939 28.734 26.9559 28.7003 27.1147C28.6457 27.3724 28.5459 27.6329 28.542 27.9006C28.5407 27.9864 28.589 27.8659 28.6049 27.8405C28.6165 27.8221 28.7953 27.5475 28.7983 27.5525C28.8098 27.5717 28.8077 27.6423 28.808 27.656C28.8121 27.8261 28.8021 27.9965 28.7847 28.1654C28.7737 28.2722 28.7457 28.3847 28.7457 28.4925C28.7457 28.525 28.7839 28.443 28.7976 28.4144C28.883 28.2369 28.9802 28.0682 29.0695 27.8933C29.0957 27.8422 29.1301 27.7265 29.1727 27.6886C29.1789 27.683 29.151 27.9039 29.1467 27.9252C29.1285 28.0163 29.1102 28.1073 29.0935 28.1987C29.0887 28.2251 29.0577 28.2783 29.0818 28.2783C29.0915 28.2783 29.1239 28.2394 29.1253 28.2378C29.1838 28.174 29.2357 28.1027 29.2875 28.0323C29.3454 27.9538 29.3933 27.889 29.4634 27.8282C29.5119 27.7861 29.4989 27.8907 29.4971 27.9237C29.4903 28.0533 29.4711 28.1821 29.453 28.3102" stroke="#F19E00" stroke-linecap="round"/>
<path d="M28.9169 31.0047C28.8533 30.8259 28.7774 30.6361 28.7432 30.4492C28.726 30.3553 28.9323 30.5067 29.005 30.5691C29.1923 30.7299 29.3768 30.8952 29.5562 31.0646C29.5857 31.0925 29.6166 31.1032 29.6394 31.1359C29.7065 31.2322 29.585 30.9072 29.544 30.7974C29.4146 30.4514 29.2946 30.1022 29.177 29.752C29.1559 29.6891 29.1116 29.5907 29.1224 29.5213C29.1295 29.4753 29.2014 29.5733 29.2317 29.6087C29.3602 29.7595 29.4794 29.9187 29.6051 30.0719C29.8219 30.3359 30.0393 30.6009 30.2632 30.8589C30.3096 30.9125 30.3714 30.9574 30.3986 31.0249C30.4635 31.1862 30.2426 30.714 30.1629 30.5593C29.9375 30.1218 29.6856 29.6917 29.4975 29.2362C29.4842 29.2039 29.4373 29.102 29.4616 29.0597C29.5016 28.9902 29.9743 29.436 30.008 29.4694C30.4059 29.8645 30.7763 30.3159 31.104 30.7715" stroke="#F19E00" stroke-linecap="round"/>
<path d="M32.9953 28.9939C32.9156 28.8627 32.8347 28.7311 32.7591 28.5977C32.7007 28.4947 32.942 28.6672 32.9474 28.6703C33.1514 28.786 33.3653 28.8813 33.5719 28.9889C33.6713 29.0407 33.5313 28.8954 33.5175 28.8769C33.2655 28.5376 33.0041 28.1931 32.7805 27.8353C32.7582 27.7996 32.7843 27.805 32.8128 27.8171C32.912 27.8594 33.0047 27.9191 33.0943 27.9774C33.2452 28.0755 33.4096 28.1646 33.5506 28.2753C33.575 28.2946 33.6824 28.3756 33.6127 28.2885C33.4341 28.0653 33.2248 27.8656 33.0704 27.6243C33.0454 27.5852 33.035 27.5655 33.0989 27.583C33.3 27.6382 33.4936 27.726 33.6839 27.8084C33.8271 27.8703 33.9686 27.9363 34.1123 27.9974C34.1561 28.0161 34.1273 27.9923 34.1097 27.9711C33.9524 27.7818 33.815 27.5779 33.6606 27.3865C33.6289 27.3472 33.5993 27.307 33.5687 27.2675C33.5663 27.2644 33.5637 27.25 33.5713 27.25C33.6371 27.25 33.7469 27.3335 33.7965 27.3614C34.0349 27.4959 34.2615 27.652 34.485 27.8084C34.5132 27.828 34.4968 27.8282 34.476 27.8121C34.4044 27.7569 34.3492 27.6845 34.2883 27.6193" stroke="#F19E00" stroke-linecap="round"/>
<path d="M27.3848 25.0444C27.4477 25.1584 27.4961 25.2705 27.5786 25.3712C27.6427 25.4496 27.6123 25.2891 27.6107 25.246C27.6042 25.0804 27.5789 24.9174 27.6015 24.7518C27.6031 24.7398 27.6088 24.5951 27.6451 24.6311C27.7608 24.746 27.8278 24.9568 27.8962 25.1014C27.9013 25.1123 28.0127 25.3411 28.02 25.3177C28.0402 25.2532 28.0246 25.1595 28.0246 25.0945C28.0246 24.9535 28.0282 24.8119 28.02 24.671C28.0119 24.531 28.0101 24.3593 27.9673 24.2247C27.8808 23.9529 28.2187 24.7378 28.3227 25.0035C28.3261 25.0122 28.3483 25.1346 28.3537 25.0889C28.3775 24.8883 28.3567 24.6678 28.3445 24.4672C28.3393 24.3811 28.3507 24.2759 28.3181 24.195C28.2727 24.0822 28.4108 24.2341 28.419 24.2451C28.5701 24.4472 28.7692 24.6802 28.8502 24.9215" stroke="#A96901" stroke-linecap="round"/>
<path d="M29.1894 26.1419C29.1176 26.0686 29.0597 25.9946 29.0036 25.9096C28.9787 25.8718 29.0898 25.9446 29.1229 25.9756C29.2314 26.0777 29.3254 26.1977 29.4072 26.3218C29.4114 26.3281 29.4367 26.3827 29.4531 26.3628C29.4996 26.3063 29.4372 26.157 29.4623 26.0849C29.5052 25.9613 29.621 26.0237 29.695 25.9665C29.8509 25.8461 29.6103 25.5549 29.89 25.5896C29.9232 25.5938 30.0216 25.6411 29.984 25.5589C29.9425 25.4683 30.0428 25.4967 30.0769 25.5475" stroke="#A96901" stroke-linecap="round"/>
<path d="M28.25 27.681C28.3923 27.3836 28.4778 27.0773 28.6007 26.7766C28.6187 26.7327 28.6306 26.7479 28.6312 26.788C28.6341 26.9941 28.5744 27.184 28.5126 27.3837C28.4613 27.5495 28.4293 27.7198 28.372 27.8842C28.3632 27.9095 28.335 27.9821 28.3567 27.9617C28.4401 27.8835 28.4972 27.7763 28.5516 27.686C28.5633 27.6666 28.7028 27.364 28.7447 27.3729C28.7933 27.3833 28.7874 27.6652 28.7904 27.6994C28.7993 27.7981 28.7837 27.8929 28.7837 27.9909C28.7837 28.0355 28.8118 27.9043 28.8277 27.8613C28.8887 27.6973 28.9502 27.5331 29.0175 27.3704C29.0532 27.2838 29.0912 27.1976 29.131 27.1119C29.1461 27.0793 29.134 27.1809 29.1327 27.2154C29.1257 27.3942 29.1105 27.5727 29.0895 27.7508C29.0806 27.8259 29.0771 27.8472 29.0674 27.9153C29.0649 27.9332 29.0465 27.973 29.07 27.9693C29.1171 27.9619 29.1418 27.9211 29.175 27.895C29.2393 27.8445 29.3508 27.7559 29.4114 27.707C29.5121 27.6257 29.6079 27.5429 29.7019 27.4574C29.8158 27.3539 29.6927 27.6475 29.6841 27.6714C29.6708 27.7085 29.6464 27.8548 29.5918 27.8753" stroke="#A96901" stroke-linecap="round"/>
<path d="M29.2227 24.6959C29.379 24.443 29.587 24.2137 29.7341 23.9581C29.7368 23.9533 29.7547 23.9078 29.7673 23.9228C29.8118 23.9758 29.6107 24.3353 29.5919 24.3817C29.5214 24.5558 29.472 24.7312 29.421 24.9111C29.4025 24.9764 29.5322 24.8301 29.5758 24.7779C29.7646 24.5521 29.937 24.3139 30.1193 24.0834C30.1521 24.042 30.1471 24.0821 30.1377 24.113C30.0659 24.3499 30.0081 24.5886 29.96 24.8314C29.9585 24.839 29.8925 25.1515 29.9267 25.1058C30.0832 24.8966 30.2286 24.6694 30.3601 24.4443C30.4612 24.2714 30.5365 24.0926 30.6055 23.9057C30.6247 23.8537 30.6087 24.0171 30.6009 24.072C30.5595 24.3644 30.5156 24.6571 30.4863 24.951C30.4821 24.9926 30.4519 25.1058 30.4817 25.0762C30.5399 25.0184 30.578 24.89 30.609 24.8189C30.7129 24.5805 30.8144 24.341 30.9105 24.0993C30.9194 24.0771 31.1118 23.4958 31.1215 23.4958C31.1694 23.4958 31.103 23.5897 31.0848 23.6336C31.0072 23.8216 30.9489 24.0139 30.8991 24.2109C30.861 24.3612 30.7913 24.5079 30.7913 24.6641C30.7913 24.7731 30.8984 24.6464 30.9392 24.6117C31.0836 24.4887 31.2445 24.3893 31.3795 24.2553C31.4165 24.2186 31.4608 24.1751 31.4495 24.2621C31.432 24.3963 31.4105 24.5193 31.4105 24.6549" stroke="#A96901" stroke-linecap="round"/>
<path d="M30.1299 27.5243C30.2984 27.3617 30.4807 27.1987 30.6745 27.0655C30.7185 27.0352 30.7058 27.1173 30.7032 27.1372C30.6766 27.3446 30.5768 27.5456 30.5014 27.7384C30.4085 27.9759 30.2687 28.2139 30.1964 28.458C30.1403 28.6473 30.4127 28.1269 30.5175 27.9593C30.6036 27.8213 30.6976 27.6897 30.7904 27.5562C30.8613 27.454 30.9182 27.3313 31.0048 27.2408C31.1203 27.1201 31.0439 27.265 31.014 27.3672C30.9 27.7557 30.7929 28.1502 30.7239 28.5491C30.688 28.7564 30.9199 28.3578 30.9394 28.3213C31.0445 28.1247 31.1521 27.9227 31.2433 27.719C31.2902 27.6142 31.2895 27.5848 31.2846 27.7372C31.2699 28.1898 31.1097 28.612 30.9784 29.0409C30.9626 29.0926 30.8793 29.2578 30.8981 29.3233C30.9134 29.3764 31.0532 29.1817 31.061 29.1707C31.1896 28.9882 31.3639 28.8803 31.5919 28.8576C31.7419 28.8427 31.6426 29.0602 31.6985 29.1434" stroke="#A96901" stroke-linecap="round"/>
<path d="M28.6445 29.2869C28.7183 29.2566 29.0367 29.0819 29.0367 29.2504C29.0367 29.4535 28.9484 29.6948 28.883 29.8858C28.8534 29.9724 28.8237 30.0523 28.8096 30.1431C28.8054 30.1705 28.783 30.2197 28.8188 30.1704C28.9877 29.9382 29.2068 29.6862 29.4403 29.5168C29.4509 29.5092 29.6166 29.3721 29.6307 29.3939C29.665 29.4469 29.6121 29.5962 29.5997 29.6444C29.5318 29.908 29.4548 30.1703 29.3807 30.4323C29.3402 30.5753 29.2001 30.9972 29.2637 30.8627C29.3507 30.6787 29.4594 30.5063 29.5527 30.3253C29.6995 30.0403 29.8297 29.7527 29.9999 29.4804C30.0827 29.348 30.1145 29.2026 30.1088 29.4645C30.0951 30.0929 30.0378 30.7212 29.9781 31.3466C29.9761 31.3672 29.9397 31.5726 29.9747 31.5891C30.0145 31.608 30.1412 31.4673 30.1627 31.4468C30.2723 31.3425 30.4567 31.2016 30.5216 31.0619C30.5544 30.9914 30.5864 31.045 30.5835 31.0972C30.5779 31.1982 30.5622 31.2994 30.5388 31.3978C30.5252 31.4552 30.4921 31.5284 30.5033 31.5891C30.5098 31.6251 30.6169 31.505 30.6214 31.5003C30.7108 31.4059 30.8103 31.3303 30.9092 31.2464C31.0462 31.1302 31.0892 31.0827 31.1419 31.2749" stroke="#A96901" stroke-linecap="round"/>
<path d="M26.3535 29.2867C26.5184 29.5173 26.6937 29.7476 26.881 29.9608C26.9474 30.0364 26.9738 30.0453 26.9727 29.938C26.9703 29.7022 26.8977 29.4743 26.858 29.2435C26.8224 29.0362 26.8086 28.8276 26.7824 28.6195C26.7777 28.5822 26.7641 28.5458 26.7663 28.5079C26.7713 28.4244 26.8756 28.6369 26.9154 28.7106C27.1019 29.0562 27.2905 29.4003 27.4795 29.7444C27.4875 29.7589 27.5114 29.8279 27.5277 29.8401C27.5453 29.8532 27.5244 29.7965 27.5197 29.7752C27.4929 29.6557 27.4624 29.553 27.4279 29.4325C27.3258 29.0749 27.184 28.7099 27.1206 28.3428C27.1026 28.2387 27.2605 28.5025 27.3236 28.5876C27.6325 29.0048 27.9332 29.4275 28.1274 29.9095C28.1915 30.0687 28.1074 29.5671 28.085 29.3972C28.0551 29.1707 28.0086 28.951 27.9657 28.7277C27.9142 28.4591 28.1491 29.2525 28.3143 29.4712" stroke="#A96901" stroke-linecap="round"/>
<path d="M24 26.4995C24.3134 26.1927 24.6408 25.8977 24.9792 25.6182C24.9957 25.6047 25.1365 25.4673 25.1765 25.4748C25.3013 25.498 24.9031 26.7441 24.8611 26.8787C24.8302 26.9778 24.8546 26.9569 24.9104 26.8866C25.1288 26.6122 25.2965 26.2843 25.4333 25.9632C25.4407 25.946 25.5687 25.5037 25.6099 25.5158C25.7033 25.543 25.6695 26.0767 25.6707 26.1511C25.6735 26.3247 25.6609 26.5015 25.6718 26.6748C25.6746 26.7194 25.6978 26.6767 25.7074 26.6589C25.7785 26.5269 25.8255 26.3792 25.8794 26.2399C25.996 25.9382 26.093 25.6297 26.1958 25.3233C26.1989 25.3143 26.2216 25.1979 26.2245 25.2015C26.2957 25.2879 26.2715 25.5704 26.2818 25.6717C26.3093 25.9418 26.3494 26.2123 26.3942 26.479" stroke="#A96901" stroke-linecap="round"/>
<path d="M25.1351 28.6924C25.1275 28.6702 24.9593 28.2817 24.9746 28.2665C25.0155 28.2259 25.3218 28.4124 25.3805 28.435C25.4862 28.4758 25.4662 28.4503 25.4447 28.3189C25.424 28.192 25.3881 28.069 25.3622 27.9432C25.3563 27.9144 25.316 27.8105 25.3243 27.7815C25.333 27.7514 25.6128 27.9921 25.6339 28.0115C25.6581 28.0336 25.8323 28.1668 25.8323 28.2062C25.8323 28.2326 25.8006 28.1636 25.7864 28.1413C25.7298 28.0521 25.6697 27.9661 25.6076 27.8805C25.4991 27.7313 25.3886 27.5839 25.3003 27.4217C25.295 27.412 25.2497 27.3687 25.2727 27.3648C25.3916 27.3444 25.5756 27.4878 25.6798 27.5321C25.7543 27.5638 25.9401 27.6062 25.9814 27.6881" stroke="#A96901" stroke-linecap="round"/>
<path d="M21.7637 13.6333C21.9793 14.7231 22.1918 15.8473 22.5236 16.909C22.7787 17.7252 23.2191 18.4698 23.6152 19.2242C23.7706 19.5202 24.1782 19.8245 24.4994 19.9308" stroke="#A96901" stroke-linecap="round"/>
<path d="M16.7266 32.2171C18.5943 32.195 20.5532 31.9272 22.3017 31.2327C22.5328 31.1409 22.8007 31.0845 23.0064 30.9823" stroke="#A96901" stroke-linecap="round"/>
<path d="M30.7165 37.5884C30.7289 36.2279 30.8633 34.8627 30.6543 33.5135" stroke="#A96901" stroke-linecap="round"/>
<path d="M31.2148 29.5006C31.9125 29.9106 32.7223 30.3178 33.2114 30.9824C33.6392 31.5636 33.7716 32.4025 33.9644 33.0815C34.079 33.485 34.2615 33.8375 34.2615 34.2546" stroke="#A96901" stroke-linecap="round"/>
<path d="M34.8828 24.1908C37.1358 22.2925 40.0269 21.2934 42.8414 20.5481" stroke="#A96901" stroke-linecap="round"/>
<path d="M31.5254 20.1161C31.5403 18.2191 31.6276 16.3273 31.9192 14.4497C32.308 11.9463 33.013 9.51823 33.522 7.0409C33.5919 6.70033 33.6164 6.39369 33.7638 6.10107" stroke="#A96901" stroke-linecap="round"/>
<path d="M29.7841 5.6687C29.2854 8.09939 28.7893 10.5054 28.7893 12.9952C28.7893 13.194 28.6153 14.5038 28.8514 14.621" stroke="#A96901" stroke-linecap="round"/>
<path d="M32.6445 19.2515C34.2638 16.4629 36.0523 13.6602 38.2059 11.2459C38.3504 11.0838 38.6055 10.817 38.6757 10.6079" stroke="#A96901" stroke-linecap="round"/>
<path d="M36.3125 21.0419C37.5697 19.6643 38.7932 17.9781 40.5543 17.1797C40.6726 17.1261 40.8476 17.0288 40.9758 17.0288" stroke="#A96901" stroke-linecap="round"/>
<path d="M44.3956 9.49658C44.1327 10.4803 43.405 11.2892 43.1002 12.2577C43.0443 12.4353 42.9033 12.583 42.9033 12.7688" stroke="#A96901" stroke-linecap="round"/>
<path d="M43.1523 12.9542C44.1466 12.3671 45.1314 11.7897 46.0228 11.0539C46.3109 10.8162 46.5696 10.5294 46.8864 10.3302C47.1052 10.1926 47.4368 10.0753 47.5047 9.80542" stroke="#A96901" stroke-linecap="round"/>
<path d="M45.8262 12.6454C46.8851 12.3007 47.9401 11.9046 48.935 11.4106" stroke="#A96901" stroke-linecap="round"/>
<path d="M48.4375 13.5097C48.9546 13.3249 49.4163 13.0623 49.9297 12.8923" stroke="#A96901" stroke-linecap="round"/>
<path d="M39.4219 28.3892C39.9671 28.6538 40.4939 28.8682 41.0834 29.0169C42.3732 29.3421 43.6439 29.7306 44.9521 29.9807C45.907 30.1632 46.8995 30.3828 47.8779 30.3648C48.5409 30.3526 49.2006 30.2414 49.8676 30.2414" stroke="#A96901" stroke-linecap="round"/>
<path d="M44.6445 27.6482C46.8035 27.6482 49.0216 27.7616 51.0487 26.9381C51.2868 26.8414 51.74 26.7075 51.857 26.4751" stroke="#A96901" stroke-linecap="round"/>
<path d="M36.4375 35.3041C38.5242 37.9306 41.0087 40.153 44.0231 41.6496C44.315 41.7945 44.994 42.1097 45.1422 42.4042" stroke="#A96901" stroke-linecap="round"/>
<path d="M30.5925 41.1075C30.5573 41.8768 30.3911 42.634 30.285 43.3954C30.1319 44.4953 30.0804 45.6067 29.9224 46.7053C29.811 47.4794 29.7842 48.2171 29.7842 49C29.7842 49.6701 29.9085 50.3198 29.9085 50.986" stroke="#A96901" stroke-linecap="round"/>
<path d="M33.6387 41.3546C33.6611 42.1899 33.8087 43.0794 34.0117 43.886" stroke="#A96901" stroke-linecap="round"/>
<path d="M34.8828 40.2433C35.233 41.4119 35.6503 42.5665 36.1263 43.6904C36.6499 44.9265 37.3654 46.0384 38.0366 47.1959C38.2556 47.5737 38.7378 48.1113 38.7378 48.5782" stroke="#A96901" stroke-linecap="round"/>
<path d="M15.4219 46.3555C17.201 45.6012 18.956 44.5275 20.5065 43.3851C21.3898 42.7343 22.0326 41.9777 22.662 41.1076C22.8878 40.7955 23.1955 40.4237 23.3183 40.058" stroke="#A96901" stroke-linecap="round"/>
<path d="M14.5508 42.6511C16.4142 41.8553 18.218 40.9693 20.0016 40.01C20.6108 39.6824 21.2302 39.2322 21.8807 38.981C22.1356 38.8826 22.0646 38.6119 22.2607 38.5145" stroke="#A96901" stroke-linecap="round"/>
<path d="M5.16211 34.1928C6.14082 34.1928 7.11952 34.1928 8.09823 34.1928C9.03339 34.1928 9.99814 34.2614 10.9307 34.179C11.3056 34.146 11.5842 34.0007 11.9256 33.8703C12.1713 33.7765 12.3823 33.5235 12.6233 33.4039C12.7432 33.3444 12.8869 33.284 12.9342 33.1432" stroke="#A96901" stroke-linecap="round"/>
<path d="M7.89844 24.4377C9.82014 24.7413 11.6499 25.3286 13.5151 25.8578C13.6576 25.8982 13.8052 25.8815 13.8052 26.043" stroke="#A96901" stroke-linecap="round"/>
<path d="M10.8203 14.2505C11.713 14.5987 12.632 14.8764 13.3177 15.5573C13.5448 15.7828 14.24 16.3505 14.24 16.7201" stroke="#A96901" stroke-linecap="round"/>
<path d="M14.4268 10.855C14.91 11.4288 15.6832 12.1177 15.7946 12.8924" stroke="#A96901" stroke-linecap="round"/>
<path d="M20.1473 7.27393C20.1473 8.09171 20.0785 8.97322 20.2406 9.77783C20.3086 10.1155 20.4793 10.3619 20.5826 10.6696" stroke="#A96901" stroke-linecap="round"/>
<path d="M1.9502 30.287C5.01685 30.8075 7.54945 31.4217 10.4062 30.287" stroke="#FDCB00" stroke-linecap="round"/>
<path d="M4.18359 32.9803C6.57842 33.4333 9.16592 33.5332 11.6025 33.4468C12.2476 33.4239 12.7905 33.1388 13.4373 33.1388" stroke="#FDCB00" stroke-linecap="round"/>
<path d="M12.3213 43.2779C13.8214 42.2848 15.323 41.4959 16.9659 40.7607C17.8662 40.3577 18.9495 39.7992 19.6427 39.0796C20.2565 38.4425 20.806 37.7044 21.4155 37.0992" stroke="#FDCB00" stroke-linecap="round"/>
<path d="M14.0762 45.9712C16.4754 44.2103 19.3669 42.6341 21.2203 40.2678C21.4506 39.9738 21.743 39.6813 22.0535 39.4757" stroke="#FDCB00" stroke-linecap="round"/>
<path d="M15.8311 30.4454C17.6603 30.4454 19.6785 30.287 21.4152 30.287" stroke="#FDCB00" stroke-linecap="round"/>
<path d="M22.5186 33.8185L25.3981 32.3156" stroke="#FDCB00" stroke-linecap="round"/>
<path d="M28.8311 34.6984C29.4911 35.8706 30.0432 37.0887 30.3529 38.4008C30.3766 38.5012 30.3816 38.5926 30.3816 38.6941" stroke="#FDCB00" stroke-linecap="round"/>
<path d="M32.0801 30.226C32.5036 30.7178 32.9302 31.1983 33.2594 31.7615C33.639 32.4111 33.8571 33.1105 34.0654 33.8266C34.2203 34.359 34.332 34.9112 34.332 35.468" stroke="#FDCB00" stroke-linecap="round"/>
<path d="M16.8809 16.5933C17.3146 18.4353 17.6163 20.4265 18.2762 22.2125C18.3993 22.5457 18.6151 22.8848 18.8232 23.1704C19.155 23.6258 19.4946 24.0792 19.8438 24.5217C20.1124 24.862 20.7793 24.9734 20.9119 25.3684" stroke="#FDCB00" stroke-linecap="round"/>
<path d="M22.6172 11.7441C22.7473 14.0819 22.7602 16.6511 23.9953 18.7147C24.2713 19.1758 24.6391 19.5793 24.9428 20.0233C25.0461 20.1743 25.1954 20.2713 25.2529 20.4424" stroke="#FDCB00" stroke-linecap="round"/>
<path d="M27.6562 4.5083C27.9949 6.13154 28.5865 7.84634 28.5865 9.5117" stroke="#FDCB00" stroke-linecap="round"/>
<path d="M30.0586 3.50757C30.1016 4.53359 30.2967 5.54697 30.3558 6.57375C30.5123 9.29426 30.4065 12.0257 30.2955 14.746C30.2765 15.2097 30.2136 15.6679 30.2136 16.1315C30.2136 16.5756 30.1361 16.9909 30.1361 17.4401" stroke="#FDCB00" stroke-linecap="round"/>
<path d="M32.1523 4.4314C32.4674 6.45049 32.8185 8.44017 32.9103 10.4868C32.9827 12.1005 32.9235 13.7264 32.8113 15.3362C32.7442 16.2977 32.6946 17.4415 32.3849 18.3639" stroke="#FDCB00" stroke-linecap="round"/>
<path d="M34.0128 2.50684C34.4244 3.71125 34.5293 5.02912 34.7277 6.27863C34.9717 7.81519 35.0848 9.32336 35.2144 10.8672C35.3315 12.2629 35.2252 13.7051 34.9775 15.0795C34.7485 16.3503 34.4468 17.5305 33.9827 18.7358C33.8718 19.0238 33.7803 19.2109 33.7803 19.5184" stroke="#FDCB00" stroke-linecap="round"/>
<path d="M37.2686 5.50903C37.8802 7.27322 38.3231 9.45495 37.9619 11.3378C37.8288 12.0318 37.6227 12.6953 37.471 13.3819C37.42 13.6126 37.3986 13.7826 37.2686 13.9763" stroke="#FDCB00" stroke-linecap="round"/>
<path d="M35.7949 22.5205C36.9016 20.3959 38.5505 18.4945 40.8337 17.6112C41.5417 17.3373 42.3118 17.2533 43.0043 16.9783" stroke="#FDCB00" stroke-linecap="round"/>
<path d="M37.8105 27.0619C38.9352 26.1394 40.087 25.2937 41.3765 24.6073C41.9469 24.3036 42.537 23.9572 43.168 23.7948C43.58 23.6887 44.0886 23.5215 44.4772 23.35C44.9003 23.1633 45.2679 22.9691 45.7176 22.9053" stroke="#FDCB00" stroke-linecap="round"/>
<path d="M36.4932 35.8373C36.8226 36.6007 37.2835 37.2292 37.7852 37.8985C39.0154 39.5396 40.2966 41.1782 41.7128 42.6667C42.2449 43.2259 43.0677 44.1582 43.8575 44.4243C44.2284 44.5493 44.6436 44.4108 45.0203 44.5355" stroke="#FDCB00" stroke-linecap="round"/>
<path d="M38.8184 34.7596C41.4644 37.3871 44.3602 39.8167 47.8537 41.2598C48.4468 41.5048 49.0706 41.6426 49.6711 41.8414" stroke="#FDCB00" stroke-linecap="round"/>
<path d="M40.0586 29.4484C43.4662 30.5601 46.8719 31.645 50.4635 31.9458C50.9587 31.9873 51.3633 31.9698 51.8287 31.8004C51.9975 31.7389 52.1261 31.6806 52.3067 31.6806" stroke="#FDCB00" stroke-linecap="round"/>
<path d="M43.3926 28.6784C45.3282 28.11 47.3995 27.9509 49.3788 27.5709C50.2439 27.4047 51.0869 27.2251 51.7044 26.5659C51.9735 26.2787 52.414 25.8974 52.5399 25.5225" stroke="#FDCB00" stroke-linecap="round"/>
<path d="M41.7646 6.66357C41.9962 8.0983 42.1522 9.45111 42.1522 10.9015C42.1522 11.2336 42.1522 11.5658 42.1522 11.8979" stroke="#FDCB00" stroke-linecap="round"/>
<path d="M47.4229 8.20312C46.2225 9.86083 44.624 11.169 43.0861 12.5052C42.8793 12.6849 42.5459 12.8568 42.3066 12.9756" stroke="#FDCB00" stroke-linecap="round"/>
<path d="M46.7256 12.7447C46.8339 12.7388 50.0589 12.4027 50.0589 12.8217" stroke="#FDCB00" stroke-linecap="round"/>
<path d="M48.1992 14.1302C48.9283 14.1302 49.7692 14.0042 50.4904 14.1344C50.7558 14.1824 50.9959 14.2931 51.145 14.515" stroke="#FDCB00" stroke-linecap="round"/>
<path d="M24.1673 5.73999C24.1673 6.57704 24.013 7.60375 24.1845 8.43413C24.235 8.67879 24.3339 9.40208 24.5549 9.51178" stroke="#FDCB00" stroke-linecap="round"/>
<path d="M14.8652 9.66553C15.1475 10.5218 15.3194 11.2865 15.9333 11.9748C16.2612 12.3424 16.6263 12.7083 16.8807 13.1294" stroke="#FDCB00" stroke-linecap="round"/>
<path d="M12.5391 10.3584C12.7709 11.1412 13.2985 11.8427 13.7019 12.5479C13.9542 12.9892 14.3665 13.3803 14.589 13.8223C14.7427 14.1274 15.1195 14.2666 15.4073 14.4381" stroke="#FDCB00" stroke-linecap="round"/>
<path d="M9.12891 12.6677C10.1789 14.3668 11.4829 15.9841 13.3796 16.7688C13.8243 16.9528 14.5096 17.3632 15.0204 17.3632" stroke="#FDCB00" stroke-linecap="round"/>
<path d="M4.24512 26.6001C6.41314 26.6001 8.5432 26.5074 10.7051 26.3521C11.2596 26.3122 11.8424 26.0613 12.3847 26.0613" stroke="#FDCB00" stroke-linecap="round"/>
<path d="M33.0045 41.0717C33.0045 42.2225 32.8307 43.5012 33.2199 44.604C33.3552 44.9876 33.6256 45.3866 33.7022 45.7671" stroke="#FDCB00" stroke-linecap="round"/>
<path d="M34.7871 40.7638C35.6898 42.681 36.5639 44.6083 37.4314 46.5412C37.7047 47.1501 37.9567 47.7694 38.3186 48.333C38.4261 48.5005 38.5783 48.9966 38.7406 49.0771" stroke="#FDCB00" stroke-linecap="round"/>
<path d="M36.3379 39.609C36.5686 40.1967 36.8993 40.7345 37.1906 41.2939C37.8255 42.5129 38.4075 43.7572 39.0166 44.9887C39.4834 45.9324 40.0423 46.8245 40.5067 47.7684C40.7254 48.2128 40.8512 48.7262 41.0666 49.1539" stroke="#FDCB00" stroke-linecap="round"/>
<path d="M15.7949 25.9075C16.1397 26.8346 16.9283 27.5189 17.6985 28.1141C18.3571 28.6231 18.9616 28.9095 19.7915 28.9095C20.0005 28.9095 20.8867 28.9583 20.9887 28.7556" stroke="#FED501" stroke-linecap="round"/>
<path d="M16.585 19.8679C17.2897 21.5448 17.9533 23.2556 18.7565 24.8904C18.8979 25.1782 19.018 25.3642 19.2184 25.5905C19.3062 25.6897 19.409 25.8232 19.5377 25.8735C19.6721 25.9259 19.8097 25.97 19.9455 26.0149" stroke="#FED501" stroke-linecap="round"/>
<path d="M18.9287 15.0381C18.9287 16.2583 18.845 17.5466 19.194 18.7312C19.3906 19.3985 19.6768 20.0089 19.9556 20.6363C20.1829 21.148 20.504 21.6892 20.8694 22.1218C20.9835 22.2569 21.1033 22.5482 21.2723 22.5901" stroke="#FED501" stroke-linecap="round"/>
<path d="M24.8096 12.5793C25.1385 14.6478 25.283 16.7799 25.8806 18.7947C26.0332 19.309 26.2568 19.8043 26.5341 20.2631" stroke="#FED501" stroke-linecap="round"/>
<path d="M17.5166 13.9688L20.4799 21.6644" stroke="#FDEC00" stroke-linecap="round"/>
<path d="M20.0996 13.667C20.1196 15.7139 20.4933 17.9019 21.3871 19.7657C21.5691 20.1453 21.7091 20.7431 22.0751 20.9854" stroke="#FDEC00" stroke-linecap="round"/>
<path d="M22.5312 12.3843C22.4498 14.122 22.0844 15.8247 22.0753 17.5734C22.0702 18.5446 22.3081 19.2758 22.6916 20.1721C22.9636 20.8078 23.2908 21.4377 23.5949 22.0415" stroke="#FDEC00" stroke-linecap="round"/>
<path d="M24.6588 11.5544C24.3153 13.0516 24.3549 14.5873 24.3549 16.1148C24.3549 17.0606 24.3796 17.9385 24.701 18.8351C24.842 19.2283 25.1907 19.7971 25.1907 20.2309" stroke="#FDEC00" stroke-linecap="round"/>
<path d="M16.5293 20.0046C17.1651 21.3479 18.0105 22.4664 18.9691 23.601C19.313 24.0079 19.6746 24.4149 20.1004 24.7411C20.3183 24.908 20.5935 25.1351 20.8602 25.1351" stroke="#FDEC00" stroke-linecap="round"/>
<path d="M15.0098 27.3231C15.9761 27.3231 16.9831 27.4013 17.9393 27.2392C18.3938 27.1622 18.8361 26.9898 19.2816 26.8704C19.5541 26.7974 19.9438 26.798 20.1765 26.644" stroke="#FDEC00" stroke-linecap="round"/>
<path d="M16.9082 32.9063C17.9698 32.8455 18.9342 32.3229 19.7533 31.674C20.2256 31.2997 20.7827 30.834 20.9943 30.2489C21.1281 29.8787 21.3151 29.5274 21.3151 29.1339" stroke="#FDEC00" stroke-linecap="round"/>
<path d="M21.1641 34.8678C22.0523 34.1118 22.6763 32.8118 23.1987 31.7744C23.4414 31.2924 23.621 30.8771 23.8994 30.4164" stroke="#FDEC00" stroke-linecap="round"/>
<path d="M24.6582 35.6221C24.9822 35.1519 25.2471 34.4523 25.342 33.8868" stroke="#FDEC00" stroke-linecap="round"/>
<path d="M28.2305 33.6608C28.8706 35.0197 29.978 36.02 29.978 37.584" stroke="#FDEC00" stroke-linecap="round"/>
<path d="M30.1289 33.8868C30.8029 35.3605 31.7245 37.0377 31.7245 38.7155" stroke="#FDEC00" stroke-linecap="round"/>
<path d="M32.25 30.25C32.2753 30.8856 32.5833 31.4614 32.8167 32.0717C33.18 33.0218 33.511 34.0001 33.6667 34.9788C33.7082 35.2396 33.75 35.4885 33.75 35.75" stroke="#FDEC00" stroke-linecap="round"/>
<path d="M36.7393 25.3612C39.5776 23.9177 42.8406 22.5488 46.0722 22.423C46.1646 22.4194 46.6324 22.3356 46.4648 22.4188" stroke="#FDEC00" stroke-linecap="round"/>
<path d="M36.4355 22.0417C37.9276 20.5028 39.5759 19.1854 41.4503 18.1184C43.4142 17.0004 45.6866 16.0072 47.9593 15.7251C48.1121 15.7061 48.5152 15.7822 48.5925 15.6287" stroke="#FDEC00" stroke-linecap="round"/>
<path d="M34.9922 19.6273C37.2769 17.3026 40.1011 15.5068 43.063 14.1699C43.2373 14.0913 43.4597 13.9688 43.654 13.9688" stroke="#FDEC00" stroke-linecap="round"/>
<path d="M34.0039 17.1376C34.029 13.8502 34.0759 10.1115 35.7261 7.1618C35.8566 6.92858 36.0684 6.3695 36.3593 6.27319" stroke="#FDEC00" stroke-linecap="round"/>
<path d="M33.9287 17.7414C34.3439 16.219 34.9241 14.7894 35.6974 13.4073C36.4022 12.1476 37.2114 10.646 38.2723 9.62659C38.4159 9.48855 38.5521 9.32396 38.7155 9.21582" stroke="#FDEC00" stroke-linecap="round"/>
<path d="M31.8007 18.194C31.7452 17.5457 31.4442 16.9193 31.328 16.2743C31.1043 15.0325 31.0873 13.8162 31.2773 12.5689C31.4403 11.4989 31.8375 10.4883 32.0118 9.42531C32.1249 8.73533 32.1742 8.03792 32.2862 7.34632C32.3462 6.97536 32.4314 6.65348 32.5183 6.29844C32.5581 6.13616 32.6991 5.45002 32.8645 5.36792" stroke="#FDEC00" stroke-linecap="round"/>
<path d="M27.0137 8.08406C27.666 6.28478 28.5377 4.60946 29.6392 3.04167C29.7265 2.9174 29.845 2.71736 29.9769 2.65186" stroke="#FDEC00" stroke-linecap="round"/>
<path d="M30.5859 10.3475C30.5859 8.53815 31.0366 6.76848 31.9536 5.20035C32.0505 5.03456 32.2332 4.62561 32.4095 4.53809" stroke="#FDEC00" stroke-linecap="round"/>
<path d="M38.0195 28.7641L51.0047 28.2441" stroke="#FDEC00" stroke-linecap="round"/>
<path d="M39.0664 30.9478C42.315 30.9478 45.5565 30.9226 48.8053 30.9478C49.5483 30.9536 50.5494 31.0413 51.1615 31.514C51.4644 31.7479 51.8307 31.9358 52.1563 32.1437C52.3913 32.2936 52.8333 32.6116 53.0988 32.6116" stroke="#FDEC00" stroke-linecap="round"/>
<path d="M40.6367 32.0917C43.2054 32.6676 45.6732 33.5986 48.2696 34.0674C48.7154 34.1479 49.3716 34.2346 49.7473 34.4833" stroke="#FDEC00" stroke-linecap="round"/>
<path d="M36.4482 36.8749C38.966 37.6814 41.5936 38.058 44.1102 38.891C45.0452 39.2005 45.7976 39.649 46.6526 40.0984C46.8911 40.2238 47.2424 40.5304 47.3391 40.7223" stroke="#FDEC00" stroke-linecap="round"/>
<path d="M35.9248 38.2267C38.2405 39.2147 40.66 40.2168 42.6734 41.7506C43.4666 42.3549 44.4862 43.0313 45.0354 43.8765C45.2665 44.2321 45.8513 44.6086 45.9779 44.9856" stroke="#FDEC00" stroke-linecap="round"/>
<path d="M33.6214 40.2023C33.0718 42.7188 33.0145 45.5558 31.9866 47.9375C31.6342 48.7541 31.0123 49.5253 30.7939 50.3927" stroke="#FDEC00" stroke-linecap="round"/>
<path d="M30.1647 41.7621C29.0909 43.2386 28.4211 45.0005 27.5875 46.6147C27.1366 47.4877 26.6855 48.3598 26.2436 49.2374C26.0498 49.6223 25.7115 50.0479 25.3477 50.2888" stroke="#FDEC00" stroke-linecap="round"/>
<path d="M23.3589 41.4501C22.0276 43.2592 20.6417 45.1881 19.0654 46.7533" stroke="#FDEC00" stroke-linecap="round"/>
<path d="M12.2578 39.9945C14.8353 39.9945 17.5603 39.9644 20.0769 39.3764C20.505 39.2764 21.0423 39.2623 21.4499 39.1049C21.5975 39.0479 21.5552 38.9139 21.6826 38.8507" stroke="#FDEC00" stroke-linecap="round"/>
<path d="M5.66113 26.0605C7.27297 26.7008 9.05417 27.6203 10.8389 27.6203C11.1951 27.6203 11.4965 27.6391 11.8396 27.7243" stroke="#FDEC00" stroke-linecap="round"/>
<path d="M7.86035 23.9807C10.2632 25.0412 12.6328 26.1644 15.2954 26.1644" stroke="#FDEC00" stroke-linecap="round"/>
<path d="M9.43066 12.4385C10.1814 14.4703 10.6983 17.1111 12.1883 18.7931C12.825 19.5118 13.5746 20.0888 14.2478 20.7572" stroke="#FDEC00" stroke-linecap="round"/>
<path d="M13.7248 18.7817C13.6918 18.2903 13.4843 17.8902 13.3699 17.4184C13.1991 16.714 13.2012 15.9774 13.2012 15.2578C13.2012 14.4433 13.2012 13.6287 13.2012 12.8142C13.2012 12.1728 13.5153 11.6062 13.5153 10.9829" stroke="#FDEC00" stroke-linecap="round"/>
<path d="M14.248 13.2704C14.5207 12.471 14.8051 11.6764 15.1149 10.8903C15.2483 10.5517 15.3522 10.1059 15.621 9.83893C15.9285 9.53364 16.1888 9.24508 16.4472 8.90308" stroke="#FDEC00" stroke-linecap="round"/>
<path d="M22.1016 7.86336C23.0283 6.64802 24.0667 5.49611 25.1384 4.43188" stroke="#FDEC00" stroke-linecap="round"/>
</svg>
